<svg xmlns="http://www.w3.org/2000/svg" width="407.492" height="462.6" viewBox="0 0 407.492 462.6">
  <g id="Cursor_1_" transform="translate(-42.404 -15.288)">
    <g id="Grupo_1073242" data-name="Grupo 1073242" transform="translate(42.404 15.289)">
      <path id="Shadow_11_" d="M214.48,466.855,66.092,381.15c-5.756-3.349-5.756-8.79,0-12.139L306.359,230.145a9.752,9.752,0,0,1,8.686,0l151.946,87.9a4.612,4.612,0,0,1,0,7.953L223.165,466.855A9.131,9.131,0,0,1,214.48,466.855Z" transform="translate(-61.775 -5.353)" fill="#e0e0e0"/>
      <g id="Laptop_2_" transform="translate(3.27)">
        <g id="Grupo_1073226" data-name="Grupo 1073226" transform="translate(8.581 214.17)">
          <path id="XMLID_28956_" d="M73.1,365.774c0,3.663,2.721,8.162,6.069,10.046l132.168,76.287a13.745,13.745,0,0,0,12.139,0L456.209,317.742c3.349-1.884,6.07-6.488,6.07-10.046,0-3.663-2.721-8.162-6.07-10.046L324.041,221.363a13.745,13.745,0,0,0-12.139,0L79.169,355.728C75.821,357.612,73.1,362.112,73.1,365.774Z" transform="translate(-73.1 -219.95)" fill="#455a64"/>
          <path id="XMLID_28955_" d="M455.872,304.213c0,3.663-2.721,8.162-6.069,10.046L217.07,448.73a12.7,12.7,0,0,1-6.07,1.465V437.009a12.7,12.7,0,0,0,6.07-1.465L449.8,301.179c2.93-1.674,3.349-4.29,1.151-6.279C453.674,297.1,455.872,301.074,455.872,304.213Z" transform="translate(-66.693 -216.468)" fill="#37474f"/>
          <path id="XMLID_28953_" d="M217.407,434.449v13.185a12.7,12.7,0,0,1-6.069-1.465L79.169,369.778c-3.349-1.884-6.069-6.488-6.069-10.046,0-3.453,2.407-7.535,5.442-9.732-2.721,1.988-2.512,4.814.628,6.593L211.338,432.88A11.655,11.655,0,0,0,217.407,434.449Z" transform="translate(-73.1 -213.908)" fill="#263238"/>
        </g>
        <g id="Grupo_1073227" data-name="Grupo 1073227">
          <path id="XMLID_28952_" d="M67.83,365.444c-2.93-2.093-2.93-4.918-2.93-8.79V161.07a13.257,13.257,0,0,1,6.069-10.465L303.6,16.24c3.349-1.884,6.488-.523,9.628,1.256s5.128,3.349,5.128,7.221V220.3a13.257,13.257,0,0,1-6.069,10.465L79.55,365.235C74.423,368.584,70.969,367.747,67.83,365.444Z" transform="translate(-64.9 -15.286)" fill="#37474f"/>
          <path id="Trazado_819912" data-name="Trazado 819912" d="M79.55,359.029c-5.023,3.453-8.581,2.511-11.72.209-2.93-2.093-2.93-4.918-2.93-8.79V154.865a12.692,12.692,0,0,1,1.779-5.965l8.686,5.023a12.692,12.692,0,0,0-1.779,5.965V355.471C73.481,359.343,76.2,360.913,79.55,359.029Z" transform="translate(-64.9 -9.081)" fill="#263238"/>
          <path id="XMLID_28951_" d="M318.279,24.823c0-3.872-2.721-5.442-6.069-3.453L79.476,155.631a11.865,11.865,0,0,0-4.29,4.5L66.5,155.108h0a12.7,12.7,0,0,1,4.29-4.5L303.523,16.242c3.349-1.988,6.488-.523,9.627,1.256C316.29,19.382,318.279,20.951,318.279,24.823Z" transform="translate(-64.826 -15.289)" fill="#455a64"/>
        </g>
        <g id="Grupo_1073228" data-name="Grupo 1073228" transform="translate(14.232 17.311)">
          <path id="XMLID_28949_" d="M82.163,161.874,306.524,32.322c1.988-1.151,3.663-.209,3.663,2.093V213.778a8.1,8.1,0,0,1-3.663,6.279L82.163,349.609c-1.988,1.151-3.663.209-3.663-2.093V168.152A8.1,8.1,0,0,1,82.163,161.874Z" transform="translate(-78.5 -31.831)" fill="#263238"/>
          <path id="Trazado_819913" data-name="Trazado 819913" d="M82.163,161.815a8.1,8.1,0,0,0-3.663,6.279V346.41L301.5,217.7a8.1,8.1,0,0,0,3.663-6.279V33.1Z" transform="translate(-78.5 -31.772)" fill="#27debf"/>
          <path id="Trazado_819914" data-name="Trazado 819914" d="M82.163,161.815a8.1,8.1,0,0,0-3.663,6.279V346.41L301.5,217.7a8.1,8.1,0,0,0,3.663-6.279V33.1Z" transform="translate(-78.5 -31.772)" fill="#fff" opacity="0.65"/>
        </g>
        <path id="XMLID_28948_" d="M95.06,355.569l215.99-124.738a6.872,6.872,0,0,1,6.069,0l6.279,3.349c1.674.942,1.674,2.512,0,3.453L107.3,362.371a6.872,6.872,0,0,1-6.07,0l-6.279-3.244C93.281,358.081,93.281,356.511,95.06,355.569Z" transform="translate(-63.561 -5.307)" fill="#37474f"/>
        <g id="XMLID_8036_" transform="translate(46.911 234.732)">
          <path id="XMLID_28947_" d="M111.164,365.175l215.99-124.738c1.674-.942,4.186-1.151,5.546-.314l56.195,32.44c1.36.837,1.151,2.2-.523,3.244L172.591,400.336c-1.674.942-4.186,1.151-5.546.314l-56.509-32.336C109.28,367.582,109.489,366.222,111.164,365.175Z" transform="translate(-109.729 -239.599)" fill="#263238"/>
          <path id="XMLID_8037_" d="M296.377,292.122l6.8-3.872c.314-.209.314-.419.1-.523l-5.965-3.453a1.041,1.041,0,0,0-.942.1l-6.8,3.872c-.314.209-.314.419-.1.523l5.965,3.453A1.042,1.042,0,0,0,296.377,292.122Zm-9.418-13.185-6.8,3.872c-.314.209-.314.419-.1.523l5.965,3.453a1.041,1.041,0,0,0,.942-.1l6.8-3.872c.314-.209.314-.419.1-.523l-5.965-3.453A1.042,1.042,0,0,0,286.959,278.936Zm-21.871,12.558-11.406,6.593c-.314.209-.314.419-.1.523l5.965,3.453a1.042,1.042,0,0,0,.942-.1l11.406-6.593c.314-.209.314-.419.1-.523l-5.965-3.453A1.546,1.546,0,0,0,265.088,291.494Zm11.93-6.907-6.8,3.872c-.314.209-.314.419-.1.523l5.965,3.453a1.042,1.042,0,0,0,.942-.1l6.8-3.872c.314-.209.314-.419.1-.523l-5.965-3.453A1.546,1.546,0,0,0,277.017,284.587ZM250.542,299.97l-6.8,3.872c-.314.209-.314.419-.1.523l5.965,3.453a1.041,1.041,0,0,0,.942-.1l6.8-3.872c.314-.209.314-.419.1-.523l-5.965-3.453A1.041,1.041,0,0,0,250.542,299.97Zm-9.941,5.651-6.8,3.872c-.314.209-.314.419-.1.523l5.965,3.453a1.042,1.042,0,0,0,.942-.1l6.8-3.872c.314-.209.314-.419.1-.523l-5.965-3.453A1.546,1.546,0,0,0,240.6,305.621Zm25.115,15.069,6.8-3.872c.314-.209.314-.419.1-.523l-5.965-3.453a1.042,1.042,0,0,0-.942.1l-6.8,3.872c-.314.209-.314.419-.1.523l5.965,3.453A1.042,1.042,0,0,0,265.716,320.69Zm-9.941,5.755,6.8-3.872c.314-.209.314-.419.1-.523l-5.965-3.453a1.042,1.042,0,0,0-.942.1l-6.8,3.767c-.314.209-.314.419-.1.523l5.965,3.453A1,1,0,0,0,255.774,326.446Zm-9.837,5.651,6.8-3.872c.314-.209.314-.419.1-.523l-5.965-3.453a1.042,1.042,0,0,0-.942.1l-6.8,3.872c-.314.209-.314.419-.1.523L245,332.2A1.042,1.042,0,0,0,245.937,332.1ZM236,337.852l6.8-3.872c.314-.209.314-.419.1-.523L236.938,330a1.042,1.042,0,0,0-.942.1l-6.8,3.872c-.314.209-.314.419-.1.523l5.965,3.453A1.4,1.4,0,0,0,236,337.852Zm50.544-39.975,6.8-3.872c.314-.209.314-.419.1-.523l-5.965-3.453a1.042,1.042,0,0,0-.942.1l-6.8,3.872c-.314.209-.314.419-.1.523l5.965,3.453A1.042,1.042,0,0,0,286.54,297.877Zm-10.988,17.162,15.069-8.686c.314-.209.314-.419.1-.523l-15.383-8.895a1.042,1.042,0,0,0-.942.1l-7.848,4.5c-.314.209-.314.419-.1.523l8.581,4.918c.209.1.209.419-.1.523l-6.279,3.558c-.314.209-.314.419-.1.523l5.965,3.453A1.774,1.774,0,0,0,275.552,315.039Zm-44.789-3.663-6.8,3.872c-.314.209-.314.419-.1.523l5.965,3.453a1.042,1.042,0,0,0,.942-.1l6.8-3.872c.314-.209.314-.419.1-.523l-5.965-3.453A1.042,1.042,0,0,0,230.764,311.377Zm-9.941,5.651-6.8,3.872c-.314.209-.314.419-.1.523l5.965,3.453a1.042,1.042,0,0,0,.942-.1l6.8-3.872c.314-.209.314-.419.1-.523l-5.965-3.453A1.546,1.546,0,0,0,220.822,317.027Zm-54.939,60.8a1.042,1.042,0,0,0,.942-.1l6.8-3.872c.314-.209.314-.419.1-.523l-5.965-3.453a1.042,1.042,0,0,0-.942.1l-6.8,3.872c-.314.209-.314.419-.1.523Zm-24.069-15.174-6.8,3.872c-.314.209-.314.419-.1.523l5.965,3.453a1.042,1.042,0,0,0,.942-.1l6.8-3.872c.314-.209.314-.419.1-.523l-5.965-3.453A3.229,3.229,0,0,0,141.814,362.653Zm12.139,11.3a1.042,1.042,0,0,0,.942-.1l6.8-3.872c.314-.209.314-.419.1-.523L155.837,366a1.042,1.042,0,0,0-.942.1l-6.8,3.872c-.314.209-.314.419-.1.523Zm27.522,6.279,6.8-3.872c.314-.209.314-.419.1-.523l-5.965-3.453a1.042,1.042,0,0,0-.942.1l-6.8,3.872c-.314.209-.314.419-.1.523l5.965,3.453A3.23,3.23,0,0,0,181.475,380.234Zm-10.883,5.755a1.041,1.041,0,0,0,.942-.1l6.8-3.872c.314-.209.314-.419.1-.523l-5.965-3.453a1.042,1.042,0,0,0-.942.1l-6.8,3.872c-.314.209-.314.419-.1.523ZM151.651,357l-6.8,3.872c-.314.209-.314.419-.1.523l5.965,3.453a1.042,1.042,0,0,0,.942-.1l6.8-3.872c.314-.209.314-.419.1-.523l-5.965-3.453A1.042,1.042,0,0,0,151.651,357Zm49.393-28.568-6.8,3.872c-.314.209-.314.419-.1.523l5.965,3.453a1.042,1.042,0,0,0,.942-.1l6.8-3.872c.314-.209.314-.419.1-.523l-5.965-3.453A1.546,1.546,0,0,0,201.044,328.434Zm-39.452,22.813-6.8,3.872c-.314.209-.314.419-.1.523l5.965,3.453a1.042,1.042,0,0,0,.942-.1l6.8-3.872c.314-.209.314-.419.1-.523l-5.965-3.453A2.6,2.6,0,0,0,161.593,351.247Zm49.393-28.464-6.8,3.872c-.314.209-.314.419-.1.523l5.965,3.453a1.042,1.042,0,0,0,.942-.1l6.8-3.872c.314-.209.314-.419.1-.523l-5.965-3.453A1.042,1.042,0,0,0,210.986,322.783Zm-19.778,11.406-6.8,3.872c-.314.209-.314.419-.1.523l5.965,3.453a1.042,1.042,0,0,0,.942-.1l6.8-3.872c.314-.209.314-.419.1-.523l-5.965-3.453A1.042,1.042,0,0,0,191.207,334.189Zm-9.837,5.651-6.8,3.872c-.314.209-.314.419-.1.523l5.965,3.453a1.042,1.042,0,0,0,.942-.1l6.8-3.872c.314-.209.314-.419.1-.523l-5.965-3.453A2.6,2.6,0,0,0,181.371,339.84Zm-9.941,5.756-6.8,3.872c-.314.209-.314.419-.1.523l5.965,3.453a1.042,1.042,0,0,0,.942-.1l6.8-3.872c.314-.209.314-.419.1-.523l-5.965-3.453A1.042,1.042,0,0,0,171.429,345.6Zm44.893,3.663,6.8-3.872c.314-.209.314-.419.1-.523l-5.965-3.453a1.042,1.042,0,0,0-.942.1l-6.8,3.872c-.314.209-.314.419-.1.523l5.965,3.453A1.546,1.546,0,0,0,216.323,349.258Zm92.507-82.984-6.8,3.872c-.314.209-.314.419-.1.523l5.965,3.453a1.042,1.042,0,0,0,.942-.1l6.8-3.872c.314-.209.314-.419.1-.523l-5.965-3.453A1.4,1.4,0,0,0,308.83,266.274ZM296.8,273.181l-6.8,3.872c-.314.209-.314.419-.1.523l5.965,3.453a1.042,1.042,0,0,0,.942-.1l6.8-3.872c.314-.209.314-.419.1-.523l-5.965-3.453A1.546,1.546,0,0,0,296.8,273.181Zm21.871-12.558-6.8,3.872c-.314.209-.314.419-.1.523l5.965,3.453a1.041,1.041,0,0,0,.942-.1l6.8-3.872c.314-.209.314-.419.1-.523l-5.965-3.453A1.042,1.042,0,0,0,318.666,260.623Zm-55.044,50.439,6.8-3.872c.314-.209.314-.419.1-.523l-5.965-3.453a1.041,1.041,0,0,0-.942.1l-6.8,3.872c-.314.209-.314.419-.1.523l5.965,3.453A1.042,1.042,0,0,0,263.623,311.063Zm65.927-56.195a1.042,1.042,0,0,0-.942.1l-6.8,3.872c-.314.209-.314.419-.1.523l5.965,3.453a1.042,1.042,0,0,0,.942-.1l6.8-3.872c.314-.209.314-.419.1-.523ZM226.159,343.5l6.8-3.872c.314-.209.314-.419.1-.523l-5.965-3.453a1.042,1.042,0,0,0-.942.1l-6.8,3.872c-.314.209-.314.419-.1.523l5.965,3.453A1.042,1.042,0,0,0,226.159,343.5Zm121.18-69.9,6.8-3.872c.314-.209.314-.419.1-.523l-5.965-3.453a1.042,1.042,0,0,0-.942.1l-6.8,3.872c-.314.209-.314.419-.1.523L346.4,273.7A2.6,2.6,0,0,0,347.339,273.6Zm-19.255.209,6.8-3.872c.314-.209.314-.419.1-.523l-5.965-3.453a1.042,1.042,0,0,0-.942.1l-6.8,3.872c-.314.209-.314.419-.1.523l5.965,3.453A1.042,1.042,0,0,0,328.085,273.809Zm10.779-13.6a1.042,1.042,0,0,0-.942.1l-6.8,3.872c-.314.209-.314.419-.1.523l5.965,3.453a1.042,1.042,0,0,0,.942-.1l6.8-3.872c.314-.209.314-.419.1-.523Zm2.093-1.151,15.383,8.895a1.042,1.042,0,0,0,.942-.1l6.8-3.872c.314-.209.314-.419.1-.523L348.8,254.554a1.042,1.042,0,0,0-.942.1l-6.8,3.872C340.747,258.635,340.747,258.949,340.956,259.053Zm-22.813,12.662-6.8,3.872c-.314.209-.314.419-.1.523l5.965,3.453a1.042,1.042,0,0,0,.942-.1l6.8-3.872c.314-.209.314-.419.1-.523l-5.965-3.453A1.042,1.042,0,0,0,318.143,271.716Zm-74.4,42.9-6.8,3.872c-.314.209-.314.419-.1.523l5.965,3.453a1.042,1.042,0,0,0,.942-.1l6.8-3.872c.314-.209.314-.419.1-.523l-5.965-3.453A3.226,3.226,0,0,0,243.74,314.621Zm92.821-35.266a1.042,1.042,0,0,0,.942-.1l6.8-3.872c.314-.209.314-.419.1-.523l-5.965-3.453a1.042,1.042,0,0,0-.942.1l-6.8,3.872c-.314.209-.314.419-.1.523Zm-82.88,29.615-6.8,3.872c-.314.209-.314.419-.1.523l5.965,3.453a1.042,1.042,0,0,0,.942-.1l6.8-3.872c.314-.209.314-.419.1-.523l-5.965-3.453A1.042,1.042,0,0,0,253.681,308.97Zm-77.857,63.1a1.042,1.042,0,0,0,.942-.1l6.8-3.872c.314-.209.314-.419.1-.523l-5.965-3.453a1.042,1.042,0,0,0-.942.1l-6.8,3.872c-.314.209-.314.419-.1.523Zm-11.092-11.72-6.8,3.872c-.314.209-.314.419-.1.523l5.965,3.453a1.042,1.042,0,0,0,.942-.1l6.8-3.872c.314-.209.314-.419.1-.523l-5.965-3.453A.983.983,0,0,0,164.732,360.351Zm21.871,5.965,6.8-3.872c.314-.209.314-.419.1-.523l-5.965-3.453a1.042,1.042,0,0,0-.942.1l-6.8,3.872c-.314.209-.314.419-.1.523l5.965,3.453A1.042,1.042,0,0,0,186.6,366.316Zm9.941-5.651,6.8-3.872c.314-.209.314-.419.1-.523l-5.965-3.453a1.042,1.042,0,0,0-.942.1l-6.8,3.872c-.314.209-.314.419-.1.523l5.965,3.453A1.545,1.545,0,0,0,196.544,360.665Zm9.837-5.756,6.8-3.872c.314-.209.314-.419.1-.523l-5.965-3.453a1.042,1.042,0,0,0-.942.1l-6.8,3.872c-.314.209-.314.419-.1.523l5.965,3.453A1.042,1.042,0,0,0,206.381,354.909Zm-31.812-.314-6.8,3.872c-.314.209-.314.419-.1.523l5.965,3.453a1.042,1.042,0,0,0,.942-.1l6.8-3.872c.314-.209.314-.419.1-.523l-5.965-3.453A1.546,1.546,0,0,0,174.569,354.6Zm9.941-5.651-6.8,3.872c-.314.209-.314.419-.1.523l5.965,3.453a1.042,1.042,0,0,0,.942-.1l6.8-3.872c.314-.209.314-.419.1-.523l-5.965-3.453A.983.983,0,0,0,184.51,348.944Zm39.452-22.918-6.8,3.872c-.314.209-.314.419-.1.523l5.965,3.453a1.042,1.042,0,0,0,.942-.1l6.8-3.872c.314-.209.314-.419.1-.523l-5.965-3.453A3.228,3.228,0,0,0,223.962,326.027Zm-9.837,5.756-6.8,3.872c-.314.209-.314.419-.1.523l5.965,3.453a1.042,1.042,0,0,0,.942-.1l6.8-3.872c.314-.209.314-.419.1-.523l-5.965-3.453A1.042,1.042,0,0,0,214.125,331.783ZM233.9,320.376l-6.8,3.872c-.314.209-.314.419-.1.523l5.965,3.453a1.042,1.042,0,0,0,.942-.1l6.8-3.872c.314-.209.314-.419.1-.523l-5.965-3.453A1.042,1.042,0,0,0,233.9,320.376Zm-39.556,22.813-6.8,3.872c-.314.209-.314.419-.1.523l5.965,3.453a1.042,1.042,0,0,0,.942-.1l6.8-3.872c.314-.209.314-.419.1-.523l-5.965-3.453A1.042,1.042,0,0,0,194.347,343.189Zm9.837-5.756-6.8,3.872c-.314.209-.314.419-.1.523l5.965,3.453a1.042,1.042,0,0,0,.942-.1l6.8-3.872c.314-.209.314-.419.1-.523l-5.965-3.453A3.235,3.235,0,0,0,204.184,337.433Zm-12.871,37.045,6.8-3.872c.314-.209.314-.419.1-.523l-5.965-3.453a1.042,1.042,0,0,0-.942.1l-6.8,3.872c-.314.209-.314.419-.1.523l5.965,3.453A1.042,1.042,0,0,0,191.312,374.478Zm-52.532-2.721-5.965-3.453a1.041,1.041,0,0,0-.942.1l-6.8,3.872c-.314.209-.314.419-.1.523l5.965,3.453a1.042,1.042,0,0,0,.942-.1l6.8-3.872C138.989,372.176,139.094,371.967,138.78,371.757Zm13.081,3.349-5.965-3.453a1.042,1.042,0,0,0-.942.1l-10.36,5.965c-.314.209-.314.419-.1.523l5.965,3.453a1.042,1.042,0,0,0,.942-.1l10.36-5.965C152.07,375.525,152.07,375.211,151.861,375.106Zm-21.871-10.151-5.965-3.453a1.042,1.042,0,0,0-.942.1l-8.372,4.814c-.314.209-.314.419-.1.523l5.965,3.453a1.042,1.042,0,0,0,.942-.1l8.372-4.814C130.2,365.269,130.3,365.06,129.989,364.955Zm6.383-3.663a1.042,1.042,0,0,0,.942-.1l6.8-3.872c.314-.209.314-.419.1-.523l-5.965-3.453a1.042,1.042,0,0,0-.942.1l-6.8,3.872c-.314.209-.314.419-.1.523Zm27.417,17.79-5.965-3.453a1.042,1.042,0,0,0-.942.1l-12.976,7.535c-.314.209-.314.419-.1.523l5.965,3.453a1.042,1.042,0,0,0,.942-.1l12.976-7.535C164,379.4,164.1,379.187,163.79,379.083Zm4.709,8.058-5.965-3.453a1.042,1.042,0,0,0-.942.1l-8.372,4.814c-.314.209-.314.419-.1.523l5.965,3.453a1.041,1.041,0,0,0,.942-.1l8.372-4.814C168.709,387.559,168.709,387.245,168.5,387.14Zm41.44-68.334a1.042,1.042,0,0,0,.942-.1l6.8-3.872c.314-.209.314-.419.1-.523l-5.965-3.453a1.042,1.042,0,0,0-.942.1l-6.8,3.872c-.314.209-.314.419-.1.523Zm-19.778,11.406a1.042,1.042,0,0,0,.942-.1l6.8-3.872c.314-.209.314-.419.1-.523l-5.965-3.453a1.041,1.041,0,0,0-.942.1l-6.8,3.872c-.314.209-.314.419-.1.523Zm-43.847,25.324a1.042,1.042,0,0,0,.942-.1l6.8-3.872c.314-.209.314-.419.1-.523l-5.965-3.453a1.042,1.042,0,0,0-.942.1l-6.8,3.872c-.314.209-.314.419-.1.523ZM200,324.562a1.042,1.042,0,0,0,.942-.1l6.8-3.872c.314-.209.314-.419.1-.523l-5.965-3.453a1.042,1.042,0,0,0-.942.1l-6.8,3.872c-.314.209-.314.419-.1.523ZM180.22,335.968a1.042,1.042,0,0,0,.942-.1l6.8-3.872c.314-.209.314-.419.1-.523l-5.965-3.453a1.042,1.042,0,0,0-.942.1l-6.8,3.872c-.314.209-.314.419-.1.523Zm-6.174,51.9a1.042,1.042,0,0,0-.942.1l-10.36,5.965c-.314.209-.314.419-.1.523l5.965,3.453a1.042,1.042,0,0,0,.942-.1l10.36-5.965c.314-.209.314-.419.1-.523Zm-7.953-43.742a1.042,1.042,0,0,0,.942-.1l6.8-3.872c.314-.209.314-.419.1-.523l-5.965-3.453a1.042,1.042,0,0,0-.942.1l-6.8,3.872c-.314.209-.314.419-.1.523Zm-9.941,5.651a1.042,1.042,0,0,0,.942-.1l6.8-3.872c.314-.209.314-.419.1-.523l-5.965-3.453a1.042,1.042,0,0,0-.942.1l-6.8,3.872c-.314.209-.314.419-.1.523Zm201.025-67.6a1.041,1.041,0,0,0-.942.1L339.6,291.912c-.314.209-.314.419-.1.523l5.965,3.453a1.041,1.041,0,0,0,.942-.1l16.639-9.628c.314-.209.314-.419.1-.523Zm-21.871,12.662a1.042,1.042,0,0,0-.942.1l-6.8,3.872c-.314.209-.314.419-.1.523l5.965,3.453a1.042,1.042,0,0,0,.942-.1l6.8-3.872c.314-.209.314-.419.1-.523Zm-134.052,73.88,6.8-3.872c.314-.209.314-.419.1-.523l-5.965-3.453a1.042,1.042,0,0,0-.942.1l-6.8,3.872c-.314.209-.314.419-.1.523l5.965,3.453A1.042,1.042,0,0,0,201.253,368.723Zm114.274-62.474a1.042,1.042,0,0,0-.942.1l-6.8,3.872c-.314.209-.314.419-.1.523l5.965,3.453a1.042,1.042,0,0,0,.942-.1l6.8-3.872c.314-.209.314-.419.1-.523Zm51.486-29.72a1.042,1.042,0,0,0-.942.1l-6.8,3.872c-.314.209-.314.419-.1.523l5.965,3.453a1.042,1.042,0,0,0,.942-.1l6.8-3.872c.314-.209.314-.419.1-.523Zm15.906-2.3-15.383-8.895a1.042,1.042,0,0,0-.942.1l-6.8,3.872c-.314.209-.314.419-.1.523l15.383,8.895a1.042,1.042,0,0,0,.942-.1l6.8-3.872C383.024,274.646,383.128,274.332,382.919,274.227ZM278.587,327.6a1.042,1.042,0,0,0-.942.1l-8.372,4.814c-.314.209-.314.419-.1.523l5.965,3.453a1.042,1.042,0,0,0,.942-.1l8.372-4.814c.314-.209.314-.419.1-.523Zm25.01-14.441a1.042,1.042,0,0,0-.942.1l-10.36,5.965c-.314.209-.314.419-.1.523l5.965,3.453a1.042,1.042,0,0,0,.942-.1l10.36-5.965c.314-.209.314-.419.1-.523Zm-47.928,27.627a1.042,1.042,0,0,0-.942.1l-55.672,32.126c-.314.209-.314.419-.1.523l5.965,3.453a1.042,1.042,0,0,0,.942-.1l55.672-32.126c.314-.209.314-.419.1-.523Zm-58.706,33.905a1.042,1.042,0,0,0-.942.1l-8.372,4.814c-.314.209-.314.419-.1.523l5.965,3.453a1.042,1.042,0,0,0,.942-.1l8.372-4.814c.314-.209.314-.419.1-.523Zm70.218-40.5a1.042,1.042,0,0,0-.942.1l-8.372,4.814c-.314.209-.314.419-.1.523l5.965,3.453a1.042,1.042,0,0,0,.942-.1l8.372-4.814c.314-.209.314-.419.1-.523ZM185.452,381.28a1.042,1.042,0,0,0-.942.1l-8.372,4.814c-.314.209-.314.419-.1.523L182,390.175a1.042,1.042,0,0,0,.942-.1l8.372-4.814c.314-.209.314-.419.1-.523ZM289.993,320.9a1.042,1.042,0,0,0-.942.1l-8.372,4.814c-.314.209-.314.419-.1.523l5.965,3.453a1.042,1.042,0,0,0,.942-.1l8.372-4.814c.314-.209.314-.419.1-.523Zm35.37-20.406a1.042,1.042,0,0,0-.942.1l-6.8,3.872c-.314.209-.314.419-.1.523l5.965,3.453a1.042,1.042,0,0,0,.942-.1l6.8-3.872c.314-.209.314-.419.1-.523Zm21.557-15.8,6.8-3.872c.314-.209.314-.419.1-.523l-5.965-3.453a1.042,1.042,0,0,0-.942.1l-6.8,3.872c-.314.209-.314.419-.1.523l5.965,3.453A1.546,1.546,0,0,0,346.921,284.692Zm-40.707,1.779,6.8-3.872c.314-.209.314-.419.1-.523l-5.965-3.453a1.042,1.042,0,0,0-.942.1l-6.8,3.872c-.314.209-.314.419-.1.523l5.965,3.453A1.4,1.4,0,0,0,306.214,286.471ZM280.261,323.1l19.778-11.406c.314-.209.314-.419.1-.523l-5.965-3.453a1.042,1.042,0,0,0-.942.1l-19.778,11.406c-.314.209-.314.419-.1.523l5.965,3.453A1.042,1.042,0,0,0,280.261,323.1Zm55.776-32.65a1.042,1.042,0,0,0,.942-.1l6.8-3.872c.314-.209.314-.419.1-.523l-5.965-3.453a1.042,1.042,0,0,0-.942.1l-6.8,3.872c-.314.209-.314.419-.1.523Zm-8.476-5.442,6.8-3.872c.314-.209.314-.419.1-.523l-5.965-3.453a1.042,1.042,0,0,0-.942.1l-6.8,3.872c-.314.209-.314.419-.1.523l5.965,3.453A2.6,2.6,0,0,0,327.561,285.006Zm-57.137,43.847,6.8-3.872c.314-.209.314-.419.1-.523L271.366,321a1.042,1.042,0,0,0-.942.1l-6.8,3.872c-.314.209-.314.419-.1.523l5.965,3.453A1.546,1.546,0,0,0,270.425,328.852ZM314.167,303a1.042,1.042,0,0,0,.942-.1l6.8-3.872c.314-.209.314-.419.1-.523l-5.965-3.453a1.041,1.041,0,0,0-.942.1l-6.8,3.872c-.314.209-.314.419-.1.523Zm-93.24,54.311,6.8-3.872c.314-.209.314-.419.1-.523l-5.965-3.453a1.042,1.042,0,0,0-.942.1l-6.8,3.872c-.314.209-.314.419-.1.523l5.965,3.453A.983.983,0,0,0,220.927,357.316Zm9.941-5.651,6.8-3.872c.314-.209.314-.419.1-.523l-5.965-3.453a1.042,1.042,0,0,0-.942.1l-6.8,3.872c-.314.209-.314.419-.1.523l5.965,3.453A1.546,1.546,0,0,0,230.868,351.665ZM211.09,363.072l6.8-3.872c.314-.209.314-.419.1-.523l-5.965-3.453a1.042,1.042,0,0,0-.942.1l-6.8,3.872c-.314.209-.314.419-.1.523l5.965,3.453A1.042,1.042,0,0,0,211.09,363.072Zm39.556-22.813,6.8-3.872c.314-.209.314-.419.1-.523l-5.965-3.453a1.042,1.042,0,0,0-.942.1l-6.8,3.872c-.314.209-.314.419-.1.523l5.965,3.453A1.545,1.545,0,0,0,250.646,340.259Zm-9.941,5.651,6.8-3.872c.314-.209.314-.419.1-.523l-5.965-3.453a1.042,1.042,0,0,0-.942.1l-6.8,3.872c-.314.209-.314.419-.1.523l5.965,3.453A.983.983,0,0,0,240.705,345.91ZM260.483,334.5l6.8-3.872c.314-.209.314-.419.1-.523l-5.965-3.453a1.042,1.042,0,0,0-.942.1l-6.8,3.872c-.314.209-.314.419-.1.523l5.965,3.453A1.017,1.017,0,0,0,260.483,334.5ZM315.108,255.5a1.042,1.042,0,0,0,.942-.1l6.8-3.872c.314-.209.314-.419.1-.523l-1.57-.942a1.042,1.042,0,0,0-.942.1l-6.8,3.872c-.314.209-.314.419-.1.523Zm-49.288,31.08a1.042,1.042,0,0,0,.942-.1l6.8-3.872c.314-.209.314-.419.1-.523l-5.965-3.453a1.042,1.042,0,0,0-.942.1l-6.8,3.872c-.314.209-.314.419-.1.523ZM285.6,275.169a1.041,1.041,0,0,0,.942-.1l6.8-3.872c.314-.209.314-.419.1-.523l-5.965-3.453a1.042,1.042,0,0,0-.942.1l-6.8,3.872c-.314.209-.314.419-.1.523Zm-31.812,18.313a1.042,1.042,0,0,0,.942-.1l6.8-3.872c.314-.209.314-.419.1-.523l-5.965-3.453a1.042,1.042,0,0,0-.942.1l-6.8,3.872c-.314.209-.314.419-.1.523Zm21.871-12.662a1.042,1.042,0,0,0,.942-.1l6.8-3.872c.314-.209.314-.419.1-.523l-5.965-3.453a1.041,1.041,0,0,0-.942.1l-6.8,3.872c-.314.209-.314.419-.1.523Zm-41.649,24.069a1.042,1.042,0,0,0,.942-.1l6.8-3.872c.314-.209.314-.419.1-.523l-5.965-3.453a1.042,1.042,0,0,0-.942.1l-6.8,3.872c-.314.209-.314.419-.1.523Zm9.837-5.651a1.042,1.042,0,0,0,.942-.1l6.8-3.872c.314-.209.314-.419.1-.523l-5.965-3.453a1.042,1.042,0,0,0-.942.1l-6.8,3.872c-.314.209-.314.419-.1.523ZM295.33,266.9a1.042,1.042,0,0,0,.942-.1l6.8-3.872c.314-.209.314-.419.1-.523l-1.57-.942a1.042,1.042,0,0,0-.942.1l-6.8,3.872c-.314.209-.314.419-.1.523Zm29.719-17.057a1.042,1.042,0,0,0,.942-.1l6.8-3.872c.314-.209.314-.419.1-.523l-1.57-.942a1.042,1.042,0,0,0-.942.1l-6.8,3.872c-.314.209-.314.419-.1.523Zm12.453,7.221a1.042,1.042,0,0,0,.942-.1l6.8-3.872c.314-.209.314-.419.1-.523l-5.965-3.453a1.042,1.042,0,0,0-.942.1l-6.8,3.872c-.314.209-.314.419-.1.523Zm19.255,21.871,6.8-3.872c.314-.209.314-.419.1-.523l-5.965-3.453a1.042,1.042,0,0,0-.942.1l-6.8,3.872c-.314.209-.314.419-.1.523l5.965,3.453A1.042,1.042,0,0,0,356.758,278.936Zm-51.486-17.685a1.042,1.042,0,0,0,.942-.1l6.8-3.872c.314-.209.314-.419.1-.523l-1.57-.942a1.042,1.042,0,0,0-.942.1l-6.8,3.872c-.314.209-.314.419-.1.523Zm-81.205,49.393a1.042,1.042,0,0,0,.942-.1l6.8-3.872c.314-.209.314-.419.1-.523l-5.965-3.453a1.042,1.042,0,0,0-.942.1l-6.8,3.872c-.314.209-.314.419-.1.523Z" transform="translate(-109.509 -239.379)" fill="#455a64"/>
        </g>
        <g id="Grupo_1073229" data-name="Grupo 1073229" transform="translate(191.712 318.45)">
          <path id="XMLID_8035_" d="M248.1,358.214l1.465.732L286.4,380.19l65.508-37.777,1.36-.732-38.3-22.08Z" transform="translate(-248.1 -319.6)" fill="#263238"/>
          <path id="Trazado_819915" data-name="Trazado 819915" d="M351.188,342.625,314.876,321.8,250.1,359.263l36.208,20.825Z" transform="translate(-248.007 -319.498)" fill="#37474f"/>
        </g>
      </g>
      <g id="Www" transform="translate(51.206 37.002)">
        <g id="www-2" data-name="www" transform="translate(96.58)">
          <g id="Grupo_1073230" data-name="Grupo 1073230">
            <path id="Trazado_819916" data-name="Trazado 819916" d="M394.712,63.992c0-2.721-.942-4.709-2.512-5.651s-10.674-6.174-12.244-7.116-3.767-.733-6.174.628L203,150.535v56.509l12.244,7.116,170.887-98.681c4.814-2.825,8.686-9.523,8.686-15.069Z" transform="translate(-203 -50.648)" fill="#27debf"/>
            <path id="Trazado_819917" data-name="Trazado 819917" d="M394.712,63.992c0-2.721-.942-4.709-2.512-5.651s-10.674-6.174-12.244-7.116-3.767-.733-6.174.628L203,150.535v56.509l12.244,7.116,170.887-98.681c4.814-2.825,8.686-9.523,8.686-15.069Z" transform="translate(-203 -50.648)" opacity="0.15"/>
            <path id="Trazado_819918" data-name="Trazado 819918" d="M385.487,58.654c4.814-2.825,8.686-.523,8.686,5.023v36.417c0,5.546-3.872,12.244-8.686,15.069L214.6,213.844V157.335Z" transform="translate(-202.461 -50.332)" fill="#27debf"/>
            <path id="Trazado_819919" data-name="Trazado 819919" d="M383.555,110.279a12.911,12.911,0,0,0,5.86-10.151v-33.7c0-2.616-1.884-3.767-4.186-2.407L217.9,160.719V206.03Z" transform="translate(-202.308 -50.053)" fill="#fafafa"/>
          </g>
          <g id="Grupo_1073231" data-name="Grupo 1073231" transform="translate(32.545 39.428)">
            <path id="Trazado_819920" data-name="Trazado 819920" d="M246.344,173.844a1.94,1.94,0,0,1-.209.733,2.281,2.281,0,0,1-.419.523l-2.93,1.674c-.209.1-.314.1-.419,0a.8.8,0,0,1-.209-.523v-8.895a3.742,3.742,0,0,0-.523-2.2c-.314-.419-.837-.419-1.465,0a3.114,3.114,0,0,0-1.465,1.779,7.434,7.434,0,0,0-.419,2.721v8.895a1.94,1.94,0,0,1-.209.733,2.284,2.284,0,0,1-.419.523l-2.93,1.674c-.209.1-.314.1-.419,0a.8.8,0,0,1-.209-.523V157.834a1.94,1.94,0,0,1,.209-.732,2.283,2.283,0,0,1,.419-.523l2.93-1.674c.209-.1.314-.1.419,0a.8.8,0,0,1,.209.523v7.535a6.51,6.51,0,0,1,1.256-2.093,6.083,6.083,0,0,1,1.884-1.779,5.809,5.809,0,0,1,1.988-.732,2.055,2.055,0,0,1,1.57.523,5.244,5.244,0,0,1,1.046,1.884,13.813,13.813,0,0,1,.419,3.349v9.732Z" transform="translate(-234.1 -85.235)" fill="#455a64"/>
            <path id="Trazado_819921" data-name="Trazado 819921" d="M253.683,163.484a2.8,2.8,0,0,0,.209,1.151c.1.209.419.209.733,0l1.884-1.046c.209-.1.314-.1.419,0a.8.8,0,0,1,.209.523v3.558a1.94,1.94,0,0,1-.209.733,2.285,2.285,0,0,1-.419.523l-2.2,1.256a3.985,3.985,0,0,1-1.988.628,1.822,1.822,0,0,1-1.465-.523,3.214,3.214,0,0,1-.942-1.674,10.234,10.234,0,0,1-.314-2.721v-5.965l-1.674.942c-.209.1-.314.1-.419,0a.8.8,0,0,1-.209-.523v-3.558a1.94,1.94,0,0,1,.209-.733,2.282,2.282,0,0,1,.419-.523l1.674-.942v-5.756a1.941,1.941,0,0,1,.209-.733,2.285,2.285,0,0,1,.419-.523l2.93-1.674c.209-.1.314-.1.419,0a.8.8,0,0,1,.209.523v5.756l2.616-1.465c.209-.1.314-.1.419,0a.8.8,0,0,1,.209.523V154.8a1.94,1.94,0,0,1-.209.733,2.284,2.284,0,0,1-.419.523l-2.616,1.465v5.965Z" transform="translate(-233.487 -85.653)" fill="#455a64"/>
            <path id="Trazado_819922" data-name="Trazado 819922" d="M264.083,157.484a2.8,2.8,0,0,0,.209,1.151c.1.209.419.209.733,0l1.884-1.046c.209-.1.314-.1.419,0a.8.8,0,0,1,.209.523v3.558a1.941,1.941,0,0,1-.209.733,2.283,2.283,0,0,1-.419.523l-2.2,1.256a3.985,3.985,0,0,1-1.988.628,1.822,1.822,0,0,1-1.465-.523,3.215,3.215,0,0,1-.942-1.674,10.235,10.235,0,0,1-.314-2.721v-5.965l-1.674.942c-.209.1-.314.1-.419,0a.8.8,0,0,1-.209-.523v-3.558a1.94,1.94,0,0,1,.209-.732,2.286,2.286,0,0,1,.419-.523l1.674-.942v-5.755a1.94,1.94,0,0,1,.209-.733,2.283,2.283,0,0,1,.419-.523l2.93-1.674c.209-.1.314-.1.419,0a.8.8,0,0,1,.209.523v5.756l2.616-1.465c.209-.1.314-.1.419,0a.8.8,0,0,1,.209.523V148.8a1.939,1.939,0,0,1-.209.732,2.283,2.283,0,0,1-.419.523l-2.616,1.465v5.965Z" transform="translate(-233.004 -85.932)" fill="#455a64"/>
            <path id="Trazado_819923" data-name="Trazado 819923" d="M276.121,157.773a3.1,3.1,0,0,1-1.151.419,2.234,2.234,0,0,1-.837,0l-.628-.314c-.209-.1-.314-.314-.419-.419v7.535a1.94,1.94,0,0,1-.209.732,2.282,2.282,0,0,1-.419.523l-2.93,1.674c-.209.1-.314.1-.419,0a.8.8,0,0,1-.209-.523V144.274a1.941,1.941,0,0,1,.209-.733,2.284,2.284,0,0,1,.419-.523l2.826-1.57c.209-.1.314-.1.419,0a.8.8,0,0,1,.209.523v.837a10.812,10.812,0,0,0,.419-1.046,5.544,5.544,0,0,1,.628-1.046c.209-.314.523-.628.837-1.046a6.519,6.519,0,0,1,1.256-.942,3.986,3.986,0,0,1,1.988-.628,2.055,2.055,0,0,1,1.57.523,5.284,5.284,0,0,1,1.151,1.884,10.045,10.045,0,0,1,.419,3.349v2.93a21.942,21.942,0,0,1-.419,3.872,13.918,13.918,0,0,1-1.151,3.139,7.989,7.989,0,0,1-1.57,2.407A9.38,9.38,0,0,1,276.121,157.773Zm1.046-9.1v-1.988a3.107,3.107,0,0,0-.523-1.884q-.471-.628-1.57,0a2.822,2.822,0,0,0-.837.733,9.2,9.2,0,0,0-.628,1.046,3.745,3.745,0,0,0-.419,1.151c-.1.419-.1.732-.209,1.151v2.511a3.056,3.056,0,0,0,.209.942,1.685,1.685,0,0,0,.419.733.746.746,0,0,0,.628.314,3.234,3.234,0,0,0,.837-.209,3.694,3.694,0,0,0,1.57-1.779A9.522,9.522,0,0,0,277.167,148.669Z" transform="translate(-232.483 -86.012)" fill="#455a64"/>
            <path id="Trazado_819924" data-name="Trazado 819924" d="M286.99,137.731a1.939,1.939,0,0,1-.209.733,2.282,2.282,0,0,1-.419.523l-3.035,1.779c-.209.1-.314.1-.419,0a.8.8,0,0,1-.209-.523v-4.6a1.939,1.939,0,0,1,.209-.733,2.281,2.281,0,0,1,.419-.523l3.035-1.779c.209-.1.314-.1.419,0a.8.8,0,0,1,.209.523Zm0,12.348a1.939,1.939,0,0,1-.209.733,2.284,2.284,0,0,1-.419.523l-3.035,1.779c-.209.1-.314.1-.419,0a.8.8,0,0,1-.209-.523v-4.6a1.939,1.939,0,0,1,.209-.732,2.28,2.28,0,0,1,.419-.523l3.035-1.779c.209-.1.314-.1.419,0a.8.8,0,0,1,.209.523Z" transform="translate(-231.842 -86.271)" fill="#455a64"/>
            <path id="Trazado_819925" data-name="Trazado 819925" d="M296.248,119.552l.314-.942c.1-.314.419-.523.628-.733l2.825-1.674a.2.2,0,0,1,.314,0c.1.1.1.209.1.419v.314L292.69,150a9.844,9.844,0,0,0-.314.942,1.649,1.649,0,0,1-.733.733l-2.826,1.57a.2.2,0,0,1-.314,0c-.1-.1-.1-.209-.1-.419v-.314Z" transform="translate(-231.577 -87.033)" fill="#455a64"/>
            <path id="Trazado_819926" data-name="Trazado 819926" d="M303.848,115.252l.314-.942c.1-.314.419-.523.628-.733l2.826-1.674a.2.2,0,0,1,.314,0c.1.1.1.209.1.419v.314L300.29,145.7a9.852,9.852,0,0,0-.314.942,1.648,1.648,0,0,1-.733.733l-2.825,1.57a.2.2,0,0,1-.314,0c-.1-.1-.1-.209-.1-.419v-.314Z" transform="translate(-231.224 -87.233)" fill="#455a64"/>
            <path id="Trazado_819927" data-name="Trazado 819927" d="M318.469,114.908a.467.467,0,0,1,.523,0,.544.544,0,0,1,.209.419l1.674,7.011,1.674-9a2.659,2.659,0,0,1,.209-.733,2.775,2.775,0,0,1,.523-.628l2.826-1.674a.318.318,0,0,1,.419,0,.8.8,0,0,1,.209.523v.314l-3.663,18.418a1.94,1.94,0,0,1-.209.733,2.773,2.773,0,0,1-.523.628l-2.616,1.465a.467.467,0,0,1-.523,0,.793.793,0,0,1-.209-.419l-1.674-6.488-1.674,8.372c-.1.209-.1.523-.209.733a1.261,1.261,0,0,1-.523.523L312.3,136.57a.467.467,0,0,1-.523,0,.793.793,0,0,1-.209-.419L307.9,121.919v-.314a2.661,2.661,0,0,1,.209-.732,1.045,1.045,0,0,1,.419-.523l2.825-1.674a.467.467,0,0,1,.523,0,.544.544,0,0,1,.209.419l1.674,7.011,1.674-9a2.665,2.665,0,0,1,.209-.733,2.774,2.774,0,0,1,.523-.628Z" transform="translate(-230.671 -87.307)" fill="#455a64"/>
            <path id="Trazado_819928" data-name="Trazado 819928" d="M337.369,103.908a.467.467,0,0,1,.523,0,.544.544,0,0,1,.209.419l1.674,7.011,1.674-9a2.663,2.663,0,0,1,.209-.733,2.774,2.774,0,0,1,.523-.628l2.825-1.674a.318.318,0,0,1,.419,0,.8.8,0,0,1,.209.523v.314l-3.663,18.418a1.939,1.939,0,0,1-.209.733,2.773,2.773,0,0,1-.523.628l-2.616,1.465a.467.467,0,0,1-.523,0,.793.793,0,0,1-.209-.419l-1.674-6.488-1.674,8.372c-.1.209-.1.523-.209.733a1.261,1.261,0,0,1-.523.523L331.2,125.57a.467.467,0,0,1-.523,0,.794.794,0,0,1-.209-.419L326.8,110.919v-.314a2.662,2.662,0,0,1,.209-.733,1.045,1.045,0,0,1,.419-.523l2.825-1.674a.467.467,0,0,1,.523,0,.543.543,0,0,1,.209.419l1.674,7.011,1.674-9a2.661,2.661,0,0,1,.209-.733,2.776,2.776,0,0,1,.523-.628Z" transform="translate(-229.793 -87.819)" fill="#455a64"/>
            <path id="Trazado_819929" data-name="Trazado 819929" d="M356.369,93.008a.467.467,0,0,1,.523,0,.544.544,0,0,1,.209.419l1.674,7.011,1.674-9a2.661,2.661,0,0,1,.209-.733,2.774,2.774,0,0,1,.523-.628l2.825-1.674a.318.318,0,0,1,.419,0,.8.8,0,0,1,.209.523v.314l-3.663,18.418a1.94,1.94,0,0,1-.209.733,2.776,2.776,0,0,1-.523.628l-2.616,1.465a.467.467,0,0,1-.523,0,.794.794,0,0,1-.209-.419l-1.674-6.488-1.674,8.372c-.1.209-.1.523-.209.733a1.261,1.261,0,0,1-.523.523L350.2,114.67a.467.467,0,0,1-.523,0,.793.793,0,0,1-.209-.419L345.8,100.019v-.314a2.66,2.66,0,0,1,.209-.733,1.045,1.045,0,0,1,.419-.523l2.825-1.674a.467.467,0,0,1,.523,0,.544.544,0,0,1,.209.419l1.674,7.011,1.674-9a2.66,2.66,0,0,1,.209-.733,2.772,2.772,0,0,1,.523-.628Z" transform="translate(-228.91 -88.325)" fill="#455a64"/>
            <path id="Trazado_819930" data-name="Trazado 819930" d="M368.891,102.231a1.942,1.942,0,0,1-.209.733,2.285,2.285,0,0,1-.419.523l-3.035,1.779c-.209.1-.314.1-.419,0a.8.8,0,0,1-.209-.523v-4.6a1.939,1.939,0,0,1,.209-.733,2.282,2.282,0,0,1,.419-.523l3.035-1.779c.209-.1.314-.1.419,0a.8.8,0,0,1,.209.523Z" transform="translate(-228.037 -87.921)" fill="#455a64"/>
          </g>
        </g>
        <g id="World" transform="translate(0 74.514)">
          <g id="Check_1_">
            <g id="Circle_1_">
              <path id="XMLID_306_" d="M211.892,137.913h0L190.859,125.46h0l-.1-.1h0c-9.209-5.546-21.557-4.709-34.743,3.977-26.58,17.371-46.881,59.439-45.207,94.077.837,17.267,6.907,29.3,16.011,35.056h.1l20.929,12.453h0l.1.1h0c9.209,5.546,21.557,4.709,34.743-3.977,26.58-17.371,46.881-59.439,45.207-94.077C227.171,155.6,221.1,143.564,211.892,137.913Z" transform="translate(-110.708 -121.853)" fill="#37474f"/>
              <path id="XMLID_302_" d="M147.221,268.028l-20.3-12.034h0l-.1-.1c-9.209-5.651-15.278-17.79-16.011-34.952-.733-15.383,2.93-32.336,9.523-47.823l.1-.314,20.825,12.767c-6.593,15.488-10.255,32.44-9.523,47.823C132.466,250.238,138.326,262.168,147.221,268.028Z" transform="translate(-110.708 -119.486)" fill="#263238"/>
              <path id="XMLID_297_" d="M181.772,266.393c26.58-17.371,46.881-59.439,45.207-94.077-1.57-34.533-24.487-48.556-51.067-31.185S129.03,200.57,130.7,235.208C132.379,269.741,155.191,283.764,181.772,266.393Z" transform="translate(-109.783 -121.304)" fill="#455a64"/>
            </g>
          </g>
          <g id="Grupo_1073239" data-name="Grupo 1073239" transform="translate(33.897 29.242)">
            <g id="Grupo_1073232" data-name="Grupo 1073232">
              <path id="Trazado_819931" data-name="Trazado 819931" d="M166.227,256.435a19.351,19.351,0,0,1-9.941-2.616C147.914,249,143.1,237.912,143.1,223.471c0-26.58,16.116-57.555,36-69.171,9-5.232,17.895-5.965,24.8-1.884,8.372,4.814,13.185,15.906,13.185,30.347,0,26.58-16.115,57.555-36,69.171A29,29,0,0,1,166.227,256.435Zm27.836-102.449a26.111,26.111,0,0,0-12.871,3.977c-18.732,10.883-34.01,40.289-34.01,65.613,0,12.976,4.081,22.708,11.2,26.789,5.651,3.244,13.081,2.616,20.825-1.884,18.732-10.883,34.01-40.393,34.01-65.613,0-12.976-4.081-22.708-11.2-26.789A15.084,15.084,0,0,0,194.063,153.986Z" transform="translate(-143.1 -149.797)" fill="#27debf"/>
            </g>
            <g id="Grupo_1073235" data-name="Grupo 1073235" transform="translate(10.674 5.236)">
              <g id="Grupo_1073233" data-name="Grupo 1073233" transform="translate(0.523)">
                <path id="Trazado_819932" data-name="Trazado 819932" d="M165.73,189.856a18.944,18.944,0,0,1-11.93-4.081l1.884-2.407c6.07,4.814,14.337,4.6,23.231-.628,9.209-5.337,17.894-15.278,24.383-27.941l2.721,1.36c-6.8,13.185-15.8,23.545-25.534,29.2C175.252,188.287,170.334,189.856,165.73,189.856Z" transform="translate(-153.8 -154.8)" fill="#27debf"/>
              </g>
              <g id="Grupo_1073234" data-name="Grupo 1073234" transform="translate(0 61.347)">
                <path id="Trazado_819933" data-name="Trazado 819933" d="M156.021,248.455l-2.721-1.36c6.8-13.185,15.8-23.545,25.534-29.2,10.046-5.86,19.464-5.965,26.58-.314l-1.884,2.407c-6.07-4.814-14.337-4.6-23.231.628C171.194,225.852,162.613,235.793,156.021,248.455Z" transform="translate(-153.3 -213.424)" fill="#27debf"/>
              </g>
            </g>
            <g id="Grupo_1073236" data-name="Grupo 1073236" transform="translate(17.685 3.702)">
              <path id="Trazado_819934" data-name="Trazado 819934" d="M175.488,252.712a8.623,8.623,0,0,1-4.081-1.151C164.4,247.48,160,232.829,160,213.365c0-26.894,8.162-52.637,18.627-58.706a8.374,8.374,0,0,1,8.686-.209c7.011,4.081,11.406,18.732,11.406,38.2,0,26.894-8.162,52.637-18.627,58.706A8.406,8.406,0,0,1,175.488,252.712Zm7.744-96.274a6.35,6.35,0,0,0-3.139.942c-9.314,5.442-17.162,31.08-17.162,56.09,0,20.615,5.023,32.754,9.941,35.58a5.275,5.275,0,0,0,5.651-.209c9.314-5.442,17.162-31.08,17.162-56.09,0-20.615-5.023-32.754-9.941-35.58A4.391,4.391,0,0,0,183.231,156.438Z" transform="translate(-160 -153.335)" fill="#27debf"/>
            </g>
            <g id="Grupo_1073237" data-name="Grupo 1073237" transform="translate(35.58 6.387)">
              <rect id="Rect치ngulo_382456" data-name="Rect치ngulo 382456" width="3.035" height="94.077" fill="#27debf"/>
            </g>
            <g id="Grupo_1073238" data-name="Grupo 1073238" transform="translate(1.265 31.758)">
              <rect id="Rect치ngulo_382457" data-name="Rect치ngulo 382457" width="80.996" height="3.035" transform="matrix(0.864, -0.503, 0.503, 0.864, 0, 40.733)" fill="#27debf"/>
            </g>
          </g>
        </g>
      </g>
      <g id="Cursor" transform="translate(320.248 110.372)">
        <g id="Grupo_1073240" data-name="Grupo 1073240">
          <path id="Trazado_819935" data-name="Trazado 819935" d="M414.681,138.278a2.945,2.945,0,0,0-1.256-1.465h0l-3.139-1.779h0c-1.36-.733-3.035,0-3.872.523l-1.988-1.151h0c-2.407-1.465-5.651,1.57-6.383,2.3l-.837-.523h0c-1.151-.628-2.616-.209-3.977.419V125.3a2.665,2.665,0,0,0-1.151-2.512h-.1l-3.035-1.779h0a2.851,2.851,0,0,0-2.826.314,8.839,8.839,0,0,0-3.977,6.907V162.87c-.209-.1-.314-.1-.523-.209-2.721-1.884-5.651-3.035-8.162-2.616a8.923,8.923,0,0,0-5.232,3.558c-1.36,2.3.837,3.767,3.663,7.011,2.826,3.139,5.232,7.011,7.744,9.418a13.347,13.347,0,0,0,4.4,3.035v4.5l3.139,1.779,23.545-13.6v-4.5s2.93-11.616,3.872-16.534C415.623,149.893,416.46,141.94,414.681,138.278Z" transform="translate(-367.805 -120.76)" fill="#27debf"/>
          <path id="Trazado_819936" data-name="Trazado 819936" d="M414.681,138.278a2.945,2.945,0,0,0-1.256-1.465h0l-3.139-1.779h0c-1.36-.733-3.035,0-3.872.523l-1.988-1.151h0c-2.407-1.465-5.651,1.57-6.383,2.3l-.837-.523h0c-1.151-.628-2.616-.209-3.977.419V125.3a2.665,2.665,0,0,0-1.151-2.512h-.1l-3.035-1.779h0a2.851,2.851,0,0,0-2.826.314,8.839,8.839,0,0,0-3.977,6.907V162.87c-.209-.1-.314-.1-.523-.209-2.721-1.884-5.651-3.035-8.162-2.616a8.923,8.923,0,0,0-5.232,3.558c-1.36,2.3.837,3.767,3.663,7.011,2.826,3.139,5.232,7.011,7.744,9.418a13.347,13.347,0,0,0,4.4,3.035v4.5l3.139,1.779,23.545-13.6v-4.5s2.93-11.616,3.872-16.534C415.623,149.893,416.46,141.94,414.681,138.278Z" transform="translate(-367.805 -120.76)" fill="#fff" opacity="0.8"/>
        </g>
        <path id="Trazado_819937" data-name="Trazado 819937" d="M393.328,136.381v3.872h0a17.7,17.7,0,0,1,3.035-2.093Zm14.127-1.674a4.825,4.825,0,0,0-1.047.523l1.047.628a4.285,4.285,0,0,1,1.465,1.57,7.038,7.038,0,0,1,1.779-1.046Zm-7.325,0a15.71,15.71,0,0,0-2.093,1.674l1.988,1.151a.1.1,0,0,1,.1.1c.314.1.523.419.837.733h0a10.012,10.012,0,0,1,2.2-1.779Zm-18-6.907v34.743a24.926,24.926,0,0,1,3.139,1.884V129.579Zm11.092,8.581Zm-10.36,45.1c-2.512-2.407-5.023-6.174-7.744-9.418-2.616-3.035-4.709-4.5-3.872-6.593l-3.139-1.779c-.837,2.093,1.256,3.558,3.872,6.593,2.825,3.139,5.232,7.011,7.744,9.418a13.348,13.348,0,0,0,4.4,3.035v4.5l3.139,1.779v-4.5A14.692,14.692,0,0,1,382.863,181.483Z" transform="translate(-367.799 -120.433)" fill="#27debf" opacity="0.2"/>
        <path id="Trazado_819938" data-name="Trazado 819938" d="M393.328,136.381v3.872h0a17.7,17.7,0,0,1,3.035-2.093Zm14.127-1.674a4.825,4.825,0,0,0-1.047.523l1.047.628a4.285,4.285,0,0,1,1.465,1.57,7.038,7.038,0,0,1,1.779-1.046Zm-7.325,0a15.71,15.71,0,0,0-2.093,1.674l1.988,1.151a.1.1,0,0,1,.1.1c.314.1.523.419.837.733h0a10.012,10.012,0,0,1,2.2-1.779Zm-18-6.907v34.743a24.926,24.926,0,0,1,3.139,1.884V129.579Zm11.092,8.581Zm-10.36,45.1c-2.512-2.407-5.023-6.174-7.744-9.418-2.616-3.035-4.709-4.5-3.872-6.593l-3.139-1.779c-.837,2.093,1.256,3.558,3.872,6.593,2.825,3.139,5.232,7.011,7.744,9.418a13.348,13.348,0,0,0,4.4,3.035v4.5l3.139,1.779v-4.5A14.692,14.692,0,0,1,382.863,181.483Z" transform="translate(-367.799 -120.433)" opacity="0.1"/>
        <g id="Grupo_1073241" data-name="Grupo 1073241" transform="translate(3.244 1.707)">
          <path id="XMLID_8048_" d="M387.12,189.269v-4.5a13.349,13.349,0,0,1-4.4-3.035c-2.512-2.407-5.023-6.174-7.744-9.418-2.825-3.244-5.023-4.709-3.663-7.011a8.489,8.489,0,0,1,5.232-3.558c2.721-.523,5.756.837,8.581,2.93V129.83a8.839,8.839,0,0,1,3.977-6.907h0c2.2-1.256,3.976-.209,3.976,2.3V140.4s5.546-4.918,7.744-1.884c0,0,5.442-5.651,7.848-.837,0,0,3.977-3.244,5.756.523s.942,11.616,0,16.429-3.872,16.534-3.872,16.534v4.5Z" transform="translate(-370.905 -122.392)" fill="#27debf"/>
          <path id="XMLID_272_" d="M387.12,189.269v-4.5a13.349,13.349,0,0,1-4.4-3.035c-2.512-2.407-5.023-6.174-7.744-9.418-2.825-3.244-5.023-4.709-3.663-7.011a8.489,8.489,0,0,1,5.232-3.558c2.721-.523,5.756.837,8.581,2.93V129.83a8.839,8.839,0,0,1,3.977-6.907h0c2.2-1.256,3.976-.209,3.976,2.3V140.4s5.546-4.918,7.744-1.884c0,0,5.442-5.651,7.848-.837,0,0,3.977-3.244,5.756.523s.942,11.616,0,16.429-3.872,16.534-3.872,16.534v4.5Z" transform="translate(-370.905 -122.392)" fill="#fff" opacity="0.65"/>
        </g>
        <g id="XMLID_8042_" transform="translate(25.529 16.053)" opacity="0.1">
          <path id="XMLID_8045_" d="M392.2,146.281s.523-6.907,3.035-8.581h-.1a14.346,14.346,0,0,0-2.93,1.988v6.593Z" transform="translate(-392.2 -136.026)"/>
          <path id="XMLID_8044_" d="M399.6,137.879v6.383s.733-6.488,2.2-8.162A10.745,10.745,0,0,0,399.6,137.879Z" transform="translate(-391.856 -136.1)"/>
          <path id="XMLID_8043_" d="M407.1,137.042h0v6.383s.419-6.383,1.779-7.325A5.4,5.4,0,0,0,407.1,137.042Z" transform="translate(-391.508 -136.1)"/>
        </g>
      </g>
    </g>
  </g>
</svg>
