<svg xmlns="http://www.w3.org/2000/svg" width="295" height="264.256" viewBox="0 0 295 264.256">
  <g id="OBJECTS" transform="translate(-30.5 -43.8)">
    <path id="Trazado_822577" data-name="Trazado 822577" d="M31.951,179.681c-2.415,20.8,1.342,42.936,10.935,59.909,2.751,4.9,5.166,9.929,8.252,14.625,30.122,46.089,84.8,73.259,137.931,68.63s102.777-40.923,125.184-91.574c10.13-22.944,14.826-49.242,8.855-73.661-6.038-24.42-24.218-46.29-47.766-51.724-18.516-4.294-37.77,1.61-55.548,8.453s-35.824,14.893-54.743,14.96c-25.761.134-49.443-14.491-75.2-13.149C54.559,117.826,35.708,147.21,31.951,179.681Z" transform="translate(-0.243 -19.954)" fill="#f5dcb5"/>
    <g id="Grupo_1074916" data-name="Grupo 1074916" transform="translate(74.375 162.276)">
      <rect id="Rectángulo_382929" data-name="Rectángulo 382929" width="38.038" height="8.319" transform="translate(85.804 122.97)" fill="#3b2945"/>
      <rect id="Rectángulo_382930" data-name="Rectángulo 382930" width="83.59" height="14.893" transform="translate(64.068 130.887)" fill="#3b2945"/>
      <g id="Grupo_1074914" data-name="Grupo 1074914">
        <path id="Trazado_822578" data-name="Trazado 822578" d="M293.792,343.437H103.6L115,220.4H305.2Z" transform="translate(-98.434 -220.4)" fill="#3b2945"/>
        <path id="Trazado_822579" data-name="Trazado 822579" d="M286.092,343.437H95.9L107.238,220.4H297.429Z" transform="translate(-95.9 -220.4)" fill="#4c2f63"/>
        <path id="Trazado_822580" data-name="Trazado 822580" d="M295.772,226.5l-.6,6.239-9.191,99.691H103.3l1.073-11.941.671-7.111,1.409-15.229,6.642-71.649Z" transform="translate(-98.336 -222.408)" fill="#8c749e"/>
      </g>
      <rect id="Rectángulo_382931" data-name="Rectángulo 382931" width="38.038" height="8.319" transform="translate(78.626 122.97)" fill="#4c2f63"/>
      <rect id="Rectángulo_382932" data-name="Rectángulo 382932" width="83.59" height="14.893" transform="translate(54.81 130.887)" fill="#4c2f63"/>
      <path id="Trazado_822581" data-name="Trazado 822581" d="M213.1,403.7l38.038,5.233,7.245,1.946V403.7Z" transform="translate(-134.474 -280.73)" fill="#8c749e"/>
      <g id="Grupo_1074915" data-name="Grupo 1074915" transform="translate(4.964 4.092)" opacity="0.3">
        <path id="Trazado_822582" data-name="Trazado 822582" d="M263.772,226.5,136.978,332.43H103.3l1.073-11.941L216.945,226.5Z" transform="translate(-103.3 -226.5)" fill="#fff"/>
        <path id="Trazado_822583" data-name="Trazado 822583" d="M316.475,226.5l-.6,6.239L196.59,332.43H166.2L292.994,226.5Z" transform="translate(-124.002 -226.5)" fill="#fff"/>
        <path id="Trazado_822584" data-name="Trazado 822584" d="M209.952,226.5,105.9,313.378l1.409-15.229,85.8-71.649Z" transform="translate(-104.156 -226.5)" fill="#fff"/>
      </g>
    </g>
    <g id="Grupo_1074927" data-name="Grupo 1074927" transform="translate(59.148 62.659)">
      <g id="Grupo_1074920" data-name="Grupo 1074920" transform="translate(38.89 39.322)">
        <g id="Grupo_1074919" data-name="Grupo 1074919" transform="translate(3.642 3.203)">
          <path id="Trazado_822585" data-name="Trazado 822585" d="M288.753,211.377a76.077,76.077,0,1,1-152.153,0,72.175,72.175,0,0,1,1.476-14.826A76.123,76.123,0,0,1,264.8,155.9a76.572,76.572,0,0,1,22.675,40.99h0A85.6,85.6,0,0,1,288.753,211.377Z" transform="translate(-136.6 -135.3)" fill="#f57f90"/>
          <g id="Grupo_1074918" data-name="Grupo 1074918" transform="translate(1.476 9.593)">
            <g id="Grupo_1074917" data-name="Grupo 1074917">
              <path id="Trazado_822586" data-name="Trazado 822586" d="M193.878,167.347c-.6.067-1.006-.134-1.409.335-.47.671,0,1.073-.805,1.476-1.14.537-2.415-.2-3.556,0-1.208.2-1.744.738-2.818-.537-1.677-1.946,3.421-4.025,1.208-4.9-.805-.335-1.677.268-2.415.335-.47.067-.738-.2-1.073.268s.067,1.275-.134,1.878c-.4,1.14-1.275.537-2.214.805-.47.134-.671.2-.805.6-.2.47.335,1.275.067,1.677-.6.805-3.153.268-4.025-.067-1.342-.537-3.22-1.208-4.495,0-.805.805,0,1.811-1.409,2.08-1.006.2-3.287-.335-2.885,1.476.268,1.476,2.482,1.744,3.623,1.945.872.134,2.683-.2,3.489.2,1.073.6.067,2.013.067,2.818-.067,1.476,2.281,2.415,2.549.671.134-1.006-.134-1.61,1.006-2.013.47-.2,1.543,0,1.878-.537.2-.268-.067-1.14-.067-1.476-.067-1.677.671-2.549,2.214-3.287a2.654,2.654,0,0,1,1.744-.335c.738.268.6,1.342.805,1.946.671,1.878,2.415,1.073,3.421-.134,1.14.268,1.677.6,1.208,1.744-.134.268-.537.4-.47.738.067.4,1.006.537,1.275.671,1.275.537,2.013.872,2.549,2.214.4,1.006.134,1.476-.805,1.946.4,1.275,3.421,3.489,1.006,4.629-1.073.47-1.878-.067-2.885-.2a9.665,9.665,0,0,0-3.019.6,2.078,2.078,0,0,1-.067-1.677c.134-.335.537-.4.537-.805.134-1.476-2.818-1.141-3.69-1.141.067.872.671,2.482,0,3.287.335.47.872.335,1.342.671a1.72,1.72,0,0,1,0,2.482c-.738.47-1.744.067-2.482-.067-.805-.134-2.683-.4-3.354-.067-.872.4-.671,1.677-1.543,2.214-1.476.939-3.354.067-4.83.805-1.006.47-1.073,1.61-1.14,2.549-.134,1.073-.335,2.683-1.275,3.421-1.275.939-3.824.067-4.562,1.677-.537,1.073.268,7.648-2.281,5.032-.671-.671-.738-2.013-1.409-2.616a3.413,3.413,0,0,0-2.013-.4c-.805.067-.939.537-1.543.872-1.61,1.006-3.623-.47-5.367-.067-2.147.537-2.281,2.214-2.214,4.159a10.083,10.083,0,0,1,0,2.013c-.2.805-1.006,1.61-.939,2.482.134,1.677,2.482,2.147,3.757,1.946a3.351,3.351,0,0,0,1.878-.939c.6-.671.47-1.476.872-2.147.537-.872,1.342-.671,2.214-.47,1.543.4,2.08.47,1.275,1.744-.4.6-1.409,1.811-1.073,2.684.4,1.006,1.409.537,2.147.872,1.208.6.268,1.946,0,3.086-.335,1.476.2,1.543.939,2.616.6.134,2.281,1.342,1.61,2.08,1.006-.067,1.073.939.268,1.342-1.409.738-2.348-.738-3.354-1.476-.805-.6-2.013-.6-2.683-1.342-1.073-1.208-.4-2.482-1.073-3.69-.671-1.141-1.946-.537-3.019-.537-1.342-.067-2.147-1.342-3.489-1.409-1.744-.134-3.489.335-4.9-.872-1.342-1.14-1.275-3.287-1.744-4.9-.671-2.616-3.086-2.348-4.7-3.757a75.427,75.427,0,0,1,23.749-41.728,3.269,3.269,0,0,1,1.61,1.409c.6.939.939,1.073,2.08.738.537-.134,1.006-.47,1.61-.268.738.2,1.342.872,2.08,1.073,1.208.335,3.556-.2,3.958-1.677.268-1.006-.134-1.476,1.342-1.811,1.14-.268,1.543.805,2.482,1.208a1.1,1.1,0,0,0,1.61-.537c.335-.805.134-.671.738-1.342.537-.537.537-1.342,1.275-1.61,1.14-.4,2.482.537,3.556.6,1.811.134,4.9-2.482,6.038.47.268.6-.067,1.006.4,1.61.805.939,2.214,1.476,3.153,2.348C195.421,165.871,195.421,167.145,193.878,167.347Z" transform="translate(-138.8 -152.923)" fill="#eb596e"/>
              <path id="Trazado_822587" data-name="Trazado 822587" d="M181.031,245.939c-.872.805-.805,2.147-1.946,2.549a7.693,7.693,0,0,0-2.08.738c-1.073.872,0,1.14.4,2.013.268.537,0,.872-.268,1.342a7.58,7.58,0,0,0-.738,1.476,8.988,8.988,0,0,1-.067,1.342c-.537,1.543-2.214,2.013-3.287,2.885-.4.335-.872,1.073-.671,1.61.2.6.805.47,1.14.939.671.872-.134,1.744-.268,2.616a2.7,2.7,0,0,0,.872,2.147c1.476,2.08,3.153,3.623,3.891,6.1a2.847,2.847,0,0,0,2.415,2.482c1.543.4,3.019.671,3.623,2.348.537,1.476.067,2.751-.134,4.226-.268,1.744.4,2.415,1.208,3.891.939,1.811.6,2.683-.335,4.361a2.916,2.916,0,0,0-.134,2.683,6.864,6.864,0,0,1,.6,3.086c0,.872.4,1.61.4,2.415a6.075,6.075,0,0,0,1.811,4.159c1.073,1.208,1.073,2.415,1.208,4.025.067,1.208.335,2.885,1.476,3.489s2.683.47,3.824,1.141a10.368,10.368,0,0,1,1.476.805c.47.4.671.939,1.208,1.208.939.47,2.751.067,2.08-1.208a3.021,3.021,0,0,0-1.275-.939,9.061,9.061,0,0,1-2.147-1.744,2.608,2.608,0,0,1-.4-2.683c.537-1.275,1.275-1.878.738-3.354-.738-1.945-3.69-3.489-1.275-5.7.6-.537,1.275-.47,1.946-.872.738-.4,1.14-1.409,1.61-2.08,1.006-1.275,1.744-2.214,1.476-3.824-.268-1.945,1.409-2.08,2.952-2.818,2.08-1.006,1.073-2.549,1.677-4.361.268-.939.939-1.006,1.811-1.275a10.782,10.782,0,0,0,2.214-.805,11.366,11.366,0,0,0,2.751-1.61c1.073-1.073.671-3.354.335-4.629-.47-1.744-.335-3.086,1.342-4.092a5.073,5.073,0,0,0,2.415-5.166,4.807,4.807,0,0,0-1.476-2.885,11.42,11.42,0,0,0-2.616-1.811,4.74,4.74,0,0,0-1.677-.134,13.653,13.653,0,0,1-6.642-1.945c-1.811-1.073-1.409-3.019-2.616-4.562-1.208-1.61-3.019-1.677-4.83-1.946a7.824,7.824,0,0,1-5.032-3.287c-.537-1.006-.335-1.744-1.543-2.281-1.476-.671-2.348.268-3.757.134C183.379,246.073,182.372,244.664,181.031,245.939Z" transform="translate(-149.835 -181.133)" fill="#eb596e"/>
              <path id="Trazado_822588" data-name="Trazado 822588" d="M283.167,271.313c.47,1.878,2.683,3.086,3.086,5.032.335,1.543-1.14,4.83,1.543,4.83a6.589,6.589,0,0,0,4.763-2.013,14.472,14.472,0,0,1,2.549-2.818c1.275-.872,2.751-1.073,3.556-2.549.805-1.409.872-3.623.872-5.3,0-.738-.537-2.013-.134-2.683s1.878-1.342,2.415-1.811a8.964,8.964,0,0,0,1.342-1.409,9.716,9.716,0,0,0,1.476-2.549c.47-1.744-.738-3.354-1.208-4.964-.939-3.22.671-5.1,3.153-6.776a15.093,15.093,0,0,0,2.616-2.013c.738-.872.671-2.013.939-3.019.537-1.811,2.482-1.946,3.22-3.556.6-1.275,1.409-3.086,1.208-4.495-.939-.134-1.811.738-2.751.805a3.388,3.388,0,0,1-2.281-1.006c-.805-.671-1.073-1.543-1.811-2.281a4.066,4.066,0,0,0-1.946-1.14c-.6-.134-1.275,0-1.811-.335a8.583,8.583,0,0,1-1.543-2.482c-.738-1.275-1.476-2.549-2.348-3.824-.939-1.342-2.214-2.549-2.214-4.226,0-1.14.872-2.549.335-3.623-.738-1.61-3.153-1.744-4.7-1.677-.4,0-.805.134-1.208.134-1.14-.134-2.214-1.006-3.287-1.476-1.744-.738-1.208-.4-2.013.939-.671,1.073-1.409.6-2.415,0a5.738,5.738,0,0,1-2.348-1.878c-.537-.939-.335-1.946-1.275-2.751-1.006-.872-2.281-.6-3.489-.47-3.623.4-7.849-.47-11.069,1.744-1.073.738-1.677,1.878-2.683,2.683-1.073.872-1.878,1.409-2.147,2.885-.2,1.073-.134,1.744-1.073,2.482-1.342,1.006-2.751,1.476-3.019,3.354-.134,1.006.4,2.08.067,3.019-.4,1.342-1.409,2.214-1.342,3.757s1.744,2.818,2.348,4.294c.872,2.281.6,4.964,1.878,7.111,1.342,2.214,3.086,1.811,5.233,1.476,2.549-.4,5.1-.872,7.715-1.073a4.889,4.889,0,0,0,2.013-.335c.671-.47.335-1.073.738-1.677.671-1.073,1.342-.335,1.946.47.671.872,1.006,1.342.6,2.281a3.805,3.805,0,0,0-.537,1.744c0,.47.335,1.006.268,1.476-.2.738-.939,1.14-.6,2.013.2.47.671.671,1.073.939a9.528,9.528,0,0,1,2.751,2.147,4.061,4.061,0,0,1,.47,3.623c-.6,1.677-1.543,3.287-1.543,5.1,0,1.476,1.14,2.147,1.677,3.354.537,1.342-.067,2.013-.4,3.22-.6,2.147,2.08,3.623,1.744,5.837" transform="translate(-177.438 -169.408)" fill="#eb596e"/>
              <path id="Trazado_822589" data-name="Trazado 822589" d="M329.832,206.211h0a7.762,7.762,0,0,1-3.019.805c-1.409.134-2.348-.671-3.556-1.14-1.342-.537-2.684-.4-4.025-1.006a16.052,16.052,0,0,1-3.824-2.415c-.4-.4-.537-.6-1.073-.6-1.208,0-1.342,1.073-.872,1.811a9.287,9.287,0,0,0,2.214,2.08c1.208.939,2.281,3.287,3.757,1.61.939-1.14.805-.939,1.811.335.805,1.073,2.013.4,2.885,1.275,1.811,1.811.134,2.616-1.409,3.489-1.342.738-2.08,2.147-3.019,3.287a5.859,5.859,0,0,1-3.958,2.147c-1.141,0-1.744-1.476-2.482-2.281-1.141-1.342-2.415-.537-3.891-1.14-1.543-.671-2.08-2.683-2.952-3.958-1.476-2.147-4.763-4.562-3.153-7.514.6-1.14,1.811-1.878,2.281-3.086.4-.939.738-2.482-.134-3.22s-2.482-.537-3.489-.537-2.08.067-3.086,0a4.973,4.973,0,0,1-2.415-.4c-.335-.2-.537-.268-.671-.671a3.424,3.424,0,0,1-.2-1.409c.067-.6.47-1.073,0-1.61-.268-.268-1.14-.671-1.543-.4-.2.134-.268.6-.335.805a1.653,1.653,0,0,0,.134,1.14,3.577,3.577,0,0,1,.134,1.677,1.231,1.231,0,0,1-1.342.805,1.284,1.284,0,0,1-1.006-1.073c-.067-.268,0-.4-.134-.6-.134-.268-.4-.537-.537-.805-.537-1.073-.671-2.415-1.543-3.354-.671-.738-1.61-1.878-2.616-2.013-.537-.067-1.476.134-1.342.939.067.47,1.275,1.275,1.61,1.61.47.47.805.6.939,1.14.2.872-.268,1.878-.335,2.751a5.772,5.772,0,0,1,.067,1.073,1.827,1.827,0,0,1-1.409.6,1.585,1.585,0,0,1-1.342-1.543c.067-.47.537-.805.537-1.275a5.17,5.17,0,0,0-.939-2.281,3.339,3.339,0,0,0-1.006-1.14c-1.945-1.073-4.361-2.147-5.971-.134-.805,1.006-1.208,2.616-2.281,3.287-1.476.872-3.354-.335-4.9.537-1.476.805-1.878,1.14-3.623.47-1.073-.47-1.208-1.275-1.275-2.482-.2-3.153,2.952-2.482,5.166-2.616.805-.067,1.811-.268,1.744-1.342,0-.738-.805-1.073-1.275-1.61-2.952-3.354,3.556-1.677,4.361-2.415.872-.872.671-2.683,1.543-3.623.671-.738,1.476-.537,2.482-.47a11.887,11.887,0,0,0,1.006-2.08c.134-.47.067-1.409.537-1.61,1.275-.47,1.476,1.275,1.744,1.946a2.11,2.11,0,0,0,2.751,1.073c.4-.268.335-.805.6-1.073.4-.4,1.006-.268,1.61-.335a5.207,5.207,0,0,0,2.214-.6c.6-.4.738-1.14,1.342-1.476a2.41,2.41,0,0,0,.067-1.677c-.268-.6-1.275-.671-1.543-1.342-.47-1.006.6-1.61,1.006-2.281.537-.939-.067-1.073-.872-.939-.939.134-2.482.671-2.013,1.878.134.4.537.671.738.939a1.928,1.928,0,0,1,.268,1.409c-.134.939-.738,1.275-1.61,1.543a5.545,5.545,0,0,0-1.476.537c-.537.4-.537.872-.738,1.476-.47,1.275-1.14.537-1.476-.4-.268-.805,0-2.08-.738-2.415-.939-.47-1.878.537-2.751.6a2.977,2.977,0,0,1-1.945-1.543,2.842,2.842,0,0,1,.4-2.415c.738-1.208,2.616-1.342,3.824-2.013.671-.4.671-.6.872-1.342a2.946,2.946,0,0,1,2.147-2.482c1.275-.2,2.549.671,3.757.134.6-.268.872-.805,1.409-1.14a4.915,4.915,0,0,1,2.952-.4,5.207,5.207,0,0,1,2.616.805c.6.47,1.006,1.14,1.543,1.61.939.805,2.281.738,3.488.805,1.476.067,2.684-.671,4.159-1.006.671-.2,1.342-.335,2.013-.47A76.636,76.636,0,0,1,329.832,206.211Z" transform="translate(-180.496 -154.219)" fill="#eb596e"/>
              <path id="Trazado_822590" data-name="Trazado 822590" d="M274.494,178.088a2.735,2.735,0,0,0,.268,2.281c.335.6.805,1.14,1.141,1.811a2.433,2.433,0,0,1,.268,1.677c-.2.872-.47,2.147-1.476,2.415a1.815,1.815,0,0,1-2.013-.671,1.471,1.471,0,0,1-.134-1.073,3.615,3.615,0,0,0,.2-.671c0-.268-.134-.335-.4-.335-.4,0-.537.2-.671.537-.2.335-.134.805-.47,1.073a1.594,1.594,0,0,1-.805.2,4.707,4.707,0,0,1-1.677-.067,2.35,2.35,0,0,1-.671-2.348c.4-.939,1.543-1.275,2.415-1.61.4-.134.671-.2.738-.671a8.435,8.435,0,0,0-.335-2.214,2.045,2.045,0,0,1,2.616-2.281C274.36,176.344,274.494,177.417,274.494,178.088Z" transform="translate(-181.311 -158.298)" fill="#eb596e"/>
              <path id="Trazado_822591" data-name="Trazado 822591" d="M256.938,151.277c-3.153-.335-6.239-.939-9.392-1.14-2.616-.2-5.233-.47-7.916-.537a35.577,35.577,0,0,0-7.044.939c-1.811.335-3.623.805-5.367,1.275-.671.2-3.824,1.208-3.623,2.348.2,1.073,1.878,1.275,2.683,1.409.671.134,2.482.6,2.415,1.677-.067.738-1.006.6-.939,1.543.067,1.006.671,1.744-.067,2.616-.939,1.208-2.013,2.147-2.013,3.824-.067,2.415,2.616,3.22,4.562,3.22a4.686,4.686,0,0,0,3.354-1.476c.47-.47,1.073-1.543,1.677-1.811a4.972,4.972,0,0,1,1.409-.067c1.275-.134,2.549-.2,3.019-1.476.6-1.61-.134-3.824,1.14-5.166,1.476-1.476,2.818-.067,4.294.47,1.006.4,2.415.805,3.354,0a6.575,6.575,0,0,0,1.141-1.543,3.361,3.361,0,0,1,2.482-1.946c1.677-.268,2.885-.134,3.891-1.476A4.177,4.177,0,0,0,256.938,151.277Z" transform="translate(-166.706 -149.6)" fill="#eb596e"/>
              <path id="Trazado_822592" data-name="Trazado 822592" d="M339.819,282.978c-.6,1.61-.738,3.22-1.208,4.763a14.63,14.63,0,0,1-1.342,2.482c-.805,1.543-1.208,3.287-2.013,4.763a4.875,4.875,0,0,1-1.811,1.878,3.215,3.215,0,0,1-2.348.268c-.47-.268-.671-1.476-.6-1.945.067-1.073,1.006-1.878,1.409-2.751a3.985,3.985,0,0,0,.47-1.744,6.892,6.892,0,0,0-.47-1.677c-.2-.671-.537-2.348-.2-2.952.268-.537,1.275-.872,1.744-1.14.671-.4,1.476-.671,2.147-1.073.47-.268.6-.671.872-1.141.6-.872,1.476-1.744,2.549-1.275C339.886,281.838,339.752,282.308,339.819,282.978Z" transform="translate(-201.888 -192.948)" fill="#eb596e"/>
            </g>
          </g>
          <path id="Trazado_822593" data-name="Trazado 822593" d="M287.411,212.947h0A75.7,75.7,0,0,0,275.2,184.1v1.946a76.076,76.076,0,0,1-138.6,43.338,76.089,76.089,0,0,0,152.153-1.946A79.2,79.2,0,0,0,287.411,212.947Z" transform="translate(-136.6 -151.362)" fill="#e6a8b0"/>
        </g>
        <ellipse id="Elipse_9759" data-name="Elipse 9759" cx="41.862" cy="29.384" rx="41.862" ry="29.384" transform="translate(0 59.202) rotate(-45)" fill="#fff" opacity="0.5"/>
      </g>
      <g id="Grupo_1074921" data-name="Grupo 1074921" transform="translate(0 0)">
        <circle id="Elipse_9760" data-name="Elipse 9760" cx="83.859" cy="83.859" r="83.859" transform="translate(0 118.593) rotate(-45)" fill="none" stroke="#f57f90" stroke-miterlimit="10" stroke-width="1" stroke-dasharray="7.012 7.012"/>
      </g>
      <g id="Grupo_1074926" data-name="Grupo 1074926" transform="translate(66.012 55.943)">
        <path id="Trazado_822594" data-name="Trazado 822594" d="M182,193.277a79.433,79.433,0,0,1,91.775,66.752" transform="translate(-175.023 -167.448)" fill="none" stroke="#fff" stroke-linecap="round" stroke-linejoin="round" stroke-miterlimit="10" stroke-width="1" stroke-dasharray="5"/>
        <path id="Trazado_822595" data-name="Trazado 822595" d="M197.8,271.613a132.246,132.246,0,0,1,30.122-64.538,94.269,94.269,0,0,1,21.468-18.851,59.562,59.562,0,0,1,26.9-9.124" transform="translate(-180.223 -163.133)" fill="none" stroke="#fff" stroke-linecap="round" stroke-linejoin="round" stroke-miterlimit="10" stroke-width="1" stroke-dasharray="5"/>
        <g id="Grupo_1074922" data-name="Grupo 1074922" transform="translate(89.695)">
          <ellipse id="Elipse_9761" data-name="Elipse 9761" cx="5.568" cy="1.14" rx="5.568" ry="1.14" transform="translate(0.537 15.296)" fill="#f58e20"/>
          <path id="Trazado_822596" data-name="Trazado 822596" d="M311.4,155.3a6.127,6.127,0,0,0-6.1,6.1c0,3.757,6.1,10.13,6.1,10.13s6.1-6.373,6.1-10.13A6.127,6.127,0,0,0,311.4,155.3Z" transform="translate(-305.3 -155.3)" fill="#ffbb45"/>
          <path id="Trazado_822597" data-name="Trazado 822597" d="M315.633,163.116a2.616,2.616,0,1,1-2.616-2.616A2.578,2.578,0,0,1,315.633,163.116Z" transform="translate(-306.979 -157.011)" fill="#f58e20"/>
        </g>
        <g id="Grupo_1074923" data-name="Grupo 1074923" transform="translate(11.002 92.915)">
          <path id="Trazado_822598" data-name="Trazado 822598" d="M199.936,317.74c0,.6-2.482,1.141-5.568,1.141s-5.568-.537-5.568-1.141,2.482-1.14,5.568-1.14S199.936,317.07,199.936,317.74Z" transform="translate(-188.263 -301.304)" fill="#f58e20"/>
          <path id="Trazado_822599" data-name="Trazado 822599" d="M194.1,293.8a6.127,6.127,0,0,0-6.1,6.1c0,3.757,6.1,10.13,6.1,10.13s6.1-6.373,6.1-10.13A6.084,6.084,0,0,0,194.1,293.8Z" transform="translate(-188 -293.8)" fill="#ffbb45"/>
          <path id="Trazado_822600" data-name="Trazado 822600" d="M198.333,301.516a2.616,2.616,0,1,1-2.616-2.616A2.664,2.664,0,0,1,198.333,301.516Z" transform="translate(-189.679 -295.479)" fill="#f58e20"/>
        </g>
        <g id="Grupo_1074924" data-name="Grupo 1074924" transform="translate(0 10.197)">
          <ellipse id="Elipse_9762" data-name="Elipse 9762" cx="5.568" cy="1.14" rx="5.568" ry="1.14" transform="translate(0.537 15.296)" fill="#f58e20"/>
          <path id="Trazado_822601" data-name="Trazado 822601" d="M177.7,170.5a6.127,6.127,0,0,0-6.1,6.1c0,3.757,6.1,10.13,6.1,10.13s6.1-6.373,6.1-10.13A6.127,6.127,0,0,0,177.7,170.5Z" transform="translate(-171.6 -170.5)" fill="#ffbb45"/>
          <path id="Trazado_822602" data-name="Trazado 822602" d="M181.933,178.216a2.616,2.616,0,1,1-2.616-2.616A2.664,2.664,0,0,1,181.933,178.216Z" transform="translate(-173.279 -172.179)" fill="#f58e20"/>
        </g>
        <g id="Grupo_1074925" data-name="Grupo 1074925" transform="translate(92.245 75.741)">
          <ellipse id="Elipse_9763" data-name="Elipse 9763" cx="5.568" cy="1.14" rx="5.568" ry="1.14" transform="translate(0.537 15.296)" fill="#f58e20"/>
          <path id="Trazado_822603" data-name="Trazado 822603" d="M315.2,268.2a6.127,6.127,0,0,0-6.1,6.1c0,3.757,6.1,10.13,6.1,10.13s6.1-6.373,6.1-10.13A6.084,6.084,0,0,0,315.2,268.2Z" transform="translate(-309.1 -268.2)" fill="#ffbb45"/>
          <path id="Trazado_822604" data-name="Trazado 822604" d="M319.533,276.016a2.616,2.616,0,1,1-2.616-2.616A2.62,2.62,0,0,1,319.533,276.016Z" transform="translate(-310.811 -269.911)" fill="#f58e20"/>
        </g>
      </g>
    </g>
    <g id="Grupo_1074951" data-name="Grupo 1074951" transform="translate(46.668 46.305)">
      <g id="Grupo_1074928" data-name="Grupo 1074928" transform="translate(0 60.222)">
        <path id="Trazado_822605" data-name="Trazado 822605" d="M109.813,137.3H58.894a4.324,4.324,0,0,0-4.294,4.294V173.46a4.324,4.324,0,0,0,4.294,4.294h50.919a4.324,4.324,0,0,0,4.294-4.294V141.594A4.324,4.324,0,0,0,109.813,137.3Z" transform="translate(-54.6 -137.3)" fill="#eb596e"/>
        <path id="Trazado_822606" data-name="Trazado 822606" d="M107.572,160.093,87.311,148.42a1.208,1.208,0,0,0-1.811,1.006v23.346a1.186,1.186,0,0,0,1.811,1.006l20.26-11.673A1.14,1.14,0,0,0,107.572,160.093Z" transform="translate(-64.77 -140.906)" fill="#fff"/>
      </g>
      <g id="Grupo_1074931" data-name="Grupo 1074931" transform="translate(188.514 155.284)">
        <circle id="Elipse_9764" data-name="Elipse 9764" cx="29.049" cy="29.049" r="29.049" fill="#ffbb45"/>
        <g id="Grupo_1074930" data-name="Grupo 1074930" transform="translate(12.21 12.88)">
          <g id="Grupo_1074929" data-name="Grupo 1074929">
            <path id="Trazado_822607" data-name="Trazado 822607" d="M387.411,313.7c0,6.172-2.549,9.862-6.843,9.862a4.285,4.285,0,0,1-4.495-3.086,7.336,7.336,0,0,1-6.373,3.086c-4.9,0-8.52-3.757-8.52-9.057,0-5.233,3.623-8.99,8.52-8.99a7.281,7.281,0,0,1,5.9,2.549v-2.281h3.958v12.076c0,1.811.872,2.415,1.878,2.415,1.946,0,2.952-2.214,2.952-6.44,0-7.581-5.568-12.747-13.619-12.747-8.252,0-13.686,5.5-13.686,13.283,0,7.849,5.434,13.35,13.552,13.35a16.354,16.354,0,0,0,6.91-1.543l.939,2.818a18.915,18.915,0,0,1-7.849,1.677c-10.063,0-16.839-6.843-16.839-16.3,0-9.325,6.843-16.168,16.973-16.168C380.568,298.133,387.411,304.64,387.411,313.7Zm-11.74.738c0-3.489-2.281-5.568-5.233-5.568-3.086,0-5.233,2.147-5.233,5.568s2.147,5.635,5.233,5.635C373.456,320.07,375.67,317.99,375.67,314.435Z" transform="translate(-353.8 -298.199)" fill="#fff"/>
          </g>
        </g>
      </g>
      <g id="Grupo_1074933" data-name="Grupo 1074933" transform="translate(189.118 17.957)">
        <rect id="Rectángulo_382933" data-name="Rectángulo 382933" width="79.766" height="52.194" transform="translate(0 36.428)" fill="#4c2f63"/>
        <path id="Trazado_822608" data-name="Trazado 822608" d="M376.35,90.2,336.5,105.63v15.229h79.766V105.63Z" transform="translate(-336.5 -79.533)" fill="#4c2f63"/>
        <g id="Grupo_1074932" data-name="Grupo 1074932" transform="translate(6.507)">
          <rect id="Rectángulo_382934" data-name="Rectángulo 382934" width="66.752" height="79.431" fill="#ffbb45"/>
          <rect id="Rectángulo_382935" data-name="Rectángulo 382935" width="52.328" height="2.147" transform="translate(7.178 10.667)" fill="#fff"/>
          <rect id="Rectángulo_382936" data-name="Rectángulo 382936" width="52.328" height="2.147" transform="translate(7.178 21.199)" fill="#fff"/>
          <rect id="Rectángulo_382937" data-name="Rectángulo 382937" width="52.328" height="2.147" transform="translate(7.178 31.799)" fill="#fff"/>
          <rect id="Rectángulo_382938" data-name="Rectángulo 382938" width="52.328" height="2.147" transform="translate(7.178 42.399)" fill="#fff"/>
          <rect id="Rectángulo_382939" data-name="Rectángulo 382939" width="52.328" height="2.147" transform="translate(7.178 52.999)" fill="#fff"/>
          <rect id="Rectángulo_382940" data-name="Rectángulo 382940" width="52.328" height="2.147" transform="translate(7.178 63.598)" fill="#ffbb45"/>
        </g>
        <path id="Trazado_822609" data-name="Trazado 822609" d="M336.5,162.287l39.85-8.587,39.917,8.587v26.835H336.5Z" transform="translate(-336.5 -100.433)" fill="#8c749e"/>
      </g>
      <g id="Grupo_1074950" data-name="Grupo 1074950" transform="translate(71.082 0)">
        <circle id="Elipse_9765" data-name="Elipse 9765" cx="28.109" cy="28.109" r="28.109" transform="translate(11.404 39.752) rotate(-45)" fill="none" stroke="#543c66" stroke-miterlimit="10" stroke-width="1"/>
        <g id="Grupo_1074949" data-name="Grupo 1074949" transform="translate(0 3.641)">
          <g id="Grupo_1074938" data-name="Grupo 1074938" transform="translate(52.61 0.404)">
            <circle id="Elipse_9766" data-name="Elipse 9766" cx="19.12" cy="19.12" r="19.12" transform="translate(0 13.506) rotate(-20.682)" fill="#ffbb45"/>
            <g id="Grupo_1074937" data-name="Grupo 1074937" transform="translate(13.97 12.637)">
              <g id="Grupo_1074936" data-name="Grupo 1074936">
                <g id="Grupo_1074935" data-name="Grupo 1074935">
                  <g id="Grupo_1074934" data-name="Grupo 1074934">
                    <path id="Trazado_822610" data-name="Trazado 822610" d="M275.9,89.2a7.613,7.613,0,0,1-10.868,0,10.713,10.713,0,0,0-5.233,9.124h21.267A10.59,10.59,0,0,0,275.9,89.2Z" transform="translate(-259.8 -77.929)" fill="#8c749e"/>
                    <circle id="Elipse_9767" data-name="Elipse 9767" cx="5.971" cy="5.971" r="5.971" transform="translate(4.696)" fill="#8c749e"/>
                  </g>
                </g>
              </g>
            </g>
          </g>
          <g id="Grupo_1074943" data-name="Grupo 1074943" transform="translate(29.159 41.347)">
            <circle id="Elipse_9768" data-name="Elipse 9768" cx="19.12" cy="19.12" r="19.12" transform="translate(0 37.739) rotate(-80.706)" fill="#ffbb45"/>
            <g id="Grupo_1074942" data-name="Grupo 1074942" transform="translate(11.324 9.933)">
              <g id="Grupo_1074941" data-name="Grupo 1074941">
                <g id="Grupo_1074940" data-name="Grupo 1074940">
                  <g id="Grupo_1074939" data-name="Grupo 1074939">
                    <path id="Trazado_822611" data-name="Trazado 822611" d="M237,146.3a7.613,7.613,0,0,1-10.868,0,10.713,10.713,0,0,0-5.233,9.124h21.267A10.427,10.427,0,0,0,237,146.3Z" transform="translate(-220.9 -134.962)" fill="#f57f90"/>
                    <circle id="Elipse_9769" data-name="Elipse 9769" cx="5.971" cy="5.971" r="5.971" transform="translate(4.696)" fill="#f57f90"/>
                  </g>
                </g>
              </g>
            </g>
          </g>
          <g id="Grupo_1074948" data-name="Grupo 1074948">
            <circle id="Elipse_9770" data-name="Elipse 9770" cx="19.12" cy="19.12" r="19.12" transform="translate(0 14.871) rotate(-22.886)" fill="#ffbb45"/>
            <g id="Grupo_1074947" data-name="Grupo 1074947" transform="translate(14.386 13.041)">
              <g id="Grupo_1074946" data-name="Grupo 1074946">
                <g id="Grupo_1074945" data-name="Grupo 1074945">
                  <g id="Grupo_1074944" data-name="Grupo 1074944">
                    <path id="Trazado_822612" data-name="Trazado 822612" d="M198.1,89.2a7.613,7.613,0,0,1-10.868,0A10.713,10.713,0,0,0,182,98.324h21.267A10.59,10.59,0,0,0,198.1,89.2Z" transform="translate(-182 -77.929)" fill="#d66113"/>
                    <circle id="Elipse_9771" data-name="Elipse 9771" cx="5.971" cy="5.971" r="5.971" transform="translate(4.696)" fill="#d66113"/>
                  </g>
                </g>
              </g>
            </g>
          </g>
        </g>
      </g>
    </g>
    <g id="Grupo_1074957" data-name="Grupo 1074957" transform="translate(30.5 43.8)">
      <g id="Grupo_1074952" data-name="Grupo 1074952" transform="translate(57.779 32.235)">
        <path id="Trazado_822613" data-name="Trazado 822613" d="M144.651,100.471a1.335,1.335,0,0,1-1.073-.47,17.168,17.168,0,0,0-24.285,0,1.565,1.565,0,1,1-2.214-2.214,20.245,20.245,0,0,1,28.646,0,1.579,1.579,0,0,1,0,2.214A1.335,1.335,0,0,1,144.651,100.471Z" transform="translate(-116.625 -91.85)" fill="#e2ad66"/>
        <path id="Trazado_822614" data-name="Trazado 822614" d="M142.633,107.71a1.335,1.335,0,0,1-1.073-.47,11.5,11.5,0,0,0-16.168,0,1.565,1.565,0,0,1-2.214-2.214,14.577,14.577,0,0,1,20.529,0,1.579,1.579,0,0,1,0,2.214A1.429,1.429,0,0,1,142.633,107.71Z" transform="translate(-118.633 -94.796)" fill="#e2ad66"/>
        <path id="Trazado_822615" data-name="Trazado 822615" d="M140.652,113.975a1.335,1.335,0,0,1-1.073-.47,6.115,6.115,0,0,0-8.587,0,1.565,1.565,0,0,1-2.214-2.214,9.192,9.192,0,0,1,12.948,0,1.579,1.579,0,0,1,0,2.214A1.335,1.335,0,0,1,140.652,113.975Z" transform="translate(-120.476 -97.371)" fill="#e2ad66"/>
        <path id="Trazado_822616" data-name="Trazado 822616" d="M140.238,120.219a3.019,3.019,0,1,1-3.019-3.019A3.006,3.006,0,0,1,140.238,120.219Z" transform="translate(-122.409 -100.193)" fill="#e2ad66"/>
      </g>
      <path id="Trazado_822617" data-name="Trazado 822617" d="M322.19,43.8c-4.964,0-8.99,3.153-8.99,6.977a6.444,6.444,0,0,0,3.086,5.233l-.805,1.878,3.421-.671a10.532,10.532,0,0,0,3.287.47c4.964,0,8.99-3.153,8.99-6.977C331.179,46.953,327.154,43.8,322.19,43.8Zm-3.623,5.837a1.208,1.208,0,1,1-1.208,1.208A1.162,1.162,0,0,1,318.567,49.637Zm3.757,2.348a1.208,1.208,0,1,1,1.208-1.208A1.3,1.3,0,0,1,322.324,51.985Zm3.757,0a1.208,1.208,0,1,1,1.208-1.208A1.3,1.3,0,0,1,326.081,51.985Z" transform="translate(-123.545 -43.8)" fill="#e2ad66"/>
      <g id="Grupo_1074953" data-name="Grupo 1074953" transform="translate(263.987 144.304)">
        <path id="Trazado_822618" data-name="Trazado 822618" d="M424,258.9v19.455h29.116V258.9Zm26.9,1.945V270.3l-3.958-4.562-5.1,4.7-7.715-6.306-7.983,7.447V260.846H450.9Z" transform="translate(-424 -258.9)" fill="#e2ad66"/>
        <path id="Trazado_822619" data-name="Trazado 822619" d="M449.442,268.889a1.744,1.744,0,1,0-1.744-1.744A1.691,1.691,0,0,0,449.442,268.889Z" transform="translate(-431.798 -261.039)" fill="#e2ad66"/>
      </g>
      <g id="Grupo_1074956" data-name="Grupo 1074956" transform="translate(0 123.306)">
        <g id="Grupo_1074954" data-name="Grupo 1074954" transform="translate(15.497 9.929)">
          <path id="Trazado_822620" data-name="Trazado 822620" d="M74.786,259.66a3.369,3.369,0,1,0,2.549,4.025A3.376,3.376,0,0,0,74.786,259.66Z" transform="translate(-59.221 -248.054)" fill="#e2ad66"/>
          <path id="Trazado_822621" data-name="Trazado 822621" d="M82.246,262.862l1.073-4.629-4.159-1.811a8.6,8.6,0,0,0-.335-1.811l3.354-3.086L79.63,247.5,75.4,249.176A12.63,12.63,0,0,0,73.86,248.1l.134-4.629L69.365,242.4l-1.811,4.159a8.6,8.6,0,0,0-1.811.335l-3.086-3.354-4.025,2.549,1.677,4.226a12.629,12.629,0,0,0-1.073,1.543l-4.562-.2L53.6,256.287l4.159,1.811a8.6,8.6,0,0,0,.335,1.811L54.74,263l2.549,4.025,4.226-1.677a12.629,12.629,0,0,0,1.543,1.073l-.2,4.562,4.629,1.073,1.811-4.159a8.6,8.6,0,0,0,1.811-.335l3.086,3.354,4.025-2.549-1.677-4.227a12.629,12.629,0,0,0,1.073-1.543Zm-15.363,1.208a6.949,6.949,0,1,1,8.319-5.233A7.03,7.03,0,0,1,66.883,264.069Z" transform="translate(-53.6 -242.4)" fill="#e2ad66"/>
        </g>
        <g id="Grupo_1074955" data-name="Grupo 1074955">
          <path id="Trazado_822622" data-name="Trazado 822622" d="M44.255,239.576a2.355,2.355,0,1,0,2.751,1.878A2.353,2.353,0,0,0,44.255,239.576Z" transform="translate(-34.393 -231.526)" fill="#e2ad66"/>
          <path id="Trazado_822623" data-name="Trazado 822623" d="M51.163,237.73l-.6-3.287H47.406c-.2-.4-.47-.738-.671-1.073l1.275-2.885-2.751-1.878-2.214,2.214a7.129,7.129,0,0,0-1.275-.268L40.63,227.6l-3.287.6v3.153c-.4.2-.738.47-1.073.671l-2.885-1.275L31.506,233.5l2.214,2.214a7.125,7.125,0,0,0-.268,1.275l-2.952,1.14.6,3.287h3.153c.2.4.47.738.671,1.073l-1.275,2.885,2.751,1.878,2.214-2.214a7.124,7.124,0,0,0,1.275.268l1.14,2.952,3.287-.6v-3.153c.4-.2.738-.47,1.073-.671l2.885,1.275,1.878-2.751-2.214-2.214a7.127,7.127,0,0,0,.268-1.275Zm-9.526,4.964a4.842,4.842,0,1,1,3.891-5.635A4.9,4.9,0,0,1,41.636,242.695Z" transform="translate(-30.5 -227.6)" fill="#e2ad66"/>
        </g>
      </g>
    </g>
    <g id="Grupo_1074958" data-name="Grupo 1074958" transform="translate(78.429 145.437)">
      <path id="Trazado_822624" data-name="Trazado 822624" d="M346.563,229.522a4.43,4.43,0,0,0-.067-.939A9.825,9.825,0,0,0,338.11,220a10.425,10.425,0,0,0-4.361.4,14.5,14.5,0,0,0-28.244,1.946,7.926,7.926,0,0,0-3.958-.805,8.124,8.124,0,0,0-7.648,7.983v.067a2.548,2.548,0,0,0,2.549,2.549h47.632A2.509,2.509,0,0,0,346.563,229.522Z" transform="translate(-165.122 -200.138)" fill="#fff"/>
      <path id="Trazado_822625" data-name="Trazado 822625" d="M190.336,205.363v-.47a5.125,5.125,0,0,0-4.294-4.428,5.2,5.2,0,0,0-2.281.2,7.435,7.435,0,0,0-14.491.939,4.018,4.018,0,0,0-2.013-.4A4.276,4.276,0,0,0,163.3,205.3v.067a1.29,1.29,0,0,0,1.342,1.275h24.42C189.732,206.772,190.336,206.1,190.336,205.363Z" transform="translate(-122.137 -195.3)" fill="#fff"/>
      <path id="Trazado_822626" data-name="Trazado 822626" d="M156.523,265.829a10.371,10.371,0,0,0-5.837-5.7,10.168,10.168,0,0,0-6.575-.335c0-.335.067-.671.067-.939a13.96,13.96,0,0,0-27.841-1.476,10.384,10.384,0,0,0,0,2.885h-.4a3.894,3.894,0,0,0-3.891,3.891v.134a10.972,10.972,0,0,0-1.476-.134,9.884,9.884,0,0,0-8.118,4.159,2.622,2.622,0,0,0,2.147,4.159h50.181a2.62,2.62,0,0,0,2.616-2.616A10.874,10.874,0,0,0,156.523,265.829Z" transform="translate(-101.943 -211.623)" fill="#fff"/>
      <path id="Trazado_822627" data-name="Trazado 822627" d="M257.71,315.266a5.433,5.433,0,0,1,3.019-2.952,5.523,5.523,0,0,1,3.421-.2v-.47a7.265,7.265,0,0,1,14.491-.738,5.431,5.431,0,0,1,0,1.476h.2a1.977,1.977,0,0,1,2.013,2.013v.067a3.265,3.265,0,0,1,.805-.067,5.269,5.269,0,0,1,4.226,2.147,1.35,1.35,0,0,1-1.073,2.147h-26.1a1.346,1.346,0,0,1-1.342-1.342A3.343,3.343,0,0,1,257.71,315.266Z" transform="translate(-153.083 -231.206)" fill="#fff"/>
    </g>
  </g>
</svg>
