<svg xmlns="http://www.w3.org/2000/svg" xmlns:xlink="http://www.w3.org/1999/xlink" width="400" height="400" viewBox="0 0 400 400">
  <defs>
    <linearGradient id="linear-gradient" x1="0.424" y1="-0.129" x2="0.572" y2="0.993" gradientUnits="objectBoundingBox">
      <stop offset="0" stop-color="#213e8b"/>
      <stop offset="0.207" stop-color="#16538b"/>
      <stop offset="0.5" stop-color="#0a6b8c"/>
      <stop offset="0.772" stop-color="#037a8c"/>
      <stop offset="1" stop-color="#007f8c"/>
    </linearGradient>
  </defs>
  <g id="OBJECTS" transform="translate(32.534 41.47)">
    <g id="Grupo_1073298" data-name="Grupo 1073298" transform="translate(-32.534 -41.47)">
      <circle id="Elipse_9748" data-name="Elipse 9748" cx="141.423" cy="141.423" r="141.423" transform="translate(0 200) rotate(-45)" fill="#d7ecd6"/>
      <g id="Grupo_1073286" data-name="Grupo 1073286" transform="translate(86.811 54.905)">
        <g id="Grupo_1073275" data-name="Grupo 1073275" transform="translate(0)">
          <path id="Trazado_820911" data-name="Trazado 820911" d="M208.729,42.3q22.385,9.5,46.6,19.71Q280.566,72.68,308.055,84.33c2.323.986,3.027,3.942,1.689,6.547L248.5,207.028,187.258,323.179c-1.337,2.6-4.153,3.449-6.054,1.83q-23.441-19.323-44.982-37.1-20.7-17.106-39.773-32.8c-1.478-1.267-1.76-4.153-.563-6.406q26.82-50.9,53.641-101.72,26.82-50.79,53.641-101.72c1.338-2.464,3.8-3.731,5.561-2.957ZM235.9,56.243q-7.286-3.062-14.361-6.124c-4.646-1.971-9.292-3.942-13.8-5.913-.915-.422-2.253.282-2.886,1.478q-26.926,51-53.781,101.931-26.926,51-53.781,101.931A3.022,3.022,0,0,0,97.576,253c12.741,10.489,26.046,21.33,39.843,32.663q21.541,17.739,45.053,36.957c1.056.845,2.464.422,3.238-.986q30.516-57.864,61.1-115.87,30.516-57.864,61.1-115.869A2.393,2.393,0,0,0,307,86.442c-5.772-2.464-11.4-4.857-17.035-7.251-5.491-2.323-10.982-4.646-16.332-6.969-.7,1.267-1.337,2.534-2.041,3.8-.986,1.9-3.168,2.886-4.787,2.182-5.491-2.393-10.911-4.787-16.261-7.11-5.28-2.323-10.489-4.576-15.628-6.828-1.478-.634-1.9-2.675-.915-4.505C234.634,58.707,235.267,57.44,235.9,56.243Z" transform="translate(-92.076 -38.17)" fill="#cbcbcb" fill-rule="evenodd"/>
          <path id="Trazado_820912" data-name="Trazado 820912" d="M348.712,98.6l5.28,5.913.211.352a9.451,9.451,0,0,1,.211,8.377l-.211.493-.211.493c-9.644,18.232-19.218,36.464-28.862,54.7Q293.452,229.006,261.7,289.158c-10.278,19.429-18.584,36.746-28.862,56.175a9.528,9.528,0,0,1-3.8,4.012,6.132,6.132,0,0,1-5.35.563l-7.391-3.238c3.661.141,6.758-.493,9.081-4.294,2.041-3.731,4.364-7.743,6.336-11.545,7.673-14.572,15.487-29,23.16-43.574Q285.6,228.971,316.19,170.614c10.911-20.626,21.682-41.251,32.593-61.877A10.381,10.381,0,0,0,348.712,98.6Z" transform="translate(-127.946 -54.903)" fill="#50556b" fill-rule="evenodd"/>
          <path id="Trazado_820913" data-name="Trazado 820913" d="M353.077,103.516a12.982,12.982,0,0,1-1.549,6.828Q320.8,168.631,290,226.989q-30.727,58.287-61.525,116.644a11.663,11.663,0,0,1-6.336,5.7L216.3,346.8c3.66.141,6.758-.493,9.081-4.294,2.041-3.731,4.364-7.743,6.335-11.545,7.673-14.572,15.487-29,23.16-43.574Q285.6,229.1,316.19,170.743c10.911-20.626,21.682-41.251,32.593-61.877a10.432,10.432,0,0,0-.07-10.066Z" transform="translate(-127.946 -54.962)" fill="#6b6e83" fill-rule="evenodd"/>
          <path id="Trazado_820914" data-name="Trazado 820914" d="M209.411,36.93q22.491,9.4,46.742,19.5Q281.5,66.989,309.019,78.463c4.364,1.83,5.843,7.391,3.238,12.319q-30.727,58.287-61.525,116.644-30.727,58.287-61.525,116.644c-2.6,4.928-7.743,6.406-11.474,3.309Q154.4,307.949,132.892,290,112.3,272.787,93.26,256.984c-2.816-2.393-3.309-7.743-1.056-12.037l53.43-101.368Q172.348,93,199.063,42.21C201.457,37.916,206.032,35.522,209.411,36.93Z" transform="translate(-90.787 -36.526)" fill="#2e324f" fill-rule="evenodd"/>
          <g id="Grupo_1073272" data-name="Grupo 1073272" transform="translate(4.562 5.602)">
            <path id="Trazado_820915" data-name="Trazado 820915" d="M208.514,44.637c-1.056-.493-2.534.282-3.309,1.689q-26.926,51-53.781,101.931-26.926,51-53.711,101.861c-.7,1.408-.563,3.168.352,3.872q19.112,15.733,39.773,32.733,21.541,17.739,45.053,36.957c1.2.986,2.816.493,3.661-1.126q30.516-57.97,61.1-115.87,30.516-57.97,61.1-115.94A2.733,2.733,0,0,0,307.7,86.8c-5.772-2.464-11.545-4.928-17.176-7.321-5.561-2.393-11.052-4.716-16.472-7.039-.563,1.126-1.126,2.182-1.76,3.309-.915,1.689-2.816,2.6-4.294,1.971-5.491-2.393-10.911-4.787-16.332-7.11-5.28-2.323-10.489-4.576-15.628-6.828-1.337-.563-1.689-2.393-.845-4.012l1.689-3.168c-4.928-2.112-9.714-4.153-14.5-6.195C217.806,48.58,213.089,46.608,208.514,44.637Z" transform="translate(-97.268 -44.486)" fill-rule="evenodd" fill="url(#linear-gradient)"/>
            <path id="Trazado_820918" data-name="Trazado 820918" d="M219.958,329.056a58.155,58.155,0,0,1,23.723,3.449l-.352.7a55.655,55.655,0,0,0-23.441-3.379c-17.528,1.056-34,9.433-46.46,22.033a83.44,83.44,0,0,0-15.064,21.189l-.563-.493A81.172,81.172,0,0,1,172.935,351.3c12.6-12.741,29.284-21.189,47.024-22.245ZM162.235,376.22l.563.493a73.525,73.525,0,0,1,14.361-20.766c11.334-11.474,26.328-19.077,42.237-20.062a52.526,52.526,0,0,1,20.978,2.957l.352-.7a51.5,51.5,0,0,0-21.259-3.027c-16.12.986-31.255,8.659-42.73,20.274a73.878,73.878,0,0,0-14.5,20.837Zm4.435,3.66.563.493a67.01,67.01,0,0,1,13.657-20.414c10.207-10.348,23.653-17.176,37.943-18.021a45.66,45.66,0,0,1,18.514,2.534l.352-.7a46.869,46.869,0,0,0-18.8-2.6c-14.5.845-28.158,7.814-38.506,18.3a67.219,67.219,0,0,0-13.727,20.414Zm4.505,3.661.563.493a58.236,58.236,0,0,1,12.953-20.062c9.081-9.151,20.978-15.205,33.719-15.98a41.3,41.3,0,0,1,16.05,2.112l.352-.7a41.426,41.426,0,0,0-16.332-2.182c-12.882.774-25.06,6.9-34.212,16.261a57.6,57.6,0,0,0-13.093,20.062Zm4.576,3.8.563.493a51.161,51.161,0,0,1,12.108-19.781c7.884-8.025,18.373-13.3,29.425-13.938a37.184,37.184,0,0,1,13.586,1.689l.352-.7a37.218,37.218,0,0,0-13.868-1.76c-11.263.7-21.893,6.054-29.988,14.22a51.315,51.315,0,0,0-12.178,19.781Zm4.646,3.872.634.493a43.772,43.772,0,0,1,11.122-19.64c6.758-6.828,15.7-11.4,25.2-11.967a32,32,0,0,1,11.122,1.267l.352-.7a30.274,30.274,0,0,0-11.4-1.337c-9.714.563-18.8,5.209-25.694,12.178A44.4,44.4,0,0,0,180.4,391.215Zm4.928,4.012.634.563a35.063,35.063,0,0,1,9.926-19.64,32.541,32.541,0,0,1,20.907-9.926,24.623,24.623,0,0,1,8.588.915l.352-.7a26.478,26.478,0,0,0-8.94-.915,33.41,33.41,0,0,0-21.47,10.207,36.367,36.367,0,0,0-10,19.5Zm5.42,4.435.774.634a20.742,20.742,0,0,1,.07-2.957,28.1,28.1,0,0,1,8.1-17.176,25.866,25.866,0,0,1,16.684-7.884,21.641,21.641,0,0,1,6.124.493l.352-.7a21.6,21.6,0,0,0-6.476-.563,26.564,26.564,0,0,0-17.176,8.166,28.882,28.882,0,0,0-8.307,17.739c-.07.774-.141,1.549-.141,2.253Zm7.321,6.054a17.46,17.46,0,0,1-1.408-8.659,21.849,21.849,0,0,1,6.265-13.3,20.049,20.049,0,0,1,12.953-6.124,18.283,18.283,0,0,1,3.942.211l-.422.7a15.168,15.168,0,0,0-3.59-.211,19.265,19.265,0,0,0-12.389,5.913,20.991,20.991,0,0,0-5.984,12.812,16.129,16.129,0,0,0,2.253,10Z" transform="translate(-115.188 -128.702)" fill="#aadde7" stroke="#12263f" stroke-width="1" fill-rule="evenodd"/>
            <path id="Trazado_820919" data-name="Trazado 820919" d="M131.421,250.3a52.809,52.809,0,0,1,8.166,7.18c10.63,11.4,16.4,27.736,14.853,46.179a78.172,78.172,0,0,1-17.176,42.166l-.563-.422a77.132,77.132,0,0,0,16.965-41.674c1.549-18.3-4.153-34.353-14.642-45.686A51.342,51.342,0,0,0,131,251l.422-.7Zm-3.027,5.7-.352.7a51.734,51.734,0,0,1,6.547,5.843c9.5,10.278,14.712,24.92,13.3,41.462a69.936,69.936,0,0,1-15.416,37.8l.563.422a71.421,71.421,0,0,0,15.628-38.295c1.408-16.824-3.872-31.607-13.516-42.026A59.769,59.769,0,0,0,128.394,256Zm-3.027,5.7-.352.7a39.681,39.681,0,0,1,5.068,4.646c8.588,9.222,13.234,22.385,11.967,37.309a63.1,63.1,0,0,1-13.8,34l.563.422a63.818,63.818,0,0,0,14.009-34.493c1.267-15.135-3.449-28.51-12.108-37.8a57.66,57.66,0,0,0-5.35-4.787Zm-3.027,5.772-.352.7a33.74,33.74,0,0,1,3.661,3.449c7.6,8.166,11.756,19.851,10.63,33.085a55.8,55.8,0,0,1-12.249,30.2l.563.422a56.843,56.843,0,0,0,12.46-30.622c1.126-13.445-3.1-25.342-10.77-33.649-1.267-1.267-2.6-2.464-3.942-3.59Zm-3.027,5.772-.422.7c.774.7,1.549,1.408,2.253,2.182,6.617,7.18,10.278,17.387,9.292,28.932a49.6,49.6,0,0,1-10.7,26.328l.563.422A50.091,50.091,0,0,0,131.21,305c.986-11.756-2.675-22.174-9.433-29.5-.845-.7-1.619-1.478-2.464-2.253Zm-3.1,5.843,1.056,1.056c5.772,6.265,8.94,15.135,8.1,25.272A42.794,42.794,0,0,1,116,328.438l-.563-.422a41.852,41.852,0,0,0,9.151-22.526c.845-9.926-2.253-18.655-7.955-24.709l-.845-.845.422-.845Zm-3.1,5.913c4.646,5.209,7.11,12.46,6.476,20.766a35.514,35.514,0,0,1-7.743,19.147l-.563-.422a34.473,34.473,0,0,0,7.532-18.655c.634-7.955-1.689-14.994-6.124-19.992l.422-.845Zm-3.238,6.124-.422.774a21.163,21.163,0,0,1,3.52,14.22,28.281,28.281,0,0,1-5.984,14.853l.563.422a28.764,28.764,0,0,0,6.195-15.346,22.108,22.108,0,0,0-3.872-14.924Zm-3.449,6.476a17.127,17.127,0,0,1,1.478,8.8,21.244,21.244,0,0,1-4.646,11.474l-.563-.422a20.525,20.525,0,0,0,4.435-10.982,17.238,17.238,0,0,0-1.2-7.955Z" transform="translate(-98.876 -105.417)" fill="#aadde7" stroke="#12263f" stroke-width="1" fill-rule="evenodd"/>
          </g>
          <path id="Trazado_820922" data-name="Trazado 820922" d="M208.776,42.715c-1.619-.7-3.872.493-5,2.534L150.137,147.039q-26.82,50.9-53.641,101.72c-1.126,2.112-.915,4.787.493,5.913q19.112,15.733,39.773,32.8,21.541,17.739,44.982,37.1c1.83,1.478,4.294.7,5.561-1.689q30.622-57.97,61.173-116.081Q279.1,148.729,309.721,90.724c1.267-2.393.563-5.139-1.549-5.984C302.4,82.276,296.628,79.883,291,77.49q-8.342-3.59-16.472-6.969c-6.476-2.745-12.741-5.42-19.007-8.025-6.124-2.6-12.178-5.139-18.162-7.673-4.928-2.041-9.714-4.153-14.5-6.124-4.787-2.041-9.5-4.013-14.079-5.984ZM271.92,75.237c.563-1.126,1.126-2.182,1.76-3.309,5.42,2.323,10.911,4.646,16.472,7.039,5.632,2.393,11.4,4.857,17.176,7.321,1.408.563,1.83,2.393,1.056,3.942q-30.516,57.97-61.1,115.94-30.516,57.97-61.1,115.869c-.845,1.549-2.464,2.041-3.661,1.126q-23.441-19.323-45.053-36.957-20.7-17-39.773-32.733a3.325,3.325,0,0,1-.352-3.872q26.926-50.9,53.711-101.861,26.82-50.9,53.781-101.931c.7-1.408,2.182-2.182,3.309-1.689q6.863,2.957,13.938,5.913c4.787,2.041,9.574,4.083,14.5,6.195L234.892,59.4l-.422.845c-.845,1.619-.493,3.449.845,4.012,5.139,2.253,10.348,4.505,15.628,6.828,5.35,2.323,10.77,4.716,16.261,7.11,1.408.634,3.379-.282,4.294-1.971C271.638,75.871,271.779,75.589,271.92,75.237Z" transform="translate(-92.264 -38.298)" fill="#24273a" fill-rule="evenodd"/>
          <path id="Trazado_820923" data-name="Trazado 820923" d="M304.212,67.756a1.7,1.7,0,0,1,.493,2.393,1.912,1.912,0,0,1-2.323,1.126,1.632,1.632,0,0,1-.493-2.323,1.96,1.96,0,0,1,2.323-1.2Zm6.828,2.886c2.675,1.126,5.42,2.323,8.166,3.449a1.735,1.735,0,0,1,.563,2.464h0a2.123,2.123,0,0,1-2.464,1.2c-2.745-1.2-5.42-2.323-8.1-3.52a1.735,1.735,0,0,1-.563-2.464h0a2.037,2.037,0,0,1,2.393-1.126Zm15.135,6.476a1.735,1.735,0,0,1,.563,2.464,2.045,2.045,0,0,1-2.464,1.126,1.735,1.735,0,0,1-.563-2.464A2.045,2.045,0,0,1,326.175,77.118Z" transform="translate(-153.206 -45.74)" fill="#666" fill-rule="evenodd"/>
          <path id="Trazado_820924" data-name="Trazado 820924" d="M168.353,336.935c3.309,2.534,6.687,5.139,10.066,7.743a3.731,3.731,0,0,1,.563,4.505c-2.464,4.716-4.928,9.362-7.391,14.079-.845,1.619-2.464,2.112-3.59,1.2l-9.926-8.025a3.639,3.639,0,0,1-.493-4.435c2.393-4.576,4.857-9.151,7.251-13.8C165.678,336.653,167.227,336.09,168.353,336.935Z" transform="translate(-110.41 -125.347)" fill="#e5e5e5" fill-rule="evenodd"/>
          <path id="Trazado_820925" data-name="Trazado 820925" d="M344.776,103.91c-19.077-8.518-37.239-16.684-54.7-24.5C273.4,71.951,257.416,64.77,242,57.872c2.041-3.8,4.083-7.673,6.054-11.545.7-1.408,2.182-2.182,3.309-1.689q6.863,2.957,13.938,5.913c4.787,2.041,9.574,4.083,14.5,6.195l-1.69,3.168c-.845,1.619-.493,3.449.845,4.012,5.139,2.253,10.348,4.505,15.628,6.828,5.35,2.323,10.77,4.716,16.332,7.11,1.408.634,3.379-.282,4.294-1.971.563-1.126,1.126-2.182,1.76-3.309,5.42,2.323,10.911,4.646,16.472,7.039,5.632,2.393,11.4,4.857,17.176,7.321,1.408.563,1.83,2.393,1.056,3.942C349.352,95.181,347.029,99.545,344.776,103.91Z" transform="translate(-135.554 -38.883)" fill="#cbcbcb" fill-rule="evenodd"/>
          <g id="Grupo_1073273" data-name="Grupo 1073273" transform="translate(47.984 15.75)">
            <path id="Trazado_820926" data-name="Trazado 820926" d="M168.066,342.185c.422.352.845.634,1.267.986a1.123,1.123,0,0,1,.141,1.267c-.352.634-.634,1.2-.915,1.76a.7.7,0,0,1-.986.352,15.458,15.458,0,0,0-1.267-.986,1.05,1.05,0,0,1-.141-1.2c.282-.563.634-1.2.915-1.76.282-.493.7-.634.986-.422Zm3.238,2.534a.686.686,0,0,0-.986.352c-.352.634-.634,1.2-.915,1.83-.211.422-.211.986.141,1.2.422.352.845.634,1.267.986.282.282.774.07.986-.352.282-.563.634-1.2.986-1.83a1.165,1.165,0,0,0-.141-1.267c-.493-.282-.915-.634-1.337-.915Zm3.238,2.464c.422.352.845.7,1.337,1.056a1.123,1.123,0,0,1,.141,1.267c-.352.634-.634,1.2-.986,1.83-.211.422-.7.634-.986.352-.422-.352-.915-.7-1.338-1.056a1.145,1.145,0,0,1-.141-1.267c.282-.563.634-1.2.986-1.83a.686.686,0,0,1,.986-.352Zm-2.323,4.435a.7.7,0,0,0-.986.352c-.352.634-.634,1.2-.986,1.83a1.031,1.031,0,0,0,.141,1.2c.422.352.845.7,1.338,1.056.282.282.774.07.986-.352.282-.563.634-1.2.986-1.83a1.165,1.165,0,0,0-.141-1.267c-.493-.352-.915-.7-1.337-.986Zm-3.238-2.534c.422.352.845.634,1.267.986a1.145,1.145,0,0,1,.141,1.267c-.352.634-.634,1.2-.986,1.83a.686.686,0,0,1-.986.352c-.422-.352-.845-.634-1.267-.986-.352-.211-.352-.774-.141-1.2.282-.563.634-1.2.915-1.83.282-.493.7-.634,1.056-.422Zm-3.168-2.534a.7.7,0,0,0-.986.352c-.352.634-.634,1.2-.915,1.76a1.031,1.031,0,0,0,.141,1.2,15.46,15.46,0,0,0,1.267.986c.282.282.774.07.986-.352.282-.563.634-1.2.915-1.76a1.165,1.165,0,0,0-.141-1.267,7.146,7.146,0,0,1-1.267-.915Zm-2.323,4.364a15.458,15.458,0,0,0,1.267.986,1.05,1.05,0,0,1,.141,1.2c-.352.634-.634,1.2-.915,1.76a.623.623,0,0,1-.986.282,15.469,15.469,0,0,0-1.267-.986,1.031,1.031,0,0,1-.141-1.2c.282-.563.634-1.2.915-1.76.211-.352.7-.563.986-.282Zm3.168,2.534a.686.686,0,0,0-.986.352c-.352.634-.634,1.2-.915,1.83a1.031,1.031,0,0,0,.141,1.2l1.267,1.056c.282.282.774.07.986-.352.282-.563.634-1.2.986-1.83a1.031,1.031,0,0,0-.141-1.2c-.493-.422-.915-.7-1.337-1.056Zm3.238,2.534c.422.352.845.7,1.337,1.056a1.05,1.05,0,0,1,.141,1.2c-.352.634-.634,1.2-.986,1.83a.7.7,0,0,1-.986.352c-.422-.352-.845-.7-1.337-1.056a1.123,1.123,0,0,1-.141-1.267c.282-.563.634-1.2.986-1.83.211-.352.7-.563.986-.282Zm-1.689-16.965c-.563-.422-1.338-.141-1.76.634-2.464,4.576-4.857,9.222-7.251,13.8a1.866,1.866,0,0,0,.282,2.253c3.309,2.675,6.547,5.28,9.926,8.025a1.231,1.231,0,0,0,1.83-.634c2.464-4.646,4.928-9.362,7.391-14.079a1.866,1.866,0,0,0-.282-2.253C174.824,344.156,171.516,341.552,168.207,339.018Z" transform="translate(-158.951 -141.772)" fill="#e5e5e5" fill-rule="evenodd"/>
            <path id="Trazado_820927" data-name="Trazado 820927" d="M178.446,330.9a1.881,1.881,0,0,1,.282,2.393,1.341,1.341,0,0,1-1.971.7,1.881,1.881,0,0,1-.282-2.393c.493-.915,1.338-1.2,1.971-.7Zm3.309,2.464a1.881,1.881,0,0,1,.282,2.393,1.341,1.341,0,0,1-1.971.7,1.98,1.98,0,0,1-.352-2.393c.563-.845,1.408-1.2,2.041-.7Zm3.379,2.534a2.066,2.066,0,0,1,.352,2.464c-.493.845-1.337,1.2-1.971.7a1.965,1.965,0,0,1-.282-2.464C183.656,335.686,184.5,335.4,185.134,335.9Z" transform="translate(-164.052 -139.355)" fill="#e5e5e5" fill-rule="evenodd"/>
            <path id="Trazado_820928" data-name="Trazado 820928" d="M302.831,111.154c-.211-.07-.211-.352-.141-.493,2.393-7.884-5.984-10.559-9.362-5.843-.141.211-.282.211-.422.07a2.2,2.2,0,0,0-.845-.493c-1.478-.422-3.027.845-3.379,2.675-.07.141-.07.211-.141.211a2.647,2.647,0,0,0-1.267,1.126,2.177,2.177,0,0,0,.422,2.745c4.435,2.112,8.87,4.224,13.445,6.336.352.141.845.493,1.83-.563,3.238-3.168.774-5.632-.141-5.772Zm3.027-5.42c1.126.915.986,4.787.141,5.984s-.493.563-.774.845h0a3.729,3.729,0,0,0-1.689-2.041,8.343,8.343,0,0,0-.141-5.28,2.057,2.057,0,0,1,2.464.493Zm-.986-3.238h0c.141,0,.282.141.211.282-.07.422-.211.845-.282,1.267,0,.141-.211.282-.352.282h0c-.141,0-.282-.141-.211-.282.07-.422.211-.845.282-1.267a.468.468,0,0,1,.352-.282Zm2.816,1.126c-.141-.07-.282-.07-.422.141a10.077,10.077,0,0,0-.774,1.056.318.318,0,0,0,0,.422h0c.141.07.282,0,.422-.141.282-.352.493-.7.774-1.056a.443.443,0,0,0,0-.422Zm1.549,2.745h0c.07.141-.07.352-.211.422-.352.211-.774.422-1.126.634a.257.257,0,0,1-.352-.141h0c-.07-.141.07-.352.211-.422.352-.211.7-.422,1.126-.634.211-.07.352,0,.352.141Zm0,3.52h0a.468.468,0,0,1-.352.282h-1.126c-.141,0-.211-.141-.211-.352h0c0-.141.211-.282.352-.282h1.126c.141,0,.211.141.211.352Zm-1.689,3.379h0c-.141.141-.282.211-.422.141l-.845-.634c-.141-.07-.07-.282,0-.422h0c.07-.141.282-.211.352-.07l.845.634A.245.245,0,0,1,307.548,113.266Z" transform="translate(-196.853 -71.804)" fill="#fff" fill-rule="evenodd"/>
            <path id="Trazado_820929" data-name="Trazado 820929" d="M367.5,104.181c2.957,1.267,5.984,2.6,8.94,3.872a.446.446,0,0,1,.352.422.994.994,0,0,1-.07.634c-.211.422-.422.774-.634,1.2.141.07.352.141.493.211a.312.312,0,0,1,.141.493c-.352.7-.774,1.408-1.126,2.112a.517.517,0,0,1-.563.282,3.431,3.431,0,0,1-.493-.211c-.211.422-.422.774-.634,1.126a1.109,1.109,0,0,1-.493.493.977.977,0,0,1-.634,0c-2.957-1.338-5.984-2.6-8.94-3.942-.211-.07-.282-.282-.352-.422a.994.994,0,0,1,.07-.634c.915-1.689,1.83-3.449,2.675-5.139a.744.744,0,0,1,.493-.422,1.035,1.035,0,0,1,.774-.07Zm8.518,4.646c-3.027-1.267-5.984-2.6-8.94-3.872h-.07c-.915,1.689-1.83,3.449-2.675,5.139h0c2.957,1.338,5.913,2.6,8.94,3.942h0c.986-1.689,1.9-3.449,2.745-5.209Zm-6.828-2.534c-.774,1.549-1.619,3.027-2.393,4.505,2.041.915,4.153,1.83,6.265,2.745.774-1.478,1.619-3.027,2.393-4.576C373.343,108.123,371.3,107.208,369.19,106.292Z" transform="translate(-219.496 -72.292)" fill="#fff" fill-rule="evenodd"/>
            <path id="Trazado_820930" data-name="Trazado 820930" d="M252.086,61.786l1.478.634c-.352.634-.7,1.267-.986,1.9l-1.478-.634c.282-.634.634-1.267.986-1.9Zm3.8,1.689c.352-.634.7-1.337,1.056-1.971-.493-.211-.986-.422-1.549-.634-.352.634-.7,1.337-1.056,1.971s-.7,1.267-.986,1.9a14.071,14.071,0,0,1,1.478.7c.352-.7.7-1.337,1.056-1.971Zm2.253.986c-.352.634-.7,1.267-.986,1.9-.493-.211-.986-.422-1.549-.7.352-.634.7-1.267.986-1.9.352-.634.7-1.338,1.056-1.971s.7-1.267.986-1.9c.493.211.986.422,1.549.634-.352.634-.7,1.267-.986,1.9-.352.7-.7,1.408-1.056,2.041Zm2.323.986c.352-.634.7-1.337,1.056-1.971s.7-1.267,1.056-1.971c.352-.634.7-1.267,1.056-1.971-.493-.211-1.056-.422-1.549-.634l-1.056,1.9a17.155,17.155,0,0,0-.986,1.971c-.352.634-.7,1.338-1.056,1.971l-1.056,1.9a15.057,15.057,0,0,1,1.549.7C259.759,66.784,260.111,66.151,260.462,65.447Z" transform="translate(-186.232 -58.9)" fill="#fff" fill-rule="evenodd"/>
            <path id="Trazado_820931" data-name="Trazado 820931" d="M273.42,63.5a4.565,4.565,0,0,1,2.6,3.449,7.494,7.494,0,0,1-.915,5.209c-.282-.141-.493-.211-.774-.352a6.822,6.822,0,0,0,.774-4.435,3.987,3.987,0,0,0-2.182-2.957,5.812,5.812,0,0,1,.493-.915Zm-.915,1.76c-.141.352-.352.634-.493.986a2.553,2.553,0,0,1,1.478,1.971h0A4.988,4.988,0,0,1,273,71.173c.282.141.493.211.774.352a5.772,5.772,0,0,0,.7-3.8h0A3.722,3.722,0,0,0,272.5,65.26Zm-.986,1.76a1.869,1.869,0,0,1,1.126,1.549h0a3.524,3.524,0,0,1-.422,2.323c-.282-.141-.493-.211-.774-.352a2.322,2.322,0,0,0,.282-1.478h0a1.246,1.246,0,0,0-.774-.986,7.693,7.693,0,0,0,.563-1.056Zm-1.056,2.041a.771.771,0,0,1,.211,1.126.984.984,0,0,1-1.126.563.771.771,0,0,1-.211-1.126C269.619,69.132,270.111,68.85,270.463,69.061Z" transform="translate(-191.587 -60.262)" fill="#fff" fill-rule="evenodd"/>
          </g>
          <g id="Grupo_1073274" data-name="Grupo 1073274" transform="translate(6.06 7.337)">
            <path id="Trazado_820932" data-name="Trazado 820932" d="M171,367.654c5.561,4.505,11.193,9.151,16.895,13.868,5.843,4.787,11.756,9.644,17.739,14.5a.836.836,0,0,0,1.267-.352c8.8-16.684,17.6-33.437,26.4-50.121s17.6-33.437,26.4-50.121c-.07-.07-.211-.141-.282-.211a1.445,1.445,0,0,0-2.041.7Q244.7,320,232.032,344c-8.447,16.05-16.895,32.03-25.342,48.08-.422.845-1.337,1.126-1.9.563-5.491-4.505-10.982-8.94-16.332-13.3-5.28-4.294-10.489-8.518-15.557-12.671-.563-.493-1.408-.211-1.83.634A.31.31,0,0,1,171,367.654Z" transform="translate(-120.594 -120.392)" fill="#fff" fill-rule="evenodd"/>
            <path id="Trazado_820933" data-name="Trazado 820933" d="M146.141,212.3q-11.721,22.174-23.3,44.208-11.721,22.174-23.3,44.208c-.211.493-.211,1.126.141,1.337,4.787,3.872,9.644,7.884,14.572,11.9q7.5,6.124,15.205,12.46c.07-.141.141-.211.211-.352a1.862,1.862,0,0,0-.211-2.182c-4.716-3.872-9.433-7.673-14.009-11.4-4.505-3.661-9.011-7.321-13.375-10.911a1.772,1.772,0,0,1-.211-2.041q11.193-21.224,22.456-42.589c7.462-14.149,14.994-28.369,22.456-42.589a1.555,1.555,0,0,0-.282-1.971A1.431,1.431,0,0,1,146.141,212.3Z" transform="translate(-99.395 -95.901)" fill="#fff" fill-rule="evenodd"/>
            <path id="Trazado_820934" data-name="Trazado 820934" d="M265.464,68.1c-1.337-.563-2.6-1.126-3.942-1.689-2.112-.915-2.675-3.8-1.337-6.406v-.07a1.363,1.363,0,0,0-.352-1.9c-4.435-1.9-8.87-3.8-13.164-5.632s-8.518-3.661-12.741-5.42a1.035,1.035,0,0,0-1.126.563c-7.814,14.783-15.557,29.566-23.3,44.208-7.743,14.712-15.557,29.5-23.3,44.208.07.07.141.07.211.141a1.33,1.33,0,0,0,1.689-.7c7.462-14.22,14.994-28.369,22.456-42.589,7.462-14.149,14.994-28.369,22.456-42.589a1.556,1.556,0,0,1,1.76-.915c7.532,3.238,15.135,6.547,22.949,9.926a1.1,1.1,0,0,1,.493,1.549c-.986,3.1-.07,6.195,2.393,7.251.915.422,1.83.845,2.745,1.2a1.608,1.608,0,0,0,1.9-.915C265.324,68.385,265.394,68.244,265.464,68.1Z" transform="translate(-125.094 -46.948)" fill="#fff" fill-rule="evenodd"/>
            <path id="Trazado_820935" data-name="Trazado 820935" d="M339.289,89.463h0c-1.478,2.745-4.505,4.153-6.828,3.168-1.408-.634-2.816-1.2-4.224-1.83-.07.141-.141.211-.141.352a1.4,1.4,0,0,0,.422,1.971c.986.422,1.971.845,3.027,1.337,2.675,1.2,6.195-.07,8.377-2.886a1.539,1.539,0,0,1,1.83-.634c8.87,3.872,18.021,7.743,27.313,11.756a1.447,1.447,0,0,1,.493,2.112c-8.588,16.261-17.176,32.593-25.764,48.854s-17.176,32.522-25.694,48.783a.534.534,0,0,0,.282.141,1.474,1.474,0,0,0,2.041-.774c8.659-16.472,17.387-32.945,26.046-49.347,8.659-16.472,17.387-32.945,26.046-49.417a.915.915,0,0,0-.352-1.338c-5.28-2.253-10.559-4.505-15.768-6.758-5.068-2.182-10.137-4.364-15.135-6.476A1.832,1.832,0,0,0,339.289,89.463Z" transform="translate(-164.144 -59.227)" fill="#fff" fill-rule="evenodd"/>
          </g>
        </g>
        <g id="Grupo_1073285" data-name="Grupo 1073285" transform="translate(40.143 91.625)">
          <g id="Grupo_1073276" data-name="Grupo 1073276" transform="translate(56.203 13.486)">
            <path id="Trazado_820936" data-name="Trazado 820936" d="M241.343,186.024c5.28,2.957,10.63,5.984,16.12,9.011a2.3,2.3,0,0,1,.563,3.027c-3.661,6.969-7.321,13.938-10.982,20.837-.634,1.2-1.83,1.689-2.745,1.126-5.35-3.238-10.63-6.406-15.839-9.574a2.367,2.367,0,0,1-.493-3.027c3.59-6.758,7.11-13.516,10.7-20.274C239.3,186.095,240.5,185.531,241.343,186.024Z" transform="translate(-227.654 -185.844)" fill="#33cb98" fill-rule="evenodd"/>
            <path id="Trazado_820937" data-name="Trazado 820937" d="M243.89,212.962c-.845.915-1.689,1.83-2.6,2.745-.211.211-.422.282-.563.141a.51.51,0,0,1-.141-.563l1.056-3.59c-1.83-1.056-3.59-2.112-5.35-3.1-1.126-.634-1.337-2.534-.352-4.153,1.83-3.168,3.59-6.335,5.42-9.5.915-1.619,2.675-2.464,3.8-1.83,3.238,1.689,6.547,3.449,9.926,5.209,1.267.634,1.478,2.6.493,4.294-1.9,3.309-3.731,6.617-5.632,9.855-.986,1.689-2.745,2.534-3.942,1.83-.7-.493-1.408-.915-2.112-1.337Zm-1.056-13.586c-.7-.422-1.83.141-2.393,1.126s-.493,2.182.282,2.6c.7.422,1.83-.07,2.393-1.126a1.961,1.961,0,0,0-.282-2.6Zm3.872,2.182c-.774-.422-1.83.07-2.393,1.126s-.493,2.253.282,2.675,1.83-.07,2.464-1.126c.493-1.126.422-2.323-.352-2.675Zm3.942,2.112a1.96,1.96,0,0,0-2.464,1.126c-.634,1.056-.493,2.253.282,2.675a1.96,1.96,0,0,0,2.464-1.126C251.563,205.289,251.422,204.093,250.648,203.67Z" transform="translate(-229.919 -187.933)" fill="#fdfdfd" fill-rule="evenodd"/>
          </g>
          <g id="Grupo_1073277" data-name="Grupo 1073277" transform="translate(81.377 27.907)">
            <path id="Trazado_820938" data-name="Trazado 820938" d="M277.694,206.52c5.632,3.168,11.4,6.406,17.176,9.644a2.346,2.346,0,0,1,.634,3.168c-3.8,7.18-7.6,14.431-11.334,21.611a2.155,2.155,0,0,1-2.957,1.126c-5.7-3.449-11.334-6.828-16.895-10.207a2.406,2.406,0,0,1-.563-3.168c3.661-6.969,7.391-14.008,11.052-21.048A2.3,2.3,0,0,1,277.694,206.52Z" transform="translate(-263.415 -206.329)" fill="#a8bab9" fill-rule="evenodd"/>
            <path id="Trazado_820939" data-name="Trazado 820939" d="M276.872,216.019c4.646,2.6,9.433,5.28,14.361,8.1a1.15,1.15,0,0,1,.282,1.478l-6.758,12.671a.959.959,0,0,1-1.338.493c-4.787-2.957-9.5-5.843-14.079-8.659a1.063,1.063,0,0,1-.211-1.408c2.182-4.083,4.294-8.1,6.476-12.178a1,1,0,0,1,1.267-.493Zm7.814,5.7c-2.816-1.549-6.476-.07-8.307,3.379s-1.126,7.462,1.619,9.151,6.547.211,8.447-3.309,1.056-7.673-1.76-9.222Zm-6.617-6.124,3.379,1.9c.211-.422.493-.845.7-1.337a1.468,1.468,0,0,0-.352-1.9c-.422-.211-.845-.493-1.338-.7a1.385,1.385,0,0,0-1.76.774,10.632,10.632,0,0,1-.634,1.267Zm7.673.845a1.1,1.1,0,0,0-1.478.634c-.282.493-.563.986-.845,1.549,2.253,1.267,4.576,2.534,6.828,3.8.282-.493.563-1.056.845-1.549a1.123,1.123,0,0,0-.352-1.619c-1.619-.986-3.309-1.9-5-2.816Zm-1.76,6.547c-2.182-1.267-5.139-.07-6.547,2.675-1.408,2.675-.915,5.984,1.267,7.251,2.182,1.337,5.209.141,6.688-2.6s.845-6.054-1.408-7.321Zm-.845,1.689c-1.478-.845-3.379-.07-4.364,1.76s-.563,3.942.845,4.787,3.449.07,4.364-1.76C284.968,227.7,284.545,225.522,283.137,224.677Z" transform="translate(-265.056 -208.437)" fill="#fdfdfd" fill-rule="evenodd"/>
          </g>
          <g id="Grupo_1073278" data-name="Grupo 1073278" transform="translate(64.037 60.879)">
            <path id="Trazado_820940" data-name="Trazado 820940" d="M253.015,253.4c5.491,3.379,11.122,6.9,16.824,10.418a2.452,2.452,0,0,1,.634,3.238c-3.8,7.18-7.6,14.431-11.4,21.611a2.05,2.05,0,0,1-2.886,1.056c-5.561-3.731-11.122-7.321-16.543-10.982a2.507,2.507,0,0,1-.493-3.238c3.661-6.969,7.391-14.009,11.052-21.048A2.1,2.1,0,0,1,253.015,253.4Z" transform="translate(-238.783 -253.168)" fill="#00cbff" fill-rule="evenodd"/>
            <path id="Trazado_820941" data-name="Trazado 820941" d="M254.921,262.641c4.012,2.323,8.1,4.716,12.319,7.11a1.9,1.9,0,0,1,.493.563c-3.52,1.267-7.039,2.464-10.418,3.731a.531.531,0,0,1-.563-.07.9.9,0,0,1-.352-.493c-.7-3.731-1.408-7.321-2.112-10.982a.947.947,0,0,1,.634.141Zm12.953,8.8c-3.59,1.267-7.039,2.534-10.559,3.731a1.731,1.731,0,0,1-1.2-.07,1.445,1.445,0,0,1-.7-1.056c-.7-3.731-1.408-7.391-2.112-11.052a2.756,2.756,0,0,0-.563.7c-2.253,4.083-4.435,8.1-6.687,12.178a1.947,1.947,0,0,0,.211,2.534c3.942,2.464,7.955,5.068,12.037,7.673a1.807,1.807,0,0,0,2.323-.986c2.323-4.224,4.646-8.447,6.9-12.671A2.1,2.1,0,0,0,267.874,271.44Z" transform="translate(-240.83 -255.93)" fill="#fdfdfd" fill-rule="evenodd"/>
          </g>
          <g id="Grupo_1073279" data-name="Grupo 1073279" transform="translate(16.261 30.862)">
            <path id="Trazado_820942" data-name="Trazado 820942" d="M184.138,210.719c4.857,2.957,9.714,5.984,14.712,9.081a2.19,2.19,0,0,1,.422,2.957c-3.52,6.758-7.11,13.445-10.63,20.2a1.878,1.878,0,0,1-2.6,1.056c-4.857-3.238-9.714-6.406-14.431-9.574a2.363,2.363,0,0,1-.352-2.957c3.449-6.547,6.9-13.164,10.418-19.71A1.857,1.857,0,0,1,184.138,210.719Z" transform="translate(-170.913 -210.527)" fill="#33cb33" fill-rule="evenodd"/>
            <path id="Trazado_820943" data-name="Trazado 820943" d="M188.657,240.29c.352-.211.7-.352,1.056-.563-.141-2.957-.282-5.843-.422-8.729-.352.211-.7.352-1.056.563-.07-1.83-.211-3.661-.282-5.42.352-.211.7-.352,1.056-.563-.141-2.816-.282-5.632-.422-8.377-.352.211-.7.352-1.056.563-4.646,2.534-3.661,24.99,1.126,22.526Zm1.619-.845c.07-.07.211-.07.282-.141a2.186,2.186,0,0,0,1.056-1.971c-.141-2.041-.211-4.012-.282-6.054-.07-.7-.563-1.056-1.2-.7a.534.534,0,0,1-.282.141c.141,2.886.282,5.772.422,8.729Zm-.7-14.22-.422-8.447c.07-.07.211-.07.282-.141.634-.352,1.126-.07,1.2.7.07,1.9.211,3.872.282,5.843a2.151,2.151,0,0,1-1.056,1.9A.366.366,0,0,1,189.572,225.225Z" transform="translate(-174.939 -212.292)" fill="#fff" fill-rule="evenodd"/>
          </g>
          <g id="Grupo_1073280" data-name="Grupo 1073280" transform="translate(0 61.722)">
            <path id="Trazado_820944" data-name="Trazado 820944" d="M161.038,254.6q7.075,4.752,14.36,9.714a2.378,2.378,0,0,1,.422,3.027c-3.52,6.688-7.11,13.445-10.63,20.133a1.789,1.789,0,0,1-2.534.986c-4.787-3.449-9.5-6.828-14.149-10.207a2.465,2.465,0,0,1-.352-3.027l10.348-19.64C159.137,254.531,160.193,254.038,161.038,254.6Z" transform="translate(-147.813 -254.365)" fill="#f06" fill-rule="evenodd"/>
            <path id="Trazado_820945" data-name="Trazado 820945" d="M158.205,284.588c2.323.563,4.646,1.2,7.039,1.76.422.141.986-.352,1.267-.986,1.337-3.449,2.675-6.969,4.012-10.418.211-.634.141-1.267-.211-1.478-.141-.07-.211-.141-.352-.211a9.6,9.6,0,0,0,1.267-5.068,2.105,2.105,0,0,0-.7-1.478,1.513,1.513,0,0,0-1.549,0,5.426,5.426,0,0,0-.915.634v-.352a2.105,2.105,0,0,0-.7-1.478,1.393,1.393,0,0,0-1.478,0,8.514,8.514,0,0,0-2.886,3.027.246.246,0,0,1-.07.141c0,.07,0,.07.07.141s.141.07.211.141a.259.259,0,0,0,.211-.07,6.751,6.751,0,0,1,2.464-2.6.943.943,0,0,1,1.056,0,1.54,1.54,0,0,1,.493,1.126v.493a14.716,14.716,0,0,0-1.971,2.816c-.352-.211-.774-.422-1.126-.634-.211-.141-.422-.07-.7.07a1.721,1.721,0,0,0-.634.774l-5.068,12.037a1.688,1.688,0,0,0-.141.986.638.638,0,0,0,.422.634ZM169.4,272.973c-1.2-.634-2.393-1.338-3.52-1.971a20.679,20.679,0,0,1,1.337-2.041,10.1,10.1,0,0,1-.563,1.76c-.07.141,0,.211.07.282s.141.07.211.141h.141c.07,0,.07-.07.07-.141a10.293,10.293,0,0,0,.774-2.745,2.862,2.862,0,0,1,.986-.7,1.073,1.073,0,0,1,1.126,0,1.319,1.319,0,0,1,.493,1.126,8.168,8.168,0,0,1-1.126,4.294Zm-4.646.211c.141-.352.282-.634.422-.986a1.272,1.272,0,0,1-.141,1.2c-.282.493-.845.845-1.126.563-.352-.211-.282-.986-.07-1.408a1.032,1.032,0,0,1,.845-.634c-.141.352-.352.634-.493.986-.07.211-.07.422.07.493a.324.324,0,0,0,.493-.211Zm4.576,1.2a1.138,1.138,0,0,1-.141.915c-.211.422-.7.7-.986.493s-.282-.845-.07-1.267.563-.634.845-.563c-.141.211-.282.493-.422.7s-.141.493,0,.563c.141.141.282.07.422-.141a2.2,2.2,0,0,1,.352-.7Zm-12.108,9.362a.151.151,0,0,1-.141.141h-.141c-.563-.774-1.126-1.619-1.689-2.393h0c-.563-.563-1.056-1.126-1.549-1.689h0c2.323-3.52,4.646-7.11,6.969-10.7.07-.07.141-.141.141-.07.211.07,1.971.845,2.041.915a.132.132,0,0,1,0,.211C161.091,274.663,159.12,279.238,157.22,283.743Z" transform="translate(-149.556 -257.603)" fill="#fff" fill-rule="evenodd"/>
          </g>
          <g id="Grupo_1073281" data-name="Grupo 1073281" transform="translate(22.601 77.279)">
            <path id="Trazado_820946" data-name="Trazado 820946" d="M193.562,276.7c5.068,3.449,10.207,6.828,15.416,10.348a2.584,2.584,0,0,1,.493,3.168c-3.661,6.969-7.321,13.938-10.982,20.837-.634,1.126-1.83,1.619-2.675.986-5.139-3.731-10.137-7.321-15.135-10.911-.845-.563-.986-2.041-.422-3.168,3.59-6.758,7.18-13.516,10.7-20.274A1.9,1.9,0,0,1,193.562,276.7Z" transform="translate(-179.92 -276.465)" fill="#92e105" fill-rule="evenodd"/>
            <path id="Trazado_820947" data-name="Trazado 820947" d="M204.739,300.584a17.528,17.528,0,0,1-2.112,3.027,5.191,5.191,0,0,1-2.253,1.549,2.163,2.163,0,0,1-1.971-.282,2.372,2.372,0,0,1-.774-1.2,3.153,3.153,0,0,1,0-1.619c-.07,0-.07-.07-.141-.07a2.528,2.528,0,0,1-2.957,0,3.358,3.358,0,0,1-1.337-2.886,8.126,8.126,0,0,1,1.2-4.083,7.545,7.545,0,0,1,3.238-3.379,3.353,3.353,0,0,1,3.52.352,7.383,7.383,0,0,1,1.337,1.267,8.122,8.122,0,0,1,1.056,1.408c-1.126,1.971-2.323,3.942-3.449,5.913-.634,1.126-.774,1.83-.352,2.112.352.211.774.07,1.408-.563a12.75,12.75,0,0,0,1.971-2.816,12.945,12.945,0,0,0,1.408-3.872,6.681,6.681,0,0,0-.211-3.379,4.77,4.77,0,0,0-1.689-2.323,4.622,4.622,0,0,0-3.238-.845,5.989,5.989,0,0,0-3.309,1.689,15.15,15.15,0,0,0-2.957,3.942,11.55,11.55,0,0,0-1.689,5.913,5.268,5.268,0,0,0,2.182,4.224,6.091,6.091,0,0,0,1.9,1.056,14.254,14.254,0,0,0,2.323.634c-.422.774-.845,1.549-1.267,2.393a7.3,7.3,0,0,1-4.153-1.619,7.511,7.511,0,0,1-3.027-5.772,14.56,14.56,0,0,1,2.112-7.814,16.4,16.4,0,0,1,3.731-4.787,8.836,8.836,0,0,1,4.364-2.182,5.911,5.911,0,0,1,4.294,1.056,6.38,6.38,0,0,1,2.464,3.238,9.259,9.259,0,0,1,.352,4.646,22.007,22.007,0,0,1-1.971,5.068Zm-8.729-4.224c-.915,1.689-.986,2.886-.141,3.52a1.163,1.163,0,0,0,1.478,0,7.823,7.823,0,0,0,1.83-2.182c.563-.845,1.056-1.76,1.549-2.6a4.035,4.035,0,0,0-.774-.774,1.7,1.7,0,0,0-1.971-.141A5.521,5.521,0,0,0,196.01,296.36Z" transform="translate(-182.719 -279.441)" fill="#fff" fill-rule="evenodd"/>
          </g>
          <g id="Grupo_1073282" data-name="Grupo 1073282" transform="translate(46.61 93.879)">
            <path id="Trazado_820948" data-name="Trazado 820948" d="M228.227,300.3c5.42,3.661,10.841,7.391,16.4,11.122a2.531,2.531,0,0,1,.563,3.309c-3.8,7.18-7.6,14.431-11.4,21.611-.634,1.2-1.9,1.689-2.816.986-5.491-3.942-10.841-7.814-16.12-11.686a2.693,2.693,0,0,1-.493-3.309c3.661-6.969,7.391-14.009,11.052-21.048A2.1,2.1,0,0,1,228.227,300.3Z" transform="translate(-214.026 -300.047)" fill="#f60" fill-rule="evenodd"/>
            <path id="Trazado_820949" data-name="Trazado 820949" d="M230.587,310.975c1.056.211.7,2.112.282,3.872s-.774,3.238-1.83,3.027-2.112-2.253-1.76-4.083c.422-1.689,2.253-3.027,3.309-2.816Zm6.687,5.068c-2.886,3.309-2.957,2.745-3.661,1.549a6.133,6.133,0,0,1,.352-5.7c2.182-2.745,6.124.845,3.309,4.153Zm1.267.845c-1.267,1.619-3.238,4.716-1.9,6.195.915,1.056,2.6-.07,3.8-1.056,3.168-2.675-.211-7.251-1.9-5.139Zm-3.449,11.263c-.774-2.323-.211-2.957.211-4.716.774-2.745-2.182-6.336-4.505-4.153-.774.7-1.408,1.619-2.6,1.126a1.629,1.629,0,0,0-1.76.141c-1.549,1.056-3.168,4.224-3.238,6.617-.141,2.253,1.267,4.153,4.224,2.393,1.126-.634,1.337.352,1.267.7,0,4.716,2.393,5.139,4.294,3.52,1.689-1.478,2.675-3.731,2.112-5.632Zm3.168-3.59c1.126-1.478,4.012.07,2.112,2.534a2.375,2.375,0,0,1-3.1.211C236.712,326.743,237.2,326.039,238.26,324.561Z" transform="translate(-216.738 -303.265)" fill="#fff" fill-rule="evenodd"/>
          </g>
          <g id="Grupo_1073283" data-name="Grupo 1073283" transform="translate(39.254 45.392)">
            <path id="Trazado_820950" data-name="Trazado 820950" d="M217.39,231.4c5.139,3.168,10.418,6.406,15.7,9.714a2.322,2.322,0,0,1,.493,3.1c-3.661,6.969-7.321,13.938-10.982,20.837a2.024,2.024,0,0,1-2.745,1.056c-5.209-3.449-10.418-6.828-15.487-10.207a2.391,2.391,0,0,1-.422-3.1c3.59-6.758,7.18-13.586,10.7-20.344C215.349,231.331,216.546,230.838,217.39,231.4Z" transform="translate(-203.577 -231.168)" fill="#980098" fill-rule="evenodd"/>
            <path id="Trazado_820951" data-name="Trazado 820951" d="M221.326,253.688c-.422-.352-.915-.7-1.408-1.056a10.6,10.6,0,0,0-1.549-.774,2.4,2.4,0,0,0-2.182.141c-.845.422-1.619.915-2.464,1.337-2.464,1.337-3.59-.634-2.182-3.027l2.534-4.224a8.012,8.012,0,0,1,3.59-3.59,8.529,8.529,0,0,1,7.321.845,9.508,9.508,0,0,1,4.646,6.195,8.6,8.6,0,0,1-1.056,5.068c-.774,1.619-1.549,3.168-2.393,4.787-1.338,2.675-3.661,2.464-3.731-.634-.07-.986-.07-1.971-.141-3.027a2.979,2.979,0,0,0-.986-2.041Zm-4.505-8.659a.374.374,0,0,0-.493.282,7.7,7.7,0,0,0-.563,1.056.445.445,0,0,0,.07.634c.282.211.563.352.845.563-.282.493-.493.915-.774,1.337a.445.445,0,0,0,.07.634c.211.141.493.282.7.422a.374.374,0,0,0,.493-.282,13.072,13.072,0,0,1,.774-1.338,10.419,10.419,0,0,0,.915.563.374.374,0,0,0,.493-.282c.211-.352.422-.7.634-1.126a.445.445,0,0,0-.07-.634c-.282-.211-.634-.352-.915-.563a13.077,13.077,0,0,1,.774-1.337.445.445,0,0,0-.07-.634c-.211-.141-.493-.282-.7-.422a.468.468,0,0,0-.563.282c-.282.493-.493.915-.774,1.337-.282-.141-.563-.352-.845-.493Zm4.928,2.675c-.211-.141-.493,0-.634.352-.141.282-.141.634.07.774s.493,0,.634-.352a.735.735,0,0,0-.07-.774Zm1.338.774c-.211-.141-.493,0-.634.352-.141.282-.141.634.07.774s.493,0,.634-.352a.735.735,0,0,0-.07-.774Zm2.323,2.253a.366.366,0,0,0-.141.282c0,.07,0,.211.07.211.634.352,1.267.774,1.9,1.126.07.07.141,0,.211-.07a.366.366,0,0,0,.141-.282c.07-.986.211-1.971.352-2.957a.259.259,0,0,0-.07-.211c-.07-.07-.141,0-.211,0a24.925,24.925,0,0,1-2.253,1.9Zm-1.126,2.041c-.141.986-.211,1.971-.352,2.886,0,.07,0,.211.07.211.07.07.141,0,.211,0,.774-.563,1.478-1.2,2.253-1.76a.366.366,0,0,0,.141-.282c0-.141,0-.211-.07-.211-.634-.422-1.267-.774-1.9-1.2-.07-.07-.141,0-.211.07A.366.366,0,0,0,224.283,252.772Z" transform="translate(-205.753 -234.377)" fill="#fff" fill-rule="evenodd"/>
          </g>
          <g id="Grupo_1073284" data-name="Grupo 1073284" transform="translate(32.597 0)">
            <path id="Trazado_820952" data-name="Trazado 820952" d="M207.34,166.837c4.928,2.745,10,5.561,15.064,8.447a2.178,2.178,0,0,1,.493,2.886c-3.52,6.758-7.11,13.445-10.63,20.133-.634,1.126-1.76,1.619-2.6,1.126-5-3.027-9.926-5.984-14.783-8.94a2.172,2.172,0,0,1-.422-2.886l10.348-19.64A2.013,2.013,0,0,1,207.34,166.837Z" transform="translate(-194.12 -166.686)" fill="#ffcb00" fill-rule="evenodd"/>
            <path id="Trazado_820953" data-name="Trazado 820953" d="M216.5,175.87c3.8,1.83,1.9,8.025-2.6,12.108-2.393,2.182-4.787,4.364-7.18,6.476-.634.563-.774.563-.634-.352.493-3.1.986-6.195,1.478-9.222.986-5.632,5.139-10.63,8.94-9.011Zm-1.549,2.886c-1.2-.563-2.957.493-3.942,2.253-.986,1.83-.845,3.731.352,4.294s2.957-.422,3.942-2.253S216.145,179.249,214.949,178.756Z" transform="translate(-197.646 -169.313)" fill="#fff" fill-rule="evenodd"/>
          </g>
        </g>
      </g>
      <g id="Grupo_1073297" data-name="Grupo 1073297" transform="translate(51.539 47.706)">
        <g id="Grupo_1073287" data-name="Grupo 1073287" transform="translate(261.318 5.843)">
          <path id="Trazado_820954" data-name="Trazado 820954" d="M434.778,60.646l-1.76,5.28a.849.849,0,0,1-.845.563.915.915,0,0,1-.845-.563l-1.76-5.28H416.9a5.017,5.017,0,0,1-5-5V39.6a5.017,5.017,0,0,1,5-5h22.667a5.017,5.017,0,0,1,5,5v16.05a5.017,5.017,0,0,1-5,5ZM419.221,44.455a3.168,3.168,0,1,0,3.168,3.168,3.155,3.155,0,0,0-3.168-3.168Zm9.011,0a3.168,3.168,0,1,0,3.168,3.168,3.155,3.155,0,0,0-3.168-3.168Zm9.01,0a3.168,3.168,0,1,0,3.168,3.168A3.155,3.155,0,0,0,437.242,44.455Z" transform="translate(-411.9 -34.6)" fill="#33b687" fill-rule="evenodd"/>
        </g>
        <g id="Grupo_1073288" data-name="Grupo 1073288" transform="translate(260.121 85.248)">
          <path id="Trazado_820955" data-name="Trazado 820955" d="M411.889,153.595H443a1.713,1.713,0,0,1,1.69,1.689v21.682a1.713,1.713,0,0,1-1.69,1.689H411.889a1.713,1.713,0,0,1-1.689-1.689V155.284a1.713,1.713,0,0,1,1.689-1.689Zm18.443,1.619a10.911,10.911,0,1,0,10.911,10.911,10.876,10.876,0,0,0-10.911-10.911Zm-16.754-3.168h7.532v-2.323a2.344,2.344,0,0,0-2.323-2.323H415.9a2.344,2.344,0,0,0-2.323,2.323v2.323Zm13.8-4.646h10.7a2.014,2.014,0,0,1,1.971,1.971v2.675H425.405v-2.675a1.968,1.968,0,0,1,1.971-1.971Zm2.957,10.137a8.588,8.588,0,1,0,8.588,8.588,8.577,8.577,0,0,0-8.588-8.588Zm0,2.886a5.7,5.7,0,1,0,5.7,5.7A5.77,5.77,0,0,0,430.333,160.423Z" transform="translate(-410.2 -147.4)" fill="#93a6a4" fill-rule="evenodd"/>
        </g>
        <g id="Grupo_1073289" data-name="Grupo 1073289" transform="translate(261.74 168.877)">
          <path id="Trazado_820956" data-name="Trazado 820956" d="M415.245,266.2H441.01a3.317,3.317,0,0,1,1.2.282l-13.093,10.982a1.556,1.556,0,0,1-1.971,0l-13.093-10.982a2.314,2.314,0,0,1,1.2-.282Zm28.087,1.408L430.1,278.66a3.007,3.007,0,0,1-2.041.7,3.133,3.133,0,0,1-2.041-.7l-13.234-11.052a2.314,2.314,0,0,0-.282,1.2v18.373a2.674,2.674,0,0,0,2.675,2.675H441.01a2.674,2.674,0,0,0,2.675-2.675v-18.3A2.431,2.431,0,0,0,443.333,267.608Z" transform="translate(-412.5 -266.2)" fill="#06bbee" fill-rule="evenodd"/>
        </g>
        <g id="Grupo_1073290" data-name="Grupo 1073290" transform="translate(2.364 130.089)">
          <path id="Trazado_820957" data-name="Trazado 820957" d="M70.9,240.173l1.408-1.408-9.785-9.785-1.408,1.408-6.265-6.265,1.408-1.408-9.785-9.785-1.408,1.408c-6.476,6.406,19.5,32.241,25.835,25.835Zm2.253-2.253-9.785-9.785.352-.352a2.125,2.125,0,0,1,3.027,0l6.828,6.828a2.125,2.125,0,0,1,0,3.027l-.422.282ZM57.1,221.87l-9.785-9.785.352-.352a2.125,2.125,0,0,1,3.027,0l6.828,6.828a2.125,2.125,0,0,1,0,3.027Z" transform="translate(-44.039 -211.1)" fill="#2fa92f" fill-rule="evenodd"/>
        </g>
        <g id="Grupo_1073291" data-name="Grupo 1073291" transform="translate(1.28 193.585)">
          <path id="Trazado_820958" data-name="Trazado 820958" d="M57.283,333.4l16.191-4.294a1.955,1.955,0,0,0,1.408-2.253l-3.309-15.768a1.917,1.917,0,0,0-2.041-1.549l-.915.07c-.211-3.379-1.408-5.843-3.027-7.11a5.078,5.078,0,0,0-3.168-1.2,4.275,4.275,0,0,0-3.1,1.337,6.928,6.928,0,0,0-1.2,1.549,1.866,1.866,0,0,0-.422-.352,5.078,5.078,0,0,0-3.168-1.2,4.275,4.275,0,0,0-3.1,1.338,9.8,9.8,0,0,0-2.6,6.265.423.423,0,0,0,.07.282c.07.07.141.07.282.07l.634-.07a.3.3,0,0,0,.282-.282,8.432,8.432,0,0,1,2.182-5.35,3.415,3.415,0,0,1,2.253-.986,3.62,3.62,0,0,1,2.323.915l.634.634a14.5,14.5,0,0,0-.915,5.068l-3.1.211a1.912,1.912,0,0,0-1.408.774,2.015,2.015,0,0,0-.422,1.549l3.168,18.936a2.11,2.11,0,0,0,.845,1.337,3.129,3.129,0,0,0,1.619.07Zm9.926-23.793-9.433.7a17.72,17.72,0,0,1,.493-3.661,12.569,12.569,0,0,1,.845,2.6c0,.141.211.282.352.282l.634-.07c.07,0,.141-.07.211-.141s.07-.141.07-.282a10.4,10.4,0,0,0-1.549-4.012,6.5,6.5,0,0,1,1.2-1.689,3.415,3.415,0,0,1,2.253-.986,3.62,3.62,0,0,1,2.323.915,8.718,8.718,0,0,1,2.6,6.336ZM57.987,313.9a12.644,12.644,0,0,1-.141-1.549,1.7,1.7,0,1,1-2.253,1.619,1.731,1.731,0,0,1,.986-1.549,14.893,14.893,0,0,0,.141,1.689.63.63,0,0,0,.7.563c.352-.141.634-.422.563-.774Zm10.559-2.6a1.421,1.421,0,0,1,.634,1.267,1.478,1.478,0,0,1-2.957,0,1.5,1.5,0,0,1,1.056-1.408c0,.422-.07.845-.07,1.267a.637.637,0,1,0,1.267.141c0-.493.07-.845.07-1.267ZM54.4,333.33c0,.141,0,.211-.07.282s-.211.141-.282.07l-6.265-1.337h0l-5.28-.563h0l2.464-19.359c0-.141.141-.211.211-.282.422-.141,5.209-.7,5.35-.7s.211.141.282.282Z" transform="translate(-42.5 -301.3)" fill="#d20557" fill-rule="evenodd"/>
        </g>
        <g id="Grupo_1073292" data-name="Grupo 1073292" transform="translate(1.632 258.559)">
          <path id="Trazado_820959" data-name="Trazado 820959" d="M74.537,407.679a13.248,13.248,0,0,1-.915,5.068,7.582,7.582,0,0,1-2.534,3.59,5.95,5.95,0,0,1-3.8,1.337,4.6,4.6,0,0,1-2.534-.7,3.588,3.588,0,0,1-1.549-1.83h-.282a6.53,6.53,0,0,1-5.28,2.464,7.382,7.382,0,0,1-5.42-2.041,7.634,7.634,0,0,1-1.971-5.632,8.438,8.438,0,0,1,2.6-6.547,9.2,9.2,0,0,1,6.758-2.464,36.134,36.134,0,0,1,3.661.282,23.211,23.211,0,0,1,3.309.774l-.422,9.5c0,1.76.493,2.675,1.478,2.675.845,0,1.478-.634,1.971-1.83a12.564,12.564,0,0,0,.7-4.716,11.692,11.692,0,0,0-1.267-5.491,8.742,8.742,0,0,0-3.661-3.661,11.123,11.123,0,0,0-5.35-1.267,13.711,13.711,0,0,0-6.758,1.619,10.887,10.887,0,0,0-4.435,4.646,14.935,14.935,0,0,0-1.549,6.969c0,3.52.915,6.265,2.816,8.166s4.646,2.816,8.236,2.816a26.845,26.845,0,0,0,4.505-.422,31.218,31.218,0,0,0,4.857-1.337v3.731a22.813,22.813,0,0,1-9.151,1.76c-4.857,0-8.729-1.267-11.474-3.872S43,415.141,43,410.565a17.912,17.912,0,0,1,2.112-8.659,15.18,15.18,0,0,1,5.984-6.124,17.714,17.714,0,0,1,8.94-2.182,15.932,15.932,0,0,1,7.6,1.76,11.986,11.986,0,0,1,5.139,4.928,14.726,14.726,0,0,1,1.76,7.391Zm-19.781,2.393c0,2.745,1.126,4.083,3.309,4.083a3.319,3.319,0,0,0,2.675-1.2,7.577,7.577,0,0,0,1.126-4.012l.282-4.294a10.655,10.655,0,0,0-2.253-.211,4.675,4.675,0,0,0-3.731,1.478A6.176,6.176,0,0,0,54.756,410.072Z" transform="translate(-43 -393.6)" fill="#80d205" fill-rule="evenodd"/>
        </g>
        <g id="Grupo_1073293" data-name="Grupo 1073293" transform="translate(261.633 244.413)">
          <path id="Trazado_820960" data-name="Trazado 820960" d="M415.552,378.147c1.9-.634,2.816,1.83,3.59,4.153s1.408,4.224-.493,4.787c-1.9.634-5.35-.845-6.124-3.168s1.126-5.209,3.027-5.772Zm14.783.563c-1.83,5.491-2.534,5.209-4.576,4.505-2.041-.774-4.646-4.013-3.942-6.547,1.337-4.857,10.559-4.083,8.518,2.041Zm2.675-.07c-.774,2.745-1.408,7.6,1.83,8.236,2.253.422,4.012-2.041,5.068-4.083,2.886-5.209-5.843-7.673-6.9-4.153Zm3.309,14.994c-2.957-1.971-2.675-3.027-3.238-5.28-.915-3.59-8.377-5.28-10.418-1.056-.634,1.337-.986,2.886-3.309,3.309a3.606,3.606,0,0,0-2.745,1.619c-1.689,2.464-1.76,7.18,0,9.926,1.619,2.534,5.42,3.449,8.729-.845,1.267-1.619,2.393-.634,2.6-.282,3.66,5.139,7.814,3.59,9.433.352,1.478-2.957,1.337-6.195-1.056-7.743Zm2.253-6.406c.845-3.168,6.195-2.957,5.139,1.126-.422,1.619-3.168,2.745-4.576,2.6C437.727,390.748,438.149,388.918,438.571,387.228Z" transform="translate(-412.348 -373.504)" fill="#df5503" fill-rule="evenodd"/>
        </g>
        <g id="Grupo_1073294" data-name="Grupo 1073294" transform="translate(0 70.113)">
          <path id="Trazado_820961" data-name="Trazado 820961" d="M61.954,140.683a28.652,28.652,0,0,0-3.52-.211,27.826,27.826,0,0,0-3.52.211,6.4,6.4,0,0,0-3.872,1.76l-3.168,3.449c-3.168,3.449-7.462,2.041-7.18-1.971l.422-6.9a9.555,9.555,0,0,1,3.027-6.969c3.168-2.745,8.8-4.083,14.361-4.153,5.632.07,11.193,1.408,14.361,4.153a9.127,9.127,0,0,1,2.957,6.688l.422,7.18c.211,4.012-4.012,5.491-7.18,1.971L65.9,142.443a6.187,6.187,0,0,0-3.942-1.76Zm-16.965-7.11a.705.705,0,0,0-.7.7v1.76a.705.705,0,0,0,.7.7h2.182v2.182a.705.705,0,0,0,.7.7h1.76a.705.705,0,0,0,.7-.7v-2.182h2.182a.705.705,0,0,0,.7-.7v-1.76a.705.705,0,0,0-.7-.7H50.339v-2.182a.705.705,0,0,0-.7-.7h-1.76a.705.705,0,0,0-.7.7v2.182Zm11.826-.282a.845.845,0,1,0,.845.845.856.856,0,0,0-.845-.845Zm3.168,0a.845.845,0,1,0,.845.845.813.813,0,0,0-.845-.845Zm6.406.986a.449.449,0,0,0,0,.422.387.387,0,0,0,.352.211h4.505a.387.387,0,0,0,.352-.211.449.449,0,0,0,0-.422l-2.253-3.661a.4.4,0,0,0-.7,0l-2.253,3.661Zm0,3.168,2.253,3.661a.4.4,0,0,0,.7,0l2.253-3.661a.449.449,0,0,0,0-.422.387.387,0,0,0-.352-.211H66.74a.387.387,0,0,0-.352.211C66.248,137.163,66.318,137.3,66.388,137.445Z" transform="translate(-40.681 -125.9)" fill="#7a0980" fill-rule="evenodd"/>
        </g>
        <g id="Grupo_1073295" data-name="Grupo 1073295" transform="translate(6.763)">
          <path id="Trazado_820962" data-name="Trazado 820962" d="M60.645,26.3c9.785.211,12.882,9.574,8.307,17.81L61.489,57.344c-.7,1.2-.986,1.2-1.689,0L52.408,44.11c-4.646-8.236-1.549-17.669,8.236-17.81Zm0,4.787a5.561,5.561,0,1,0,5.561,5.561A5.573,5.573,0,0,0,60.645,31.087Z" transform="translate(-50.288 -26.3)" fill="#ffa709" fill-rule="evenodd"/>
        </g>
        <g id="Grupo_1073296" data-name="Grupo 1073296" transform="translate(34.68 18.751)">
          <path id="Trazado_820963" data-name="Trazado 820963" d="M97.7,53.756a2.788,2.788,0,1,0-.563,4.364l70.817,70.254a6.233,6.233,0,0,0,.7,8.659,6.047,6.047,0,0,0,4.505,1.478,6.135,6.135,0,0,0,4.224-2.112,6.047,6.047,0,0,0,1.478-4.505,6.135,6.135,0,0,0-2.112-4.224,6.047,6.047,0,0,0-4.505-1.478,5.963,5.963,0,0,0-3.309,1.267L98.12,57.135a2.778,2.778,0,0,0-.422-3.379Zm71.239,75.6,1.549,1.549a2.787,2.787,0,1,0,.986-.986l-1.549-1.549a4.991,4.991,0,0,1,2.464-.915,5.162,5.162,0,0,1,3.52,1.126,5.037,5.037,0,0,1,1.689,3.309,5.162,5.162,0,0,1-1.126,3.52,5.037,5.037,0,0,1-3.309,1.689,5.162,5.162,0,0,1-3.52-1.126,5.037,5.037,0,0,1-1.689-3.309A4.983,4.983,0,0,1,168.937,129.36Z" transform="translate(-90.832 -52.937)" fill="#39cdd9" fill-rule="evenodd"/>
          <path id="Trazado_820964" data-name="Trazado 820964" d="M362.941,92.8a2.8,2.8,0,0,0-3.52-4.364,2.742,2.742,0,0,0-.774,3.309l-89.12,72.3a5.734,5.734,0,0,0-4.224-1.83,5.938,5.938,0,0,0-4.435,1.689,6.307,6.307,0,0,0-1.971,4.294,5.939,5.939,0,0,0,1.689,4.435,6.307,6.307,0,0,0,4.294,1.971,5.939,5.939,0,0,0,4.435-1.689,6.307,6.307,0,0,0,1.971-4.294,5.78,5.78,0,0,0-.915-3.449l89.12-72.3a2.853,2.853,0,0,0,3.449-.07ZM268.4,164.886l-1.76,1.408a2.656,2.656,0,0,0-3.379.07,2.8,2.8,0,1,0,3.52,4.364,2.742,2.742,0,0,0,.774-3.309l1.689-1.408a5.207,5.207,0,0,1,.634,2.534,4.913,4.913,0,0,1-1.549,3.379,4.668,4.668,0,0,1-3.449,1.267,4.913,4.913,0,0,1-3.379-1.549,4.668,4.668,0,0,1-1.267-3.449,4.913,4.913,0,0,1,1.549-3.379,4.668,4.668,0,0,1,3.449-1.267A4.842,4.842,0,0,1,268.4,164.886Z" transform="translate(-139.963 -63.262)" fill="#39cdd9" fill-rule="evenodd"/>
          <path id="Trazado_820965" data-name="Trazado 820965" d="M372.912,190.5a2.794,2.794,0,0,0,1.83-3.52,2.852,2.852,0,0,0-3.52-1.83,2.788,2.788,0,0,0-1.971,2.816l-61.032,19.5a6.722,6.722,0,0,0-3.238-3.309,6.1,6.1,0,0,0-4.716-.07,6,6,0,0,0-3.379,3.309,6.1,6.1,0,0,0-.07,4.716,6,6,0,0,0,3.309,3.379,6.1,6.1,0,0,0,4.716.07,6,6,0,0,0,3.379-3.309,6.123,6.123,0,0,0,.422-3.52l61.032-19.5a2.881,2.881,0,0,0,3.238,1.267Zm-65.96,17.317-2.112.634a2.775,2.775,0,0,0-5,2.323,2.852,2.852,0,0,0,3.52,1.83,2.788,2.788,0,0,0,1.971-2.816l2.112-.634a4.805,4.805,0,0,1-.352,2.6,4.522,4.522,0,0,1-2.675,2.534,4.724,4.724,0,0,1-3.661-.07,4.522,4.522,0,0,1-2.534-2.675,4.724,4.724,0,0,1,.07-3.661,4.522,4.522,0,0,1,2.675-2.534,4.724,4.724,0,0,1,3.661.07A5.111,5.111,0,0,1,306.952,207.819Z" transform="translate(-151.06 -92.046)" fill="#39cdd9" fill-rule="evenodd"/>
          <path id="Trazado_820966" data-name="Trazado 820966" d="M364.153,270.856a2.817,2.817,0,1,0-.141-5.632,2.936,2.936,0,0,0-2.675,2.182L283.2,269.73a6.291,6.291,0,0,0-2.253-4.013,6.09,6.09,0,0,0-4.576-1.337,6.021,6.021,0,0,0-4.153,2.253,6.091,6.091,0,0,0-1.337,4.576,6.021,6.021,0,0,0,2.253,4.153,6.09,6.09,0,0,0,4.576,1.337,6.021,6.021,0,0,0,4.153-2.253,5.937,5.937,0,0,0,1.337-3.309l78.138-2.323a2.9,2.9,0,0,0,2.816,2.041ZM281.791,269.8l-2.253.07a2.8,2.8,0,1,0-2.6,3.59,2.936,2.936,0,0,0,2.675-2.182l2.182-.07a4.587,4.587,0,0,1-1.056,2.393,4.837,4.837,0,0,1-3.238,1.76,4.668,4.668,0,0,1-3.52-1.056,4.837,4.837,0,0,1-1.76-3.238,4.668,4.668,0,0,1,1.056-3.52,4.837,4.837,0,0,1,3.238-1.76,4.667,4.667,0,0,1,3.52,1.056A4.26,4.26,0,0,1,281.791,269.8Z" transform="translate(-143.498 -115.521)" fill="#39cdd9" fill-rule="evenodd"/>
          <path id="Trazado_820967" data-name="Trazado 820967" d="M356.6,354.64a2.806,2.806,0,0,0,1.9-5.28,2.774,2.774,0,0,0-3.238,1.056L264.17,317.965a6.219,6.219,0,0,0-.634-4.576,6.1,6.1,0,0,0-3.731-2.886,6.175,6.175,0,0,0-4.716.563A6.291,6.291,0,0,0,252.2,314.8a6.175,6.175,0,0,0,.563,4.716A6.1,6.1,0,0,0,256.5,322.4a6.175,6.175,0,0,0,4.716-.563,6.256,6.256,0,0,0,2.464-2.6l91.091,32.522a2.68,2.68,0,0,0,1.83,2.886Zm-93.766-37.1-2.112-.774a2.758,2.758,0,0,0-1.83-2.886,2.806,2.806,0,1,0-1.9,5.28,2.774,2.774,0,0,0,3.238-1.056l2.112.774a4.58,4.58,0,0,1-1.83,1.83,4.77,4.77,0,0,1-3.661.422,4.848,4.848,0,0,1-2.886-2.253,4.77,4.77,0,0,1-.422-3.66,4.848,4.848,0,0,1,2.253-2.886,4.77,4.77,0,0,1,3.661-.422,4.849,4.849,0,0,1,2.886,2.253A5.089,5.089,0,0,1,262.833,317.542Z" transform="translate(-137.915 -129.122)" fill="#39cdd9" fill-rule="evenodd"/>
          <path id="Trazado_820968" data-name="Trazado 820968" d="M91.181,361.2a2.792,2.792,0,1,0,3.1,4.646,2.774,2.774,0,0,0,1.056-3.238l59.343-40.2a5.891,5.891,0,0,0,4.083,2.182,6.217,6.217,0,1,0-5.42-6.9,5.974,5.974,0,0,0,.634,3.52L94.63,361.486a2.867,2.867,0,0,0-3.449-.282Zm64.693-39.562,1.83-1.267a2.656,2.656,0,0,0,3.379.211,2.792,2.792,0,1,0-3.1-4.646,2.774,2.774,0,0,0-1.056,3.238l-1.83,1.2a5.219,5.219,0,0,1-.422-2.534,4.744,4.744,0,0,1,1.83-3.238,4.832,4.832,0,0,1,3.52-.986,4.744,4.744,0,0,1,3.238,1.83,4.832,4.832,0,0,1,.986,3.52,4.744,4.744,0,0,1-1.83,3.238,4.841,4.841,0,0,1-6.547-.563Z" transform="translate(-89.946 -129.702)" fill="#39cdd9" fill-rule="evenodd"/>
          <path id="Trazado_820969" data-name="Trazado 820969" d="M93.362,286.244a2.8,2.8,0,0,0,1.126,5.491,2.7,2.7,0,0,0,2.182-2.6l30.129-6.336a6.412,6.412,0,0,0,2.957,3.59,5.854,5.854,0,0,0,4.716.493,6.208,6.208,0,0,0,3.731-2.957,5.854,5.854,0,0,0,.493-4.716,6.208,6.208,0,0,0-2.957-3.731,5.854,5.854,0,0,0-4.716-.493,6.208,6.208,0,0,0-3.731,2.957,6.292,6.292,0,0,0-.774,3.52l-30.129,6.336a2.833,2.833,0,0,0-3.027-1.549Zm34.775-3.8,2.182-.422a2.748,2.748,0,0,0,3.1,1.478,2.8,2.8,0,1,0-1.126-5.491,2.7,2.7,0,0,0-2.182,2.6l-2.182.422a4.619,4.619,0,0,1,.563-2.534,4.713,4.713,0,0,1,2.886-2.323,4.8,4.8,0,0,1,3.661.422,4.713,4.713,0,0,1,2.323,2.886,4.8,4.8,0,0,1-.422,3.661,4.713,4.713,0,0,1-2.886,2.323,4.91,4.91,0,0,1-5.913-3.027Z" transform="translate(-90.297 -118.59)" fill="#39cdd9" fill-rule="evenodd"/>
          <path id="Trazado_820970" data-name="Trazado 820970" d="M96.522,213.7a2.791,2.791,0,0,0-.493,5.561,2.843,2.843,0,0,0,2.886-1.83l48.291,4.364a6.325,6.325,0,0,0,1.76,4.294,6.252,6.252,0,0,0,4.364,1.83,6.34,6.34,0,0,0,4.435-1.76,6.252,6.252,0,0,0,1.83-4.364,6.34,6.34,0,0,0-1.76-4.435,6.252,6.252,0,0,0-4.364-1.83,6.34,6.34,0,0,0-4.435,1.76,5.9,5.9,0,0,0-1.689,3.1l-48.291-4.364a2.774,2.774,0,0,0-2.534-2.323Zm52.092,8.166,2.253.211a2.846,2.846,0,0,0,2.534,2.323,2.791,2.791,0,0,0,.493-5.561,2.843,2.843,0,0,0-2.886,1.83l-2.182-.211a4.809,4.809,0,0,1,1.267-2.253,4.9,4.9,0,0,1,3.449-1.408,4.538,4.538,0,0,1,3.379,1.478,4.9,4.9,0,0,1,1.408,3.449,4.651,4.651,0,0,1-1.478,3.379,4.9,4.9,0,0,1-3.449,1.408,4.651,4.651,0,0,1-3.379-1.478A4.511,4.511,0,0,1,148.614,221.861Z" transform="translate(-90.993 -100.527)" fill="#39cdd9" fill-rule="evenodd"/>
        </g>
      </g>
    </g>
    <g id="Grupo_1073301" data-name="Grupo 1073301" transform="translate(163.421 57.363)">
      <g id="Grupo_1073299" data-name="Grupo 1073299" transform="translate(73.867 0)">
        <text id="_77_" data-name="77%" transform="translate(0.706 2.617) rotate(29.263)" fill="#fff" font-size="3" font-family="OpenSans, Open Sans"><tspan x="0" y="0">77%</tspan></text>
      </g>
      <g id="Grupo_1073300" data-name="Grupo 1073300" transform="translate(0 12.284)">
        <text id="_9:42" data-name="9:42" transform="matrix(0.796, 0.606, -0.606, 0.796, 7.635, 15.911)" fill="#fff" font-size="19" font-family="OpenSans-Bold, Open Sans" font-weight="700"><tspan x="0" y="0">9:42</tspan></text>
        <text id="_2_Sep_2019" data-name="2 Sep 2019" transform="matrix(0.796, 0.606, -0.606, 0.796, 1.818, 27.919)" fill="#fff" font-size="7" font-family="OpenSans-Light, Open Sans" font-weight="300"><tspan x="0" y="0">2 Sep 2019</tspan></text>
      </g>
    </g>
  </g>
</svg>
