<svg xmlns="http://www.w3.org/2000/svg" width="237" height="190" viewBox="0 0 237 190">
  <g id="Grupo_1076427" data-name="Grupo 1076427" transform="translate(-1104 -460)">
    <circle id="Elipse_9892" data-name="Elipse 9892" cx="95" cy="95" r="95" transform="translate(1125 460)" fill="#fff"/>
    <g id="OBJECTS" transform="translate(1054.156 404.4)">
      <g id="Grupo_1076355" data-name="Grupo 1076355" transform="translate(49.844 62.6)">
        <g id="Grupo_1076354" data-name="Grupo 1076354">
          <g id="Grupo_1076353" data-name="Grupo 1076353">
            <g id="Grupo_1076287" data-name="Grupo 1076287" transform="translate(32.114 21.152)">
              <path id="Trazado_825286" data-name="Trazado 825286" d="M359.82,151.6V268.263a7.877,7.877,0,0,1-7.88,7.88H295" transform="translate(-187.179 -143.72)" fill="none" stroke="#c370ff" stroke-miterlimit="10" stroke-width="1.335" stroke-dasharray="2.67 2.67"/>
              <path id="Trazado_825287" data-name="Trazado 825287" d="M105.4,253.482V146.18a7.877,7.877,0,0,1,7.88-7.88h57.058" transform="translate(-105.4 -138.3)" fill="none" stroke="#c370ff" stroke-miterlimit="10" stroke-width="1.335" stroke-dasharray="2.67 2.67"/>
            </g>
            <g id="Grupo_1076290" data-name="Grupo 1076290" transform="translate(36.083 25.063)">
              <g id="Grupo_1076288" data-name="Grupo 1076288" transform="translate(48.757 107.31)">
                <path id="Trazado_825288" data-name="Trazado 825288" d="M247.994,332H223.642L208,373.238h55.577Z" transform="translate(-202.194 -332)" fill="#c1c9d9"/>
                <path id="Trazado_825289" data-name="Trazado 825289" d="M262.723,407.147H200.866L198.2,401.4h67.19Z" transform="translate(-198.2 -360.28)" fill="#dce6f2"/>
                <path id="Trazado_825290" data-name="Trazado 825290" d="M225.6,352.244l40.527,15.168L258.662,347.8h-31.4Z" transform="translate(-209.365 -338.439)" fill="#a5acba"/>
              </g>
              <g id="Grupo_1076289" data-name="Grupo 1076289">
                <path id="Trazado_825291" data-name="Trazado 825291" d="M273,265.956H115.964A3.861,3.861,0,0,1,112.1,262.1V148.757a3.861,3.861,0,0,1,3.864-3.857H273a3.861,3.861,0,0,1,3.864,3.857V262.1A3.861,3.861,0,0,1,273,265.956Z" transform="translate(-112.1 -144.9)" fill="#c1c9d9"/>
                <path id="Trazado_825292" data-name="Trazado 825292" d="M255.814,151.406a2.607,2.607,0,1,1-2.607-2.607A2.555,2.555,0,0,1,255.814,151.406Z" transform="translate(-170.798 -146.488)" fill="#0a1d45"/>
                <rect id="Rectángulo_383667" data-name="Rectángulo 383667" width="97.83" height="145.741" transform="translate(155.232 9.515) rotate(90)" fill="#0a1d45"/>
              </g>
            </g>
            <g id="Grupo_1076295" data-name="Grupo 1076295" transform="translate(5.688)">
              <g id="Grupo_1076293" data-name="Grupo 1076293">
                <g id="Grupo_1076291" data-name="Grupo 1076291" transform="translate(0 152.043)">
                  <path id="Trazado_825293" data-name="Trazado 825293" d="M63.407,366.5a1.3,1.3,0,1,1-1.3-1.3A1.315,1.315,0,0,1,63.407,366.5Z" transform="translate(-60.8 -365.2)" fill="#f15a24"/>
                  <circle id="Elipse_9883" data-name="Elipse 9883" cx="1.304" cy="1.304" r="1.304" transform="translate(5.57 0)" fill="#f15a24"/>
                  <circle id="Elipse_9884" data-name="Elipse 9884" cx="1.304" cy="1.304" r="1.304" transform="translate(11.198 0)" fill="#f15a24"/>
                  <circle id="Elipse_9885" data-name="Elipse 9885" cx="1.304" cy="1.304" r="1.304" transform="translate(16.768 0)" fill="#f15a24"/>
                  <circle id="Elipse_9886" data-name="Elipse 9886" cx="1.304" cy="1.304" r="1.304" transform="translate(22.397 0)" fill="#f15a24"/>
                  <circle id="Elipse_9887" data-name="Elipse 9887" cx="1.304" cy="1.304" r="1.304" transform="translate(27.966 0)" fill="#f15a24"/>
                  <circle id="Elipse_9888" data-name="Elipse 9888" cx="1.304" cy="1.304" r="1.304" transform="translate(33.595 0)" fill="#f15a24"/>
                  <circle id="Elipse_9889" data-name="Elipse 9889" cx="1.304" cy="1.304" r="1.304" transform="translate(39.164 0)" fill="#f15a24"/>
                </g>
                <g id="Grupo_1076292" data-name="Grupo 1076292" transform="translate(104.089)">
                  <path id="Trazado_825294" data-name="Trazado 825294" d="M246.707,103.9a1.3,1.3,0,1,1-1.3-1.3A1.315,1.315,0,0,1,246.707,103.9Z" transform="translate(-244.1 -102.6)" fill="#f15a24"/>
                  <path id="Trazado_825295" data-name="Trazado 825295" d="M256.107,103.9a1.3,1.3,0,1,1-1.3-1.3A1.315,1.315,0,0,1,256.107,103.9Z" transform="translate(-247.931 -102.6)" fill="#f15a24"/>
                  <path id="Trazado_825296" data-name="Trazado 825296" d="M265.607,103.9a1.3,1.3,0,1,1-1.3-1.3A1.315,1.315,0,0,1,265.607,103.9Z" transform="translate(-251.802 -102.6)" fill="#f15a24"/>
                  <path id="Trazado_825297" data-name="Trazado 825297" d="M275.007,103.9a1.3,1.3,0,1,1-1.3-1.3A1.315,1.315,0,0,1,275.007,103.9Z" transform="translate(-255.632 -102.6)" fill="#f15a24"/>
                  <path id="Trazado_825298" data-name="Trazado 825298" d="M284.507,103.9a1.3,1.3,0,1,1-1.3-1.3A1.315,1.315,0,0,1,284.507,103.9Z" transform="translate(-259.503 -102.6)" fill="#f15a24"/>
                  <path id="Trazado_825299" data-name="Trazado 825299" d="M293.907,103.9a1.3,1.3,0,1,1-1.3-1.3A1.315,1.315,0,0,1,293.907,103.9Z" transform="translate(-263.334 -102.6)" fill="#f15a24"/>
                  <path id="Trazado_825300" data-name="Trazado 825300" d="M303.407,103.9a1.3,1.3,0,1,1-1.3-1.3A1.315,1.315,0,0,1,303.407,103.9Z" transform="translate(-267.205 -102.6)" fill="#f15a24"/>
                  <path id="Trazado_825301" data-name="Trazado 825301" d="M312.807,103.9a1.3,1.3,0,1,1-1.3-1.3A1.315,1.315,0,0,1,312.807,103.9Z" transform="translate(-271.036 -102.6)" fill="#f15a24"/>
                </g>
              </g>
              <g id="Grupo_1076294" data-name="Grupo 1076294" transform="translate(13.331 18.96)">
                <path id="Trazado_825302" data-name="Trazado 825302" d="M423.373,324.536a3.437,3.437,0,1,1-3.437-3.436A3.439,3.439,0,0,1,423.373,324.536Z" transform="translate(-223.596 -214.146)" fill="#0cba83"/>
                <path id="Trazado_825303" data-name="Trazado 825303" d="M90.173,138.036a3.436,3.436,0,1,1-3.436-3.437A3.439,3.439,0,0,1,90.173,138.036Z" transform="translate(-83.3 -134.6)" fill="#ed1e79"/>
                <path id="Trazado_825304" data-name="Trazado 825304" d="M177.173,355.436A3.437,3.437,0,1,1,173.736,352,3.477,3.477,0,0,1,177.173,355.436Z" transform="translate(-119.932 -226.738)" fill="#29abe2"/>
              </g>
            </g>
            <g id="Grupo_1076312" data-name="Grupo 1076312" transform="translate(47.936 36.955)">
              <g id="Grupo_1076297" data-name="Grupo 1076297">
                <path id="Trazado_825305" data-name="Trazado 825305" d="M235.015,181.6H145.37a3.97,3.97,0,0,0-3.97,3.97v88.875h97.526V185.57A3.883,3.883,0,0,0,235.015,181.6Z" transform="translate(-137.49 -173.424)" fill="#a5acba"/>
                <g id="Grupo_1076296" data-name="Grupo 1076296">
                  <path id="Trazado_825306" data-name="Trazado 825306" d="M232.326,171.77a3.97,3.97,0,0,0-3.97-3.97H138.77a3.97,3.97,0,0,0-3.97,3.97v2.37h97.526v-2.37Z" transform="translate(-134.8 -167.8)" fill="#0059d6"/>
                  <rect id="Rectángulo_383668" data-name="Rectángulo 383668" width="97.526" height="86.505" transform="translate(0 6.34)" fill="#e4ebfd"/>
                </g>
              </g>
              <g id="Grupo_1076311" data-name="Grupo 1076311" transform="translate(4.088 12.028)">
                <g id="Grupo_1076298" data-name="Grupo 1076298" transform="translate(60.554 0.889)">
                  <rect id="Rectángulo_383669" data-name="Rectángulo 383669" width="25.892" height="4.029" fill="#becbeb"/>
                  <rect id="Rectángulo_383670" data-name="Rectángulo 383670" width="25.892" height="4.029" transform="translate(0 7.229)" fill="#becbeb"/>
                  <rect id="Rectángulo_383671" data-name="Rectángulo 383671" width="25.892" height="4.029" transform="translate(0 14.457)" fill="#becbeb"/>
                  <rect id="Rectángulo_383672" data-name="Rectángulo 383672" width="25.892" height="4.029" transform="translate(0 21.686)" fill="#becbeb"/>
                  <rect id="Rectángulo_383673" data-name="Rectángulo 383673" width="25.892" height="4.029" transform="translate(0 28.914)" fill="#becbeb"/>
                </g>
                <g id="Grupo_1076301" data-name="Grupo 1076301" transform="translate(59.665 38.868)">
                  <rect id="Rectángulo_383674" data-name="Rectángulo 383674" width="28.499" height="39.164" fill="none" stroke="#0068fa" stroke-miterlimit="10" stroke-width="0.668" stroke-dasharray="2.67 2.67"/>
                  <g id="Grupo_1076300" data-name="Grupo 1076300" transform="translate(2.015 2.015)">
                    <rect id="Rectángulo_383675" data-name="Rectángulo 383675" width="24.47" height="35.135" fill="#fff"/>
                    <rect id="Rectángulo_383676" data-name="Rectángulo 383676" width="19.434" height="30.988" transform="translate(2.488 2.074)" fill="#2fcbe0"/>
                    <g id="Grupo_1076299" data-name="Grupo 1076299" transform="translate(7.288 6.162)">
                      <path id="Trazado_825307" data-name="Trazado 825307" d="M261.833,267.5h1.955l4.029,22.752H265.98l-.77-4.621h-4.562l-.711,4.621H258.1Zm3.14,16.531L262.9,271.173h0L261,284.031Z" transform="translate(-258.1 -267.5)"/>
                    </g>
                  </g>
                </g>
                <g id="Grupo_1076310" data-name="Grupo 1076310">
                  <g id="Grupo_1076302" data-name="Grupo 1076302" transform="translate(0.889 38.513)">
                    <rect id="Rectángulo_383677" data-name="Rectángulo 383677" width="53.799" height="4.029" fill="#becbeb"/>
                    <rect id="Rectángulo_383678" data-name="Rectángulo 383678" width="53.799" height="4.029" transform="translate(0 7.939)" fill="#becbeb"/>
                    <rect id="Rectángulo_383679" data-name="Rectángulo 383679" width="32.173" height="4.029" transform="translate(0 15.879)" fill="#becbeb"/>
                    <rect id="Rectángulo_383680" data-name="Rectángulo 383680" width="25.418" height="4.029" transform="translate(0 23.818)" fill="#becbeb"/>
                    <rect id="Rectángulo_383681" data-name="Rectángulo 383681" width="6.636" height="4.029" transform="translate(33.121 31.758)" fill="#ed1e79"/>
                    <rect id="Rectángulo_383682" data-name="Rectángulo 383682" width="30.218" height="4.029" transform="translate(0 31.758)" fill="#becbeb"/>
                    <rect id="Rectángulo_383683" data-name="Rectángulo 383683" width="13.035" height="4.029" transform="translate(34.721 15.879)" fill="#fbb03b"/>
                    <rect id="Rectángulo_383684" data-name="Rectángulo 383684" width="24.53" height="4.029" transform="translate(29.27 23.818)" fill="#becbeb"/>
                    <rect id="Rectángulo_383685" data-name="Rectángulo 383685" width="10.369" height="4.029" transform="translate(43.49 31.758)" fill="#becbeb"/>
                  </g>
                  <g id="Grupo_1076309" data-name="Grupo 1076309">
                    <g id="Grupo_1076304" data-name="Grupo 1076304" transform="translate(4.622 4.207)">
                      <rect id="Rectángulo_383686" data-name="Rectángulo 383686" width="46.393" height="27.077" fill="#0a1d45"/>
                      <g id="Grupo_1076303" data-name="Grupo 1076303" transform="translate(3.437 2.963)">
                        <path id="Trazado_825308" data-name="Trazado 825308" d="M179.711,208.081l-5.273,11.139L166.261,201.8,155.3,224.967h21.863v-.059H187.71Z" transform="translate(-155.3 -200.852)" fill="#133785"/>
                        <path id="Trazado_825309" data-name="Trazado 825309" d="M212.288,200.2a4.088,4.088,0,1,0,4.088,4.088A4.1,4.1,0,0,0,212.288,200.2Z" transform="translate(-176.857 -200.2)" fill="#fbb03b"/>
                      </g>
                    </g>
                    <g id="Grupo_1076308" data-name="Grupo 1076308">
                      <rect id="Rectángulo_383687" data-name="Rectángulo 383687" width="53.799" height="33.654" transform="translate(0.889 0.889)" fill="none" stroke="#0068fa" stroke-miterlimit="10" stroke-width="0.668" stroke-dasharray="2.67 2.67"/>
                      <g id="Grupo_1076307" data-name="Grupo 1076307">
                        <g id="Grupo_1076305" data-name="Grupo 1076305">
                          <rect id="Rectángulo_383688" data-name="Rectángulo 383688" width="1.837" height="1.837" transform="translate(53.799)" fill="#0a1d45"/>
                          <rect id="Rectángulo_383689" data-name="Rectángulo 383689" width="1.837" height="1.837" fill="#0a1d45"/>
                        </g>
                        <g id="Grupo_1076306" data-name="Grupo 1076306" transform="translate(0 33.654)">
                          <rect id="Rectángulo_383690" data-name="Rectángulo 383690" width="1.837" height="1.837" transform="translate(53.799)" fill="#0a1d45"/>
                          <rect id="Rectángulo_383691" data-name="Rectángulo 383691" width="1.837" height="1.837" fill="#0a1d45"/>
                        </g>
                      </g>
                    </g>
                  </g>
                </g>
              </g>
            </g>
            <g id="Grupo_1076315" data-name="Grupo 1076315" transform="translate(150.384 40.824)">
              <rect id="Rectángulo_383692" data-name="Rectángulo 383692" width="35.432" height="35.432" fill="none" stroke="#0068fa" stroke-miterlimit="10" stroke-width="0.668" stroke-dasharray="2.67 2.67"/>
              <g id="Grupo_1076314" data-name="Grupo 1076314" transform="translate(3.14 3.14)">
                <rect id="Rectángulo_383693" data-name="Rectángulo 383693" width="29.151" height="29.151" fill="#103173"/>
                <g id="Grupo_1076313" data-name="Grupo 1076313" transform="translate(2.003 2.004)">
                  <circle id="Elipse_9890" data-name="Elipse 9890" cx="8.888" cy="8.888" r="8.888" transform="translate(0 12.569) rotate(-45)" fill="#0a1d45"/>
                  <path id="Trazado_825310" data-name="Trazado 825310" d="M337.3,193.8V204.82l7.051-5.51Z" transform="translate(-326.683 -186.738)" fill="#ed1e79"/>
                </g>
              </g>
            </g>
            <g id="Grupo_1076318" data-name="Grupo 1076318" transform="translate(132.993 13.035)">
              <path id="Trazado_825311" data-name="Trazado 825311" d="M286.3,144.9a8.472,8.472,0,0,0,8.414,7.525H338.44a8.467,8.467,0,0,0,8.414-7.525Z" transform="translate(-283.456 -132.872)" fill="#a5acba"/>
              <g id="Grupo_1076317" data-name="Grupo 1076317">
                <path id="Trazado_825312" data-name="Trazado 825312" d="M333.7,141.546H289.973a8.471,8.471,0,0,1-8.473-8.473h0a8.471,8.471,0,0,1,8.473-8.473H333.7a8.471,8.471,0,0,1,8.473,8.473h0A8.471,8.471,0,0,1,333.7,141.546Z" transform="translate(-281.5 -124.6)" fill="#dce6f2"/>
                <g id="Grupo_1076316" data-name="Grupo 1076316" transform="translate(3.614 3.081)">
                  <path id="Trazado_825313" data-name="Trazado 825313" d="M335.474,140.583H292.992a5.411,5.411,0,0,1-5.392-5.392h0a5.411,5.411,0,0,1,5.392-5.392h42.482a5.411,5.411,0,0,1,5.392,5.392h0A5.411,5.411,0,0,1,335.474,140.583Z" transform="translate(-287.6 -129.8)" fill="#becbeb"/>
                  <path id="Trazado_825314" data-name="Trazado 825314" d="M300.2,138.773l-1.837-1.718a2.658,2.658,0,0,0,.3-1.126,2.429,2.429,0,1,0-2.429,2.429,2.133,2.133,0,0,0,1.3-.415l1.837,1.718a.538.538,0,0,0,.415.178.461.461,0,0,0,.415-.178.64.64,0,0,0,.178-.415A.491.491,0,0,0,300.2,138.773Zm-2.488-2.844a1.422,1.422,0,1,1-1.422-1.422A1.442,1.442,0,0,1,297.711,135.929Z" transform="translate(-290.127 -131.308)" fill="#e4ebfd"/>
                </g>
              </g>
            </g>
            <g id="Grupo_1076332" data-name="Grupo 1076332" transform="translate(148.704 84.496)">
              <path id="Trazado_825315" data-name="Trazado 825315" d="M368.053,266.5H326.4a1.593,1.593,0,0,0-1.6,1.6v24.707a1.593,1.593,0,0,0,1.6,1.6h41.653Z" transform="translate(-315.912 -256.013)" fill="#a5acba"/>
              <g id="Grupo_1076331" data-name="Grupo 1076331">
                <g id="Grupo_1076324" data-name="Grupo 1076324">
                  <g id="Grupo_1076320" data-name="Grupo 1076320" transform="translate(0.889 0.948)">
                    <g id="Grupo_1076319" data-name="Grupo 1076319">
                      <path id="Trazado_825316" data-name="Trazado 825316" d="M416.27,305.5v.77h-.77" transform="translate(-353.762 -272.853)" fill="none" stroke="#0068fa" stroke-miterlimit="10" stroke-width="0.668"/>
                      <line id="Línea_590" data-name="Línea 590" x1="58.539" transform="translate(1.6 33.417)" fill="none" stroke="#0068fa" stroke-miterlimit="10" stroke-width="0.668" stroke-dasharray="2.636 2.636"/>
                      <path id="Trazado_825317" data-name="Trazado 825317" d="M312.13,306.27h-.83v-.77" transform="translate(-311.3 -272.853)" fill="none" stroke="#0068fa" stroke-miterlimit="10" stroke-width="0.668"/>
                      <line id="Línea_591" data-name="Línea 591" y1="29.566" transform="translate(0 1.541)" fill="none" stroke="#0068fa" stroke-miterlimit="10" stroke-width="0.668" stroke-dasharray="2.557 2.557"/>
                      <path id="Trazado_825318" data-name="Trazado 825318" d="M311.3,251.17v-.77h.83" transform="translate(-311.3 -250.4)" fill="none" stroke="#0068fa" stroke-miterlimit="10" stroke-width="0.668"/>
                      <line id="Línea_592" data-name="Línea 592" x2="58.539" transform="translate(2.37)" fill="none" stroke="#0068fa" stroke-miterlimit="10" stroke-width="0.668" stroke-dasharray="2.636 2.636"/>
                      <path id="Trazado_825319" data-name="Trazado 825319" d="M415.5,250.4h.77v.77" transform="translate(-353.762 -250.4)" fill="none" stroke="#0068fa" stroke-miterlimit="10" stroke-width="0.668"/>
                      <line id="Línea_593" data-name="Línea 593" y2="29.566" transform="translate(62.509 2.311)" fill="none" stroke="#0068fa" stroke-miterlimit="10" stroke-width="0.668" stroke-dasharray="2.557 2.557"/>
                    </g>
                  </g>
                  <g id="Grupo_1076323" data-name="Grupo 1076323">
                    <g id="Grupo_1076321" data-name="Grupo 1076321">
                      <rect id="Rectángulo_383694" data-name="Rectángulo 383694" width="1.837" height="1.837" transform="translate(62.45)" fill="#dce6f2"/>
                      <rect id="Rectángulo_383695" data-name="Rectángulo 383695" width="1.837" height="1.837" fill="#dce6f2"/>
                    </g>
                    <g id="Grupo_1076322" data-name="Grupo 1076322" transform="translate(0 33.417)">
                      <rect id="Rectángulo_383696" data-name="Rectángulo 383696" width="1.837" height="1.837" transform="translate(62.45)" fill="#dce6f2"/>
                      <rect id="Rectángulo_383697" data-name="Rectángulo 383697" width="1.837" height="1.837" fill="#dce6f2"/>
                    </g>
                  </g>
                </g>
                <g id="Grupo_1076330" data-name="Grupo 1076330" transform="translate(3.674 3.673)">
                  <path id="Trazado_825320" data-name="Trazado 825320" d="M371.4,282.907H317.6a1.593,1.593,0,0,1-1.6-1.6V256.6a1.593,1.593,0,0,1,1.6-1.6h53.8a1.593,1.593,0,0,1,1.6,1.6v24.707A1.674,1.674,0,0,1,371.4,282.907Z" transform="translate(-316 -255)" fill="#dce6f2"/>
                  <g id="Grupo_1076329" data-name="Grupo 1076329" transform="translate(4.266 4.266)">
                    <g id="Grupo_1076327" data-name="Grupo 1076327" transform="translate(16.886)">
                      <g id="Grupo_1076325" data-name="Grupo 1076325">
                        <rect id="Rectángulo_383698" data-name="Rectángulo 383698" width="17.597" height="3.437" fill="#becbeb"/>
                        <rect id="Rectángulo_383699" data-name="Rectángulo 383699" width="22.456" height="3.437" transform="translate(0 5.688)" fill="#becbeb"/>
                        <rect id="Rectángulo_383700" data-name="Rectángulo 383700" width="9.539" height="3.437" transform="translate(24.411 5.688)" fill="#e43438"/>
                        <rect id="Rectángulo_383701" data-name="Rectángulo 383701" width="4.918" height="3.437" transform="translate(23.828 3.437) rotate(180)" fill="#becbeb"/>
                        <rect id="Rectángulo_383702" data-name="Rectángulo 383702" width="7.643" height="3.437" transform="translate(32.686 3.437) rotate(180)" fill="#becbeb"/>
                      </g>
                      <g id="Grupo_1076326" data-name="Grupo 1076326" transform="translate(0 11.317)">
                        <rect id="Rectángulo_383703" data-name="Rectángulo 383703" width="17.597" height="3.437" fill="#becbeb"/>
                        <rect id="Rectángulo_383704" data-name="Rectángulo 383704" width="33.891" height="3.437" transform="translate(0 5.688)" fill="#becbeb"/>
                        <rect id="Rectángulo_383705" data-name="Rectángulo 383705" width="4.918" height="3.437" transform="translate(23.828 3.472) rotate(180)" fill="#ed1e79"/>
                        <rect id="Rectángulo_383706" data-name="Rectángulo 383706" width="7.643" height="3.437" transform="translate(32.686 3.472) rotate(180)" fill="#becbeb"/>
                      </g>
                    </g>
                    <g id="Grupo_1076328" data-name="Grupo 1076328" transform="translate(0 0.652)">
                      <path id="Trazado_825321" data-name="Trazado 825321" d="M330.029,263.3h0a5.626,5.626,0,0,0-5.629,5.629v1.777h1.777v-1.955a3.844,3.844,0,0,1,3.851-3.851h0a3.844,3.844,0,0,1,3.851,3.851v1.955h1.777v-1.777A5.589,5.589,0,0,0,330.029,263.3Z" transform="translate(-323.689 -263.3)" fill="#0a1d45"/>
                      <path id="Trazado_825322" data-name="Trazado 825322" d="M335.169,275.8h-11.2a.784.784,0,0,0-.77.77v9.184a.784.784,0,0,0,.77.77h11.2a.784.784,0,0,0,.77-.77V276.57A.784.784,0,0,0,335.169,275.8Zm-4.74,7.347H328.71l.237-1.9a1.206,1.206,0,0,1-.533-.948,1.185,1.185,0,1,1,2.37,0,1.122,1.122,0,0,1-.533.948Z" transform="translate(-323.2 -268.394)" fill="#fbbf62"/>
                    </g>
                  </g>
                </g>
              </g>
            </g>
            <g id="Grupo_1076352" data-name="Grupo 1076352" transform="translate(0 0.237)">
              <path id="Trazado_825323" data-name="Trazado 825323" d="M322.694,326.3c-9.895,0-17.893,5.273-17.893,11.731,0,5.1,4.977,9.421,11.85,11.021v7.821l7.169-7.169c9.362-.356,16.768-5.451,16.768-11.672C340.587,331.514,332.588,326.3,322.694,326.3Zm-7.88,14.161a2.488,2.488,0,1,1,2.488-2.488A2.5,2.5,0,0,1,314.813,340.461Zm7.88,0a2.488,2.488,0,1,1,2.489-2.488A2.5,2.5,0,0,1,322.694,340.461Zm7.821,0A2.488,2.488,0,1,1,333,337.972,2.5,2.5,0,0,1,330.515,340.461Z" transform="translate(-157.841 -197.542)" fill="#e43438"/>
              <g id="Grupo_1076340" data-name="Grupo 1076340" transform="translate(51.737)">
                <g id="Grupo_1076334" data-name="Grupo 1076334" transform="translate(32.647 1.126)">
                  <g id="Grupo_1076333" data-name="Grupo 1076333">
                    <path id="Trazado_825324" data-name="Trazado 825324" d="M210.453,113.847v-3.14l-2.014-.415h0c-.059-.118-.118-.3-.178-.415h0l1.126-1.718-2.192-2.192-1.718,1.126h0c-.118-.059-.3-.118-.415-.178h0l-.415-2.015h-3.14l-.415,2.015h0c-.119.059-.3.118-.415.178h0l-1.718-1.126-2.192,2.192,1.126,1.718h0c-.059.119-.118.3-.178.415h0l-2.014.415v3.14l2.014.415h0c.059.118.118.3.178.415h0l-1.126,1.718,2.192,2.192,1.718-1.126h0c.118.059.3.118.415.178h0l.415,2.014h3.14l.415-2.014h0c.118-.059.3-.119.415-.178h0l1.718,1.126,2.192-2.192-1.126-1.718h0c.059-.118.118-.3.178-.415h0Zm-7.347,1.3a2.9,2.9,0,1,1,2.9-2.9A2.908,2.908,0,0,1,203.106,115.15Z" transform="translate(-195.7 -104.9)" fill="#0059d6"/>
                  </g>
                </g>
                <g id="Grupo_1076339" data-name="Grupo 1076339">
                  <g id="Grupo_1076336" data-name="Grupo 1076336" transform="translate(5.036 24.826)">
                    <g id="Grupo_1076335" data-name="Grupo 1076335">
                      <path id="Trazado_825325" data-name="Trazado 825325" d="M149.1,144.9l4.207,4.207,3.318-2.192h0c.3.118.533.237.829.355h0l.77,3.911h6.1l.77-3.911h0c.3-.118.592-.237.829-.355h0l3.318,2.192,4.207-4.207Z" transform="translate(-149.1 -144.9)" fill="#a5acba"/>
                    </g>
                  </g>
                  <g id="Grupo_1076338" data-name="Grupo 1076338">
                    <g id="Grupo_1076337" data-name="Grupo 1076337">
                      <path id="Trazado_825326" data-name="Trazado 825326" d="M169.336,120.419v-6.1l-3.91-.77h0c-.119-.3-.237-.592-.356-.829h0l2.192-3.318-4.325-4.325-3.318,2.192h0c-.3-.118-.533-.237-.83-.355h0L158.02,103h-6.1l-.77,3.911h0c-.3.118-.592.237-.829.355h0L147,105.074l-4.325,4.325,2.192,3.318h0c-.118.3-.237.533-.355.829h0l-3.911.77v6.1l3.911.77h0c.118.3.237.592.355.829h0l-2.192,3.318L147,129.663l3.318-2.192h0c.3.118.533.237.829.355h0l.77,3.911h6.1l.77-3.911h0c.3-.118.592-.237.83-.355h0l3.318,2.192,4.325-4.325-2.192-3.318h0c.118-.3.237-.533.356-.829h0Zm-14.4,2.666a5.688,5.688,0,1,1,5.688-5.688A5.689,5.689,0,0,1,154.938,123.086Z" transform="translate(-140.6 -103)" fill="#0cba83"/>
                    </g>
                  </g>
                </g>
              </g>
              <g id="Grupo_1076341" data-name="Grupo 1076341" transform="translate(189.071 30.968)">
                <circle id="Elipse_9891" data-name="Elipse 9891" cx="16.946" cy="16.946" r="16.946" transform="translate(0 23.964) rotate(-45)" fill="#e4ebfd"/>
                <path id="Trazado_825327" data-name="Trazado 825327" d="M415.069,175.1v9.776l-2.962,1.541-2.963-1.541V175.1a9,9,0,0,0-.3,16.886v10.606a14.314,14.314,0,0,0,3.2.356,13.934,13.934,0,0,0,3.2-.356V191.986a8.98,8.98,0,0,0,5.747-8.413A8.7,8.7,0,0,0,415.069,175.1Z" transform="translate(-388.187 -164.334)" fill="#0059d6"/>
              </g>
              <g id="Grupo_1076351" data-name="Grupo 1076351" transform="translate(0 55.208)">
                <g id="Grupo_1076348" data-name="Grupo 1076348" transform="translate(1.659 43.904)">
                  <path id="Trazado_825328" data-name="Trazado 825328" d="M136.83,280H112.3v27.729h24.53c.889,0,1.6-.474,1.6-1.066v-25.6C138.37,280.474,137.659,280,136.83,280Z" transform="translate(-77.757 -276.563)" fill="#a5acba"/>
                  <g id="Grupo_1076347" data-name="Grupo 1076347">
                    <path id="Trazado_825329" data-name="Trazado 825329" d="M109.932,301.218H55.3a1.315,1.315,0,0,1-1.3-1.3V275.5a1.315,1.315,0,0,1,1.3-1.3h54.629a1.315,1.315,0,0,1,1.3,1.3v24.411A1.315,1.315,0,0,1,109.932,301.218Z" transform="translate(-54 -274.2)" fill="#dce6f2"/>
                    <g id="Grupo_1076346" data-name="Grupo 1076346" transform="translate(4.622 3.377)">
                      <g id="Grupo_1076342" data-name="Grupo 1076342" transform="translate(23.138 0.248)">
                        <rect id="Rectángulo_383707" data-name="Rectángulo 383707" width="24.826" height="3.496" transform="translate(24.847 19.308) rotate(180)" fill="#becbeb"/>
                        <rect id="Rectángulo_383708" data-name="Rectángulo 383708" width="24.826" height="3.496" transform="translate(24.847 14.037) rotate(180)" fill="#becbeb"/>
                        <rect id="Rectángulo_383709" data-name="Rectángulo 383709" width="15.168" height="3.496" transform="translate(15.168 8.766) rotate(180)" fill="#becbeb"/>
                        <rect id="Rectángulo_383710" data-name="Rectángulo 383710" width="6.992" height="3.496" transform="translate(24.855 8.766) rotate(180)" fill="#0cba83"/>
                        <rect id="Rectángulo_383711" data-name="Rectángulo 383711" width="24.826" height="3.496" transform="translate(24.847 3.496) rotate(180)" fill="#becbeb"/>
                      </g>
                      <g id="Grupo_1076345" data-name="Grupo 1076345">
                        <g id="Grupo_1076344" data-name="Grupo 1076344">
                          <rect id="Rectángulo_383712" data-name="Rectángulo 383712" width="19.612" height="19.612" fill="#0059d6"/>
                          <g id="Grupo_1076343" data-name="Grupo 1076343" transform="translate(3.437 6.162)">
                            <path id="Trazado_825330" data-name="Trazado 825330" d="M67.6,294.966v-.948l3.851-1.718v1.007l-2.9,1.185,2.9,1.185v1.007Z" transform="translate(-67.6 -291.115)" fill="#fff"/>
                            <path id="Trazado_825331" data-name="Trazado 825331" d="M77.744,290.3h1.3L76.2,297.114H74.9Z" transform="translate(-70.575 -290.3)" fill="#fff"/>
                            <path id="Trazado_825332" data-name="Trazado 825332" d="M82.6,295.677l2.9-1.185-2.9-1.185V292.3l3.851,1.718v.948L82.6,296.685Z" transform="translate(-73.713 -291.115)" fill="#fff"/>
                          </g>
                        </g>
                      </g>
                    </g>
                  </g>
                </g>
                <g id="Grupo_1076350" data-name="Grupo 1076350">
                  <rect id="Rectángulo_383713" data-name="Rectángulo 383713" width="8.295" height="22.634" transform="translate(36.083 4.621)" fill="#a5acba"/>
                  <g id="Grupo_1076349" data-name="Grupo 1076349">
                    <rect id="Rectángulo_383714" data-name="Rectángulo 383714" width="41.12" height="22.634" fill="#fbb03b"/>
                    <path id="Trazado_825333" data-name="Trazado 825333" d="M71.76,228.561H92.32L71.76,214.4,51.2,228.561Z" transform="translate(-51.2 -205.927)" fill="#fbbf62"/>
                    <path id="Trazado_825334" data-name="Trazado 825334" d="M71.76,200.1H51.2l20.56,14.161L92.32,200.1Z" transform="translate(-51.2 -200.1)" fill="#ff9129"/>
                  </g>
                </g>
              </g>
            </g>
          </g>
        </g>
      </g>
    </g>
  </g>
</svg>
