<svg id="Grupo_1072932" data-name="Grupo 1072932" xmlns="http://www.w3.org/2000/svg" width="114.738" height="33.23" viewBox="0 0 114.738 33.23">
  <g id="Grupo_1072927" data-name="Grupo 1072927">
    <path id="Trazado_818457" data-name="Trazado 818457" d="M114.738,10.753l-1.92,1.92a13.144,13.144,0,0,1-18.589,0l-1.156-1.156a13.148,13.148,0,0,0-18.589,0,13.144,13.144,0,0,1-18.589,0l-.105-.105a13.148,13.148,0,0,0-18.589,0l-.946.946a13.144,13.144,0,0,1-18.589,0l-.733-.735A13.141,13.141,0,0,0,0,10.237v5.791a13.138,13.138,0,0,1,16.935,1.383l.733.735a13.144,13.144,0,0,0,18.589,0L37.2,17.2a13.144,13.144,0,0,1,18.589,0l.105.105a13.144,13.144,0,0,0,18.589,0,13.144,13.144,0,0,1,18.589,0l1.156,1.156a13.144,13.144,0,0,0,18.589,0l1.92-1.92Z" transform="translate(0 10.919)" fill="#dcecfe"/>
    <path id="Trazado_818458" data-name="Trazado 818458" d="M114.738,3.19l-1.92,1.92a13.144,13.144,0,0,1-18.589,0L93.073,3.954a13.144,13.144,0,0,0-18.589,0,13.144,13.144,0,0,1-18.589,0l-.105-.105a13.144,13.144,0,0,0-18.589,0l-.946.946a13.144,13.144,0,0,1-18.589,0l-.733-.735A13.141,13.141,0,0,0,0,2.674V8.462A13.141,13.141,0,0,1,16.935,9.848l.733.735a13.144,13.144,0,0,0,18.589,0l.946-.946a13.144,13.144,0,0,1,18.589,0l.105.105a13.144,13.144,0,0,0,18.589,0,13.144,13.144,0,0,1,18.589,0L94.229,10.9a13.144,13.144,0,0,0,18.589,0l1.92-1.92Z" transform="translate(0 0.001)" fill="#dcecfe"/>
  </g>
</svg>
